<svg version="1.1" viewBox="0 0 6826.7 2645.3" xmlns="http://www.w3.org/2000/svg">
    <defs>
        <filter id="a" color-interpolation-filters="sRGB">
            <feColorMatrix result="color1" type="hueRotate" values="180" />
            <feColorMatrix
                result="fbSourceGraphic"
                values="-1 0 0 0 1 0 -1 0 0 1 0 0 -1 0 1 -0.21 -0.72 -0.07 2 0 "
            />
            <feColorMatrix
                in="fbSourceGraphic"
                result="fbSourceGraphicAlpha"
                values="0 0 0 -1 0 0 0 0 -1 0 0 0 0 -1 0 0 0 0 1 0"
            />
            <feColorMatrix in="fbSourceGraphic" result="color1" type="hueRotate" values="180" />
            <feColorMatrix
                result="fbSourceGraphic"
                values="-1 0 0 0 1 0 -1 0 0 1 0 0 -1 0 1 -0.21 -0.72 -0.07 2 0 "
            />
            <feColorMatrix
                in="fbSourceGraphic"
                result="fbSourceGraphicAlpha"
                values="0 0 0 -1 0 0 0 0 -1 0 0 0 0 -1 0 0 0 0 1 0"
            />
            <feColorMatrix in="fbSourceGraphic" result="color1" type="hueRotate" values="180" />
            <feColorMatrix
                result="color2"
                values="-1 0 0 0 1 0 -1 0 0 1 0 0 -1 0 1 -0.21 -0.72 -0.07 2 0 "
            />
        </filter>
    </defs>
    <path
        d="m2077.7 2534.2c-87.252-26.506-147.09-45.338-149.3-46.987l-3.686-2.752 12.246-57.884c20.872-98.653 54.508-295.04 57.985-338.55 2.4939-31.205 2.0687-118.07-0.7212-147.33-7.3901-77.528-19.535-132.03-36.994-166.02-12.768-24.856-19.119-30.338-41.494-35.815-24.257-5.9379-31.111-4.3683-138.63 31.742-34.725 11.662-118.04 40.105-185.14 63.206-67.1 23.101-152.9 52.504-190.67 65.34-114.53 38.928-289.52 98.633-483.33 164.91-101.2 34.608-221.8 75.706-268 91.33-99.727 33.725-122.05 41.472-185.33 64.331-70.607 25.503-138.71 48.456-180.67 60.891-13.567 4.0207-30.696 9.4138-38.064 11.985-15.465 5.3953-30.479 9.5454-58.602 16.199-16.696 3.95-23.422 4.8604-40.715 5.5113-24.797 0.9332-37.114-0.5999-56.048-6.9764-28.276-9.5225-44.989-19.75-60.006-36.723-12.982-14.672-17.614-21.284-21.777-31.077-6.3375-14.912-2.9289-16.546 11.531-5.5286 31.981 24.366 76.981 34.724 121.68 28.009 18.424-2.7678 55.959-12.245 89.479-22.593 35.668-11.011 248.3-94.639 357.85-140.74 42.167-17.745 216.77-90.647 388-162 293.07-122.13 441.62-184.09 526.67-219.69 20.167-8.4406 76.567-31.852 125.33-52.025 128.19-53.027 221-91.82 260.67-108.95 72.017-31.104 90.804-37.431 119.33-40.191 12.796-1.2379 17.276-1.1391 27.072 0.5965 21.413 3.794 44.178 17.74 69.023 42.285 14.92 14.74 17.961 18.843 78.543 106 34.662 49.867 63.758 91.456 64.659 92.42 1.3252 1.4188 3.469-0.7449 11.228-11.333 5.2745-7.1979 15.452-22.087 22.617-33.087 43.746-67.163 87.8-100.03 130.86-97.621 14.353 0.8024 34.899 6.3086 48.719 13.056 12.369 6.0394 29.07 18.936 40.032 30.914 8.9775 9.8094 27.25 33.894 27.25 35.918 0 0.7756 7.0136 14.383 15.586 30.238s17.349 32.128 19.504 36.161c2.1551 4.0333 4.9364 8.8333 6.181 10.667 1.2444 1.8333 3.6364 6.3333 5.3153 10 4.4881 9.8016 161.06 301.5 166.04 309.33 2.3301 3.6667 5.8135 9.8159 7.7407 13.665 10.305 20.581 63.81 114.37 69.925 122.57 15.375 20.623 35.109 35.571 54.375 41.187 11.211 3.2681 28.53 3.2637 38.667-0.013 4.4-1.4209 26.3-11.838 48.667-23.148 22.367-11.31 46.504-23.497 53.639-27.081 14.503-7.2858 13.579-5.3005 8.3061-17.854-0.924-2.2-2.5829-6.7-3.6862-10-1.8982-5.6764-3.0296-8.5943-6.9804-18-0.924-2.2-2.6136-6.7-3.7547-10s-3.9508-11.1-6.2439-17.333c-3.7388-10.164-9.916-28.568-17.229-51.333-3.7767-11.756-10.52-36.454-12.805-46.898-17.29-79.038-20.749-111.58-20.734-195.1 0.013-45.045 3.0957-71.082 14.074-118.67 6.321-27.399 10.498-41.528 17.737-60 16.132-41.162 36.703-72.657 67.546-103.42 29.262-29.182 49.959-43.145 104.8-70.696 31.118-15.634 33.804-16.892 45.333-21.234 3.3-1.2429 6.9-2.7015 8-3.2415 1.1-0.5398 5.6-2.0421 10-3.3384 4.4-1.2962 10.144-3.1456 12.764-4.1096 24.351-8.9593 88.245-21.68 131.24-26.128 23.845-2.4672 77.539-2.1128 98.667 0.6513 75.093 9.824 132.29 35.362 185.13 82.666 11.08 9.918 43.896 45.893 51.248 56.182 0.5246 0.734 2.7532 3.734 4.9527 6.6666 25.546 34.061 44.302 73.516 57.996 122 0.7251 2.5667 3.7652 12.767 6.756 22.667 5.2045 17.228 16.735 62.955 19.901 78.922l1.5046 7.5889 22.922-11.882c12.607-6.5352 66.122-34.267 118.92-61.626l96-49.744-0.08-80.629c-0.044-44.346-0.5918-142.73-1.2172-218.63-1.4012-170.05-1.4204-186.51-0.3666-313.33 0.8114-97.66 3.4644-233.32 4.5881-234.62 0.2941-0.34001 65.156-0.8442 144.14-1.1204 129.25-0.452 144.1-0.28946 148.58 1.6264 3.1486 1.3467 5.2676 3.2881 5.769 5.2854 0.4357 1.7363-1.682 151.88-4.706 333.66-3.0242 181.78-5.3202 336.6-5.1023 344.06l0.396 13.557 359.83-191.17c197.91-105.14 360.09-191.42 360.4-191.74 0.3155-0.3154 2.032-40.992 3.8145-90.392 6.5183-180.64 19.703-484.83 22.628-522.07l0.7528-9.5831-85.048 42.068c-46.776 23.138-132.75 65.757-191.05 94.709s-110.2 54.314-115.33 56.36c-16.004 6.3779-49.97 16.926-66.262 20.578-24.153 5.414-41.236 7.3992-63.897 7.4258-60.524 0.0709-98.286-19.398-138.71-71.514-3.4999-4.5126-6.9082-8.4126-7.574-8.6667-1.6048-0.61237-28.9-37.287-49.464-66.462-9.0458-12.833-19.068-26.158-22.272-29.61s-5.8251-6.9239-5.8251-7.7154c0-0.79156-14.203-20.467-31.562-43.724-17.359-23.257-32.171-43.882-32.915-45.834-1.1426-2.9985-0.7968-4.2773 2.2281-8.2432 4.4427-5.8248 8.0371-7.09 12.267-4.3183 2.3497 1.5396 6.5461 2.1106 15.512 2.1106 10.828 0 14.146-0.63144 27.888-5.3081 83.178-28.307 303.93-139.79 595.91-300.94 31.167-17.201 61.28-34.383 66.918-38.181 5.6382-3.7981 17.938-11.377 27.333-16.842 9.3953-5.465 21.582-13.156 27.082-17.09 18.049-12.912 64.401-42.41 77.333-49.215 3.3-1.7363 8.9094-4.9597 12.466-7.1632 3.5561-2.2034 10.156-5.5486 14.667-7.4336 4.5106-1.885 9.2556-4.3646 10.544-5.5102 7.2175-6.4155 28.763 3.098 39.638 17.503 11.317 14.989 17.844 33.633 23.402 66.846 3.07 18.345 6.3237 31.155 14.152 55.718 0.964 3.0249 6.9972 11.244 15.037 20.484 36.706 42.188 64.199 83.538 76.547 115.13 5.4716 13.999 8.2146 27.818 8.1805 41.213-0.056 21.729-4.5645 33.663-18.171 48.089-9.3313 9.8938-17.688 15.319-35.274 22.901-16.183 6.9768-30.148 16.542-37.153 25.448-3.0766 3.9111-4.7671 12.371-14.005 70.084-24.193 151.15-42.728 326.95-51.971 492.93-4.1316 74.188-3.9904 66.504-1.2039 65.528 2.362-0.8275 2.3663-0.7816 0.092 0.9871-2.0363 1.5835-2.3289 3.6225-2 13.932l0.3853 12.077 95.333-50.681c114.6-60.921 155.04-81.927 252-130.88 40.7-20.548 74.9-38.098 76-39 4.8032-3.9392 53.816-30.312 80.667-43.404 27.984-13.645 76.654-34.97 88-38.556 2.9334-0.92728 5.9543-2.1741 6.7132-2.7707 3.543-2.7854 36.452-13.113 56.793-17.824 16.847-3.9012 55.961-10.532 76.493-12.968 21.55-2.5565 72.137-2.1688 92 0.70497 35.944 5.2005 65.429 13.918 99.258 29.346 24.564 11.203 38.442 19.182 55.378 31.839 13.014 9.726 38.712 33.858 46.048 43.242l3.3156 4.2412 157.33-9.3336 112 47.899 0.7846 52.953 320.79 213.72 0.8722 15.141c0.4799 8.3273 0.8752 37.803 0.8786 65.502v50.362l-3 1.2698c-1.65 0.6984-14.366 3.101-28.256 5.339-13.891 2.238-25.295 4.2038-25.341 4.3683-0.047 0.1645 0.2438 11.099 0.6454 24.299s0.5774 24.228 0.3907 24.506c-0.1867 0.2783-23.312 6.7567-51.389 14.396-28.077 7.6396-58.835 16.016-68.35 18.615-9.5152 2.5987-18.918 5.5611-20.894 6.5832-7.0975 3.6703-13.438 0.9675-35.669-15.204-15.791-11.488-21.43-14.891-24.64-14.873-2.2896 0.013-16.163 1.4699-30.83 3.2386-14.667 1.7686-35.381 3.9389-46.033 4.8228l-19.366 1.607-170.7-134.62c-93.879-74.036-175.32-138.36-180.97-142.95l-10.275-8.3304 0.3408-112.23 0.3409-112.23 17.333-1.3333-14-6.5086c-62.322-28.974-144.6-37.549-217.97-22.715-19.112 3.8646-114.31 39.317-140.11 52.178-8.6138 4.2937-125.74 68.083-127.92 69.667-0.7333 0.53313-7.1814 4.072-14.329 7.8642-7.1477 3.7922-15.548 8.3055-18.667 10.03-3.119 1.7241-25.171 13.783-49.004 26.797-23.833 13.014-46.333 25.31-50 27.324-3.6666 2.0139-24.067 13.116-45.333 24.672s-55.167 30.01-75.333 41.009c-20.167 10.999-40.567 22.101-45.333 24.672-4.7666 2.5708-9.2666 5.1088-10 5.6401-0.7333 0.5312-5.8333 3.3794-11.333 6.3293-5.5 2.95-12.1 6.5272-14.667 7.9493-2.5666 1.4222-25.145 13.897-50.174 27.722l-45.507 25.136-1.0028 44.783c-1.4622 65.299-1.1147 259.84 0.5801 324.78 3.2349 123.96 7.8935 236.64 14.219 343.93 1.8568 31.494 3.0369 58.612 2.6227 60.263-0.4196 1.6716-8.2816 9.361-17.746 17.356-9.3457 7.8948-26.592 22.53-38.326 32.523-56.706 48.294-58.829 49.742-72.917 49.707-13.742-0.033-26.096-7.5664-28.651-17.469-2.3143-8.9719-0.3911-367.7 2.9539-550.98 0.68-37.26 2.6544-89.758 7.4105-197.05 0.8545-19.276 1.3248-35.265 1.0451-35.532-0.4363-0.4159-13.689 6.6644-45.175 24.136-32.22 17.878-87.717 48.309-174.67 95.777-105.32 57.494-141.91 77.55-174 95.36-38.676 21.466-87.448 48.185-200.67 109.93-64.167 34.995-117.08 64.02-117.59 64.501-0.7235 0.6838-4.7186 219.53-6.3444 347.54-0.6258 49.265 6.6176 89.245 19.926 109.99 5.6816 8.8539 14.722 16.89 23.776 21.134 7.0697 3.3141 8.7932 3.5464 26.234 3.5344 15.363-0.013 20.555-0.5488 29.333-3.0411 62.966-17.875 143.14-69.741 235.33-152.23 23.833-21.326 67.017-59.311 95.963-84.411 36.919-32.014 64.581-57.418 92.667-85.106 22.021-21.708 41.452-40.214 43.181-41.124 8.401-4.4208 6.674-0.7647-36.18 76.593-152.06 274.5-291.32 454.54-413.63 534.76-95.023 62.328-176.89 65.555-260.45 10.268-48.282-31.945-86.132-78.085-106.83-130.23-6.7853-17.093-5.6174-16.776-19.426-5.2612-167.29 139.51-314.65 224.42-444.94 256.38-45.901 11.262-82.175 15.437-124.35 14.315-29.234-0.7784-45.189-2.5872-72-8.1626-8.8-1.83-24.276-4.8674-34.39-6.7499-74.17-13.804-138.34-49.119-194.17-106.86-9.1075-9.4192-24.726-25.526-34.708-35.792-20.638-21.227-33.008-34.798-39.16-42.959-2.3321-3.094-4.772-5.644-5.4221-5.6666-1.2847-0.045-233.15 109.78-281.71 133.43-16.405 7.991-30.152 14.529-30.548 14.529-0.3966 0-21.721 9.9336-47.387 22.074-29.336 13.877-50.429 23.037-56.8 24.667-12.599 3.2224-32.067 3.4342-43.516 0.4737-9.6176-2.4868-24.312-9.6076-33.025-16.003-11.044-8.1072-29.524-28.905-44.378-49.945-7.999-11.33-16.999-23.896-20-27.924s-11.456-16.063-18.79-26.744c-22.204-32.34-189.17-269.21-189.52-268.86-0.4819 0.482-93.224 413.51-95.114 423.6-1.7988 9.5952-4.6588 17.403-6.302 17.204-0.5874-0.071-66.593-20.035-146.68-44.364zm1560.9-151.56c51.984-4.6764 113.96-23.229 162-48.493 94.251-49.569 176.5-113.59 219.22-170.63 14.608-19.507 13.917-16.052 12.928-64.638-0.898-44.088-1.5276-69.654-2.9765-120.85-0.4774-16.867-1.2362-61.335-1.6863-98.818l-0.8183-68.151-44.667 23.2c-24.567 12.76-58.167 30.161-74.667 38.669-16.5 8.5079-34.2 17.711-39.333 20.452-11.808 6.3046-93.136 48.456-214.67 111.26-52.067 26.907-95.267 49.673-96 50.592-0.7333 0.9182-24.133 14.162-52 29.431-123.02 67.406-159.46 87.298-171.17 93.447-6.8747 3.6109-12.764 7.2546-13.087 8.0973-0.9556 2.4903 9.8057 22.625 21.282 39.82 31.444 47.112 67.59 83.913 106.67 108.61 17.622 11.136 54.248 28.141 76.355 35.451 35.806 11.839 73.63 16.054 112.61 12.548zm-224.67-371.19c73.333-38.6 150.91-79.01 172.39-89.8 32.715-16.436 39.187-20.156 39.888-22.924 1.2153-4.8048-1.6412-28.512-4.7429-39.362-1.4675-5.1333-3.914-15.824-5.4367-23.757-2.9549-15.395-13.239-43.265-23.538-63.788-29.241-58.271-66.542-94.783-113.89-111.48-21.856-7.708-30.976-8.9796-64-8.9242-34.204 0.057-45.988 1.6854-68.225 9.4254-89.74 31.237-132.36 95.91-128.63 195.19 2.0138 53.638 16.067 113.7 43.527 186.03 10.322 27.189 16.363 40.779 17.857 40.169 0.8103-0.3309 61.473-32.183 134.81-70.782zm3235.3-637.89c29.7-8.0384 56.464-15.27 59.476-16.071l5.4761-1.4552 1.2087-13.333c0.8216-9.0617 0.7677-13.333-0.1682-13.333-0.7573 0-29.554 5.4-63.993 12-34.439 6.6-63.077 12-63.641 12s-1.0255 8.3516-1.0255 18.559v18.559l4.3333-1.1555c2.3834-0.6354 28.633-7.7322 58.333-15.771zm-80.664-4.5256c1.2013-16.134 0.696-20.042-2.7082-20.947-1.488-0.3956-4.788-2.2736-7.3333-4.1732-2.5453-1.8997-6.9392-4.8365-9.764-6.5262l-5.1363-3.0724 0.566 15.542 0.5659 15.541 6.0836 3.8582c3.346 2.122 6.3027 4.3761 6.5703 5.009 0.6396 1.5127 7.887 7.1023 9.2086 7.1023 0.566 0 1.4424-5.55 1.9474-12.333zm-74.064-9.0699c18.666-2.1921 34.339-4.6335 34.828-5.4253 0.4894-0.7919 1.2974-6.0294 1.7956-11.639s1.7416-13.84 2.7629-18.29c1.3565-5.9097 1.8624-18.554 1.8768-46.907l0.02-38.817-4.2775 0.7027c-2.3526 0.3865-9.9776 1.6948-16.944 2.9072l-12.667 2.2044-0.6667 47.601c-0.6768 48.321-1.2748 53.658-5.5348 49.398-2.8646-2.8647-3.6394-14.253-3.719-54.665-0.063-31.93-0.4366-40.333-1.7934-40.333-1.6688 0-29.289 4.7426-35.286 6.059l-3 0.6584v111.78l4.3333-0.6251c2.3834-0.3437 19.606-2.4185 38.272-4.6105zm-60.022-56.263-0.084-56.333-129.42-100.67c-71.181-55.367-130.09-101.72-130.9-103-0.8164-1.2834-2.5314-2.3334-3.8112-2.3334-2.1566 0-2.3528-3.0494-2.6794-41.63l-0.3518-41.63-34.622-19.637c-19.042-10.8-34.88-19.379-35.195-19.064-1.1751 1.1751 2.7869 177.33 4.0176 178.63 1.2652 1.3372 332.17 261.77 332.8 261.92 0.1833 0.044 0.2957-25.269 0.2496-56.253zm208.66 21.648c30.751-5.8802 56.129-10.91 56.397-11.178 0.8877-0.8878-13.56-12.804-15.524-12.804-1.5792 0-116.77 22.088-120.62 23.129-0.6412 0.1734 2.95 3.157 7.9804 6.6303 6.8557 4.7335 9.986 6.1397 12.499 5.6146 1.8442-0.3853 28.513-5.5117 59.263-11.392zm-88.331-16.644c17.395-3.5595 16.064-2.8261 15.217-8.39-0.4143-2.721-1.1022-18.736-1.5286-35.59-0.4262-16.853-0.8861-30.744-1.0217-30.868-0.7147-0.6549-19.917 3.3179-20.905 4.325-0.9262 0.9446-2.6658 72.524-1.7624 72.52 0.1355-6e-4 4.6355-0.8992 10-1.997zm37.754-7.3767c13.12-2.4233 13.008-2.3585 12.17-7.0899-0.4099-2.3123-1.1116-18-1.5593-34.862-0.4479-16.862-1.006-30.849-1.2404-31.084-0.3786-0.3785-11.181 1.2715-20.869 3.1876l-3.4993 0.6921 0.406 16.264c0.2233 8.9453 0.448 25.126 0.4993 35.956l0.093 19.692 3-0.6396c1.65-0.3518 6.6-1.3045 11-2.1172zm147.47-6.9321 23.465-4.2798 0.8681-25.922c0.4775-14.257 0.8682-33.662 0.8682-43.123v-17.201l-6.3334 0.8341c-12.251 1.6136-13.649 2.1129-14.284 5.1022-0.3378 1.5916-0.9608 17.294-1.3842 34.894-0.7915 32.887-1.5994 40.756-4.2762 41.648-0.8481 0.2827-2.3328-0.8725-3.299-2.567-1.3379-2.3462-1.7475-11.723-1.7174-39.317l0.04-36.236-6.7064 0.7559c-3.6884 0.4157-6.7886 0.8218-6.8893 0.9024-0.1 0.081-0.8381 17.915-1.6388 39.632-0.8007 21.717-1.8324 40.467-2.2929 41.667-0.4604 1.2-1.6519 2.1817-2.6476 2.1817-4.1715 0-4.6892-5.2421-4.296-43.495l0.3917-38.119-9.3333 0.8986c-5.1334 0.4942-10.03 1.6074-10.882 2.4737-1.0428 1.0609-1.8212 12.344-2.3835 34.553-0.7173 28.33-0.5655 32.874 1.0775 32.244 1.1557-0.4435 6.0554 2.9883 12.384 8.6735 7.6033 6.831 11.201 9.2257 13.138 8.744 1.4667-0.3648 13.226-2.5893 26.132-4.9432zm-110.47-0.4187 13-2.4323v-35.089c0-27.226-0.3735-35.07-1.6667-35.006-0.9166 0.046-7.6666 1.1117-15 2.3692l-13.333 2.2863 0.061 5.6308c0.033 3.097 0.1834 19.195 0.3334 35.774 0.2122 23.468 0.6417 30.005 1.9393 29.521 0.9167-0.3418 7.5167-1.7161 14.667-3.0538zm38.885-7.4527 8.5209-1.57 0.5206-34.127c0.2861-18.77 0.3864-34.335 0.2228-34.59-0.1638-0.2547-5.6796 0.2723-12.258 1.1713-11.741 1.6044-11.975 1.7077-12.759 5.6298-0.4395 2.1975-0.7991 18.095-0.7991 35.329v31.333l4.0152-0.8031c2.2084-0.4417 7.8498-1.5096 12.536-2.3731zm-203.47-59.268c4.63-0.5056 7.93-1.4009 7.3334-1.9893-2.1371-2.1078-64.301-41.016-66.797-41.808-5.4508-1.73-6.9967-12.758-1.7884-12.758 1.2756 0 10.691 5.55 20.923 12.333 10.232 6.7833 28.434 18.823 40.45 26.755l21.847 14.422 12.141-1.4975c6.6774-0.8237 12.974-1.7763 13.992-2.117 1.7055-0.5708-55.03-40.012-64.756-45.018-4.6044-2.3695-6.4251-6.0184-5.0945-10.211 1.3041-4.1087 5.2544-3.2059 13.652 3.1201 4.2249 3.1827 14.582 10.49 23.015 16.239 8.4334 5.7486 22.768 15.771 31.855 22.272l16.522 11.82 22.712-3.4497-11.878-7.8519c-6.5328-4.3186-21.178-14.281-32.544-22.139-11.367-7.8579-22.574-15.268-24.906-16.467-4.6042-2.3675-6.4252-6.0164-5.0945-10.209 0.8935-2.8152 6.4988-3.7624 7.9896-1.3501 0.8272 1.3383 9.7705 7.8215 42.01 30.454 9.9 6.9499 21.822 15.654 26.494 19.342l8.4944 6.7063 13.271-1.6563c18.252-2.2778 18.445-2.4192 10.14-7.4355-3.8869-2.3479-18.163-11.634-31.725-20.637-13.562-9.0023-26.868-17.496-29.57-18.874-5.2217-2.6639-7.1544-6.1963-5.7724-10.55 1.1915-3.7541 5.4259-3.3327 11.142 1.1088 2.6721 2.0765 16.254 11.48 30.181 20.896 13.927 9.4161 29.557 20.252 34.732 24.079l9.4094 6.9587 10.454-1.8179c5.7496-0.9998 10.647-2.0111 10.883-2.2474 0.5488-0.5487-58.354-40.872-64.214-43.96-4.7547-2.505-6.5937-6.1283-5.2537-10.35 1.324-4.1714 5.1621-3.1883 14.316 3.6667 4.6516 3.4833 12.818 9.3333 18.148 13 5.3296 3.6667 18.622 13.117 29.538 21 10.916 7.8833 20.883 14.333 22.147 14.333 1.2647 0 6.1864-0.6769 10.937-1.5042 7.1578-1.2465 8.2047-1.7436 6.1092-2.901-1.3908-0.7681-15.129-9.7539-30.529-19.968-15.4-10.214-30.206-19.699-32.903-21.077-5.214-2.6639-7.1448-6.1981-5.7636-10.55 1.1905-3.751 5.4224-3.3336 11.141 1.099 2.6722 2.0711 17.459 12.361 32.859 22.867s30.259 20.869 33.021 23.03c4.7105 3.6851 5.514 3.8706 13.002 3.0015 4.3898-0.5095 8.2134-1.3173 8.4969-1.7951 0.5293-0.8923-59.717-40.027-66.04-42.898-6.5224-2.9616-8.3116-13.304-2.3016-13.304 1.4661 0 4.5757 1.4486 6.9101 3.2192s20.366 13.944 40.069 27.051l35.825 23.832 8.5087-1.2716c8.1815-1.2227 10.379-2.4675 6.842-3.8756-0.9167-0.3649-14.931-9.9695-31.144-21.344-16.212-11.374-31.32-21.633-33.572-22.798s-4.4784-3.3244-4.9464-4.7992c-1.2344-3.8891 0.4575-8.0146 3.2867-8.0146 1.3446 0 9.9697 5.55 19.167 12.333 9.197 6.7833 23.466 17.124 31.709 22.98 8.2428 5.8558 18.272 13.198 22.287 16.316 6.6587 5.1705 7.7792 5.5942 12.757 4.8232 3.001-0.4649 6.4705-1.2069 7.7097-1.6488 2.3091-0.8235-55.946-40.494-112.92-76.896-52.768-33.715-104.63-67.241-138.88-89.78l-34.884-22.954-7.783 1.3389c-4.2807 0.73639-12.459 1.7452-18.174 2.2418-5.7148 0.49659-10.215 1.3865-10 1.9776 0.2147 0.5911 20.19 17.059 44.39 36.595s46.23 38.012 48.956 41.057l4.9561 5.5367-2.7392 2.9158c-6.9788 7.4287-9.4324 7.8753-91.605 16.674-62.89 6.7342-77.972 7.9931-78.844 6.5813-0.8391-1.3576-1.3815-1.2053-2.4391 0.6846-1.208 2.1587-1.6352 2.2138-3.8223 0.4933-1.3542-1.0654-21.676-18.137-45.16-37.937s-43.668-36.769-44.854-37.709c-1.7594-1.3938-5.5599-1.3146-20.636 0.43-10.164 1.1762-19.826 2.545-21.471 3.0419-2.5412 0.7674 15.318 15.216 118.67 96.004 117.05 91.501 121.83 95.075 126.32 94.404 2.5667-0.3832 8.4548-1.1106 13.085-1.6163zm-40.792-67.061c-1.3767-2.2637-10.544-10.186-20.372-17.604-24.789-18.712-29.836-27.848-15.424-27.917 3.0269-0.014 9.4034-0.5889 14.17-1.2765s31.167-3.9757 58.667-7.3068 52.85-6.413 56.333-6.8485c4.9153-0.6147 6.3333-1.3291 6.3333-3.1909 0-5.4745 4.6823-3.2947 29.465 13.718 28.172 19.338 34.318 24.349 32.321 26.346-1.9356 1.9355-14.352 4.2295-75.119 13.878-60.884 9.6674-76.533 12.278-80.935 13.502-2.2995 0.6393-3.4775-0.075-5.4383-3.2997zm54.109-13.495c25.091-3.6667 45.766-6.6659 45.943-6.6649 0.4264 0-0.4743-33.902-0.9123-34.344-0.1865-0.1883-23.385 2.9094-51.552 6.8837-28.167 3.9744-57.063 7.9525-64.213 8.8403s-12.963 1.9901-12.917 2.4496c0.045 0.4594 6.0551 5.6354 13.354 11.502 7.2991 5.8667 14.874 12.317 16.833 14.333 1.959 2.0166 4.5254 3.6666 5.7032 3.6666 1.1777 0 22.67-3 47.762-6.6666zm79.598-11.447c8.8-1.1667 16.103-2.221 16.228-2.343s-8.204-5.5264-18.51-12.01c-20.162-12.684-20.991-12.818-21.031-3.3962-0.013 2.6424-0.4105 8.5365-0.8872 13.098l-0.8669 8.2936 4.5336-0.7607c2.4933-0.4184 11.733-1.7153 20.533-2.8819zm-210-45.013c0-0.253-1.35-1.603-3-3l-3-2.5399 2.54 3c2.387 2.8192 3.46 3.6069 3.46 2.5399zm14.667-0.043c0-0.4614-12.716-9.9211-24-17.854-4.0833-2.8708-4.0047-2.7202 0.6293 1.2047 2.913 2.4671 8.613 7.2989 12.667 10.737 6.3035 5.3465 10.704 7.7771 10.704 5.912zm21.933-3.2662c-2.823-2.4569-19.267-13.658-19.267-13.125 0 1.0687 17.674 14.227 19.109 14.227 0.8831 0 0.943-0.4189 0.1576-1.1024zm14.667-0.028c-0.6967-0.6216-9.6667-7.0126-19.933-14.202-10.267-7.1896-19.567-13.711-20.667-14.492-1.1-0.7813-1.5051-0.8403-0.9-0.1311 2.7105 3.1773 39.104 29.805 40.833 29.876 1.1619 0.048 1.4279-0.3713 0.6667-1.0505zm12.733-0.7059c0-0.5259-22.499-16.746-34-24.512-8.4377-5.6972-3.211-1.4855 16.506 13.301 14.016 10.511 17.494 12.74 17.494 11.211zm22.556-2.5411c-0.3056-0.2075-1.7556-1.2575-3.2222-2.3333-2.4667-1.8094-2.5295-1.7811-0.8368 0.3773 1.0065 1.2833 2.4565 2.3333 3.2222 2.3333 0.7658 0 1.1423-0.1698 0.8368-0.3773zm12.711-2.0706c-0.6967-0.6129-7.2667-5.2226-14.6-10.244-7.3333-5.021-15.433-10.636-18-12.478-9.5036-6.821-0.7323 0.8743 13.727 12.043 8.2167 6.3468 16.11 11.597 17.54 11.667 1.5069 0.074 2.0674-0.3416 1.3333-0.9876zm-0.1107-9.7157c-21.692-15.658-26.556-19.04-25.156-17.487 2.3486 2.6044 35.889 26.984 37.124 26.984 0.654 0-4.7315-4.2736-11.968-9.4969zm-19.156 7.6602c0-0.2769-1.05-1.3269-2.3333-2.3334-2.1148-1.6585-2.1619-1.6113-0.5035 0.5035 1.7419 2.221 2.8368 2.9273 2.8368 1.8299zm55.319-0.665c3.8731-0.8288 3.3838-1.3429-17.298-18.176-35.774-29.116-65.102-51.444-66.139-50.356-0.5421 0.5685-1.1872 2.8221-1.4336 5.008-0.4112 3.6478 0.8006 4.9624 14.747 16 8.3573 6.6141 25.457 20.235 38 30.269 12.78 10.224 23.977 18.214 25.472 18.176 1.4667-0.037 4.4603-0.4516 6.6525-0.9207zm-60.652-3.335c0-0.2769-1.05-1.3269-2.3333-2.3334-2.1148-1.6585-2.1619-1.6113-0.5035 0.5035 1.7419 2.221 2.8368 2.9273 2.8368 1.8299zm-58.667-2.6667c0-0.2769-1.05-1.3269-2.3333-2.3333-2.1148-1.6585-2.1619-1.6114-0.5035 0.5034 1.7419 2.221 2.8368 2.9273 2.8368 1.8299zm-30.667-4c0-0.2769-1.05-1.3269-2.3334-2.3333-2.1148-1.6585-2.1618-1.6114-0.5034 0.5034 1.7418 2.221 2.8368 2.9273 2.8368 1.8299zm37.333-12c0-0.2769-1.05-1.3269-2.3333-2.3333-2.1148-1.6585-2.1619-1.6114-0.5035 0.5034 1.7419 2.221 2.8368 2.9273 2.8368 1.8299zm49.333-4.0725c0-0.3167-1.95-1.8663-4.3333-3.4435l-4.3333-2.8676 4 3.4369c4.102 3.5245 4.6666 3.8723 4.6666 2.8742zm-9.3333-6.5942c0-0.2768-1.05-1.3268-2.3333-2.3333-2.1148-1.6585-2.1619-1.6113-0.5035 0.5034 1.7419 2.221 2.8368 2.9273 2.8368 1.8299zm-8.6667-6.9437c-3.8025-3.1859-10.253-7.2448-8.5106-5.3553 1.4769 1.6017 11.16 8.7285 11.844 8.7174 0.3666-0.01-1.1334-1.5189-3.3334-3.3621zm-106.23-11.178c8.5596-0.7106 28.763-2.2832 44.896-3.4948s30.266-2.6884 31.405-3.2818c1.1395-0.5934 2.9395-0.5299 4 0.141 1.0604 0.671 3.2607 1.2291 4.8895 1.2403 2.8924 0.02 2.9698-0.3889 3.3333-17.593l0.372-17.613 5.3333-2.0025c2.9334-1.1014 5.9859-2.6352 6.7835-3.4084 0.7976-0.77321 12.048-3.4674 25-5.9872l23.55-4.5814v-29.104l-8.3334 0.83053c-4.5833 0.4568-58.433 4.4136-119.67 8.7929-61.233 4.3793-114.48 8.3186-118.33 8.7541l-7 0.79169v57.192l3-0.6458c1.65-0.3552 15-2.2333 29.667-4.1737l26.667-3.5278 9.7704 9.4815c11.103 10.775 9.1324 10.309 34.667 8.1898zm24.155-93.423c60.459-4.3736 110.26-7.9606 110.67-7.9712 0.4074-0.0107-20.112-8.3587-45.598-18.551l-46.339-18.532-17.661 1.1683c-30.133 1.9934-79.684 5.0816-127.66 7.9561-25.3 1.5159-51.7 3.181-58.667 3.7004l-12.667 0.9443 70.667 40.546 8.6667-0.65443c4.7666-0.35993 58.133-4.2328 118.59-8.6063zm-1593.9 962.72c0.4532-0.7333 1.0887-1.3333 1.412-1.3333 0.3235 0 0.588 0.6 0.588 1.3333s-0.6355 1.3333-1.412 1.3333c-0.7767 0-1.0412-0.6-0.588-1.3333zm78-65.837c0-0.2768 1.05-1.3268 2.3333-2.3333 2.1148-1.6584 2.1619-1.6114 0.5035 0.5034-1.7419 2.221-2.8368 2.9274-2.8368 1.8299zm83.419-25.221c0.5007-1.3149 1.2463-2.0549 1.6568-1.6445 0.4106 0.4105 8e-4 1.4864-0.9104 2.3909-1.3168 1.307-1.47 1.1539-0.7464-0.7464zm-41.419-11.609c1.3273-1.4666 2.7133-2.6666 3.08-2.6666 0.3666 0-0.4194 1.2-1.7467 2.6666-1.3273 1.4667-2.7133 2.6667-3.08 2.6667s0.4193-1.2 1.7467-2.6667zm-334.75-357.93c1.4236-1.1405 3.1736-2.0736 3.8889-2.0736 1.694 0 0.9376 0.6159-3.1437 2.5596-3.1431 1.497-3.1856 1.4691-0.7452-0.486zm-575.26-111.67c-23.009-19.081-68.113-64.097-83.236-83.073-32.598-40.903-53.709-80.876-64.08-121.33-6.2671-24.447-7.7999-39.094-7.0124-67.005 0.7668-27.181 3.6229-44.008 11.586-68.255 22.975-69.963 71.669-134.23 159.14-210.02 7.7595-6.724 11.462-9.0533 14.618-9.1953 6.6585-0.29968 5.9697 3.0946-3.0663 15.11-87.603 116.49-123.92 235.62-105.21 345.09 11.643 68.115 44.292 137.46 93.497 198.6 4.2734 5.3094 7.7699 10.859 7.7699 12.333 0 5.7683-5.9188 2.748-24-12.247zm434.67 12.247c0-1.4739 3.4965-7.0239 7.7698-12.333 25.741-31.981 49.692-71.05 65.675-107.13 57.727-130.31 38.771-266.16-56.849-407.42-6.7874-10.027-16.031-23.138-20.54-29.135-9.036-12.016-9.7248-15.41-3.0662-15.11 3.1558 0.14204 6.8589 2.4714 14.618 9.1953 99.046 85.828 151.21 160.75 167.12 240.02 3.6954 18.409 5.0182 55.861 2.6463 74.922-6.2209 49.992-29.802 100.97-70.157 151.67-15.08 18.946-60.177 63.962-83.222 83.073-18.082 14.995-24 18.015-24 12.247zm-631.26-87.297c-21.833-16.952-34.992-28.579-50.424-44.552-101.4-104.96-85.612-213.08 47.557-325.58 20.154-17.026 23.544-19.326 26.707-18.112 3.8384 1.4729 2.1576 6.2876-5.8816 16.848-29.313 38.507-52.668 84.804-62.829 124.55-4.9974 19.546-6.7175 31.861-7.4739 53.508-1.1449 32.764 2.612 58.711 13.125 90.647 9.7054 29.482 33.814 73.74 54.639 100.3 7.5579 9.641 8.3951 13.695 2.828 13.695-2.5866 0-8.0162-3.3651-18.248-11.31zm829.93 8.6145c0-1.4824 2.9296-6.4324 6.5104-11 28.672-36.575 54.058-88.87 62.607-128.97 8.0665-37.84 7.2605-78.032-2.316-115.49-10.162-39.744-33.516-86.042-62.83-124.55-8.0392-10.561-9.72-15.376-5.8816-16.848 3.1626-1.2136 6.553 1.0857 26.707 18.112 101.48 85.732 134.83 169.34 99.952 250.61-17.242 40.182-50.642 79.008-102.82 119.52-10.232 7.9447-15.662 11.31-18.248 11.31-2.8065 0-3.6824-0.6411-3.6824-2.6953zm-976-66.229c-3.3-3.362-13.5-13.42-22.667-22.351-32.343-31.51-49.343-61.924-53.494-95.704-3.6741-29.897 6.4553-62.816 29.222-94.966 9.932-14.026 50.86-55.388 54.806-55.388 3.9458 0 5.0071 3.6179 2.2982 7.8344-4.841 7.5351-16.002 30.6-20.994 43.384-20.656 52.902-22.315 105.26-5.0096 158.11 4.4823 13.69 19.195 45.629 24.672 53.559 1.9089 2.7638 3.1876 6.2445 2.9389 8-0.7343 5.1842-5.1645 4.2498-11.774-2.4834zm1132.9 5.3687c-1.7407-1.7407-0.8475-6.8042 1.7921-10.16 4.7047-5.9809 19.821-38.46 24.644-52.951 17.863-53.669 16.388-105.96-4.4974-159.45-4.9918-12.784-16.153-35.849-20.994-43.384-2.6601-4.1405-1.6659-7.8344 2.1087-7.8344 3.4441 0 36.85 32.361 48.289 46.779 25.085 31.617 35.592 58.403 36.502 93.062 0.2768 10.546 0.12 18.791-0.3484 18.322-0.4686-0.4685-1.9046 3.2933-3.1911 8.3594-7.6811 30.246-29.976 62.85-62.48 91.371-7.4283 6.518-14.099 12.958-14.823 14.312-1.2964 2.4223-5.261 3.3128-7.0012 1.5725z"
        filter="url(#a)"
        stroke-width="1.3333"
    />
</svg>
