<svg xmlns="http://www.w3.org/2000/svg" viewBox="0 0 174.57 133.61"><defs><style>.cls-1{fill:#a02000;}.cls-2{fill:#c7362d;}.cls-3{fill:#cacaca;}.cls-4{fill:#fff;}.cls-5{fill:#555;}.cls-6{fill:#ddd;}.cls-7{fill:#eee;}.cls-8{fill:#707070;}</style></defs><title>Fichier 1</title><g id="Calque_2" data-name="Calque 2"><g id="svg3063"><g id="layer2"><g id="g4242"><path id="cable-1" class="cls-1" d="M47.77,12C56.27,7.18,72-3.39,88.64,5.47c-.13,2.07.54,2-2.3,3.31C68.15.9,47.77,12,47.77,12Z"/><path id="Grifon" class="cls-2" d="M79.69,133.46c-.8-.23-2.32-1.8-3.93-4.06-2.27-3.19-2.74-3.68-5.09-5.26A14.44,14.44,0,0,0,66.59,122c-4.18-1.5-6.83-1.87-13.16-1.85-8.06,0-11,.33-16.21,1.64-3.54.9-5.28,1.11-6.2.76a2.78,2.78,0,0,1-1-.75c-.77-1-.86-1.55-1-6.19-.26-8.34-.4-9.62-1.57-14.27-1.11-4.44-1.66-7.85-1.42-8.82a1.31,1.31,0,0,1,.5-.64c.4-.26.43-.26,1.26.17a3.62,3.62,0,0,0,2.23.43,4.11,4.11,0,0,0,2.27-.44C35,90.7,36.68,87,36,83.69A18.45,18.45,0,0,0,34.93,81c-1.15-2.48-1.23-2.87-.66-3.49.73-.8,9.15-4.85,13-6.27a35.53,35.53,0,0,1,6.34-1.68c.55,0,.84.31.84.9s-.56.68-2.75,1.16c-1,.23-2.35.55-2.9.72-1.16.36-7.74,3.28-10.11,4.49-1.61.82-3,1.94-3,2.4a5.92,5.92,0,0,0,.54,1.26,10.7,10.7,0,0,1,1.2,5.4c0,2.94-.75,5.13-2.26,6.65-1,1-2,1.37-4.13,1.51-2,.13-2.44.32-2.66,1.11s-.24.77.67,4.33c1.53,6,1.7,7.25,2,14.34.17,4.32.26,5.53.45,5.9a2.85,2.85,0,0,0,2.65,1.1c1.24,0,1.19,0,7.13-1.3a88.6,88.6,0,0,1,10.68-1.76,16.85,16.85,0,0,0,5.35-1.43c2-.93,3-1.61,3-2s-.15-.47-1.91-.34l-4.27.28c-1.51.09-3.33.23-4,.32-3.94.46-6.45-.12-8-1.86a5.53,5.53,0,0,1-1.31-3.46c-.6-4.48,1.14-10.09,3.56-11.48.6-.35.8-.37,2.71-.37,3.29,0,4.92.48,10.61,3.08a75.69,75.69,0,0,0,10.07,3.9c8.32,2.54,8.43,2.57,11.45,2.57,7.08,0,12.78-3.39,17.3-10.32a76.55,76.55,0,0,0,5.06-9.92,70.87,70.87,0,0,1,4.53-9,1.73,1.73,0,0,1,2.06,0,4,4,0,0,1,1.32,1.49,154.43,154.43,0,0,0,10.49,14,24.53,24.53,0,0,0,1.85,1.63l.92.72.52-.32c.29-.17,1.74-.85,3.24-1.5,5.64-2.46,6.78-3.59,7.14-7,.22-2.15.5-2.83,3.36-8.24,1.55-2.94,2.08-4.27,1.7-4.27A13.32,13.32,0,0,0,136,76.27,58.48,58.48,0,0,0,131.57,82c-2.6,3.66-4.47,6-5.07,6.43a2.17,2.17,0,0,1-2.24.05c-1.22-.75-1.83-2.26-2.51-6.22a22.36,22.36,0,0,0-1.47-5.84A18.31,18.31,0,0,0,115,69.11c-2.06-1.73-2.61-2.71-2.21-4a25.09,25.09,0,0,1,2.87-5.31,78.07,78.07,0,0,1,9.78-12c2.52-2.65,2.93-3.15,2.85-3.46a5.64,5.64,0,0,0-1.35-1.4c-3.55-2.92-5.72-5.62-6.88-8.54a16.36,16.36,0,0,1-1.11-8.41c.27-2.8,0-2.85-3-.47a81.15,81.15,0,0,0-12.77,13c-.38.48-.78.88-.9.88-.3,0-1.27-1.07-1.18-1.31s6.21-7.11,8.48-9.43c3.21-3.28,4.29-4.18,9.89-8.24,1.11-.81,2-1.44,2-1.41s-.2.84-.45,1.8a16.69,16.69,0,0,0-.31,8.66A48.83,48.83,0,0,0,124,36.73a10.92,10.92,0,0,0,4,4,18.21,18.21,0,0,0,7.43,2.12c1.35,0,1.41-.05-1.63,1.7a39,39,0,0,0-9,7.1A64.48,64.48,0,0,0,117,61.81c-2.13,3.45-2,3.94,1.19,7.25a18.27,18.27,0,0,1,2.8,3.37,18.76,18.76,0,0,1,3.08,11c0,2,0,2.12.33,2.56s1,.85,1.26.69a15.09,15.09,0,0,0,2.42-3c5-7.1,8.52-11.64,10.94-14.16,2.24-2.32,3.37-2.82,7.65-3.41a44.2,44.2,0,0,1,10,0,24.56,24.56,0,0,1,5.42,1.84l1.3.62-1,.11c-1.33.15-1.75.3-4.45,1.58a33.17,33.17,0,0,1-3.27,1.38,3.13,3.13,0,0,1-3.89-1.31,3.36,3.36,0,0,1-.25-2.49l.12-.89-.44.05c-.36,0-.48.16-.64.66a7,7,0,0,0-.2,1.73,4,4,0,0,0,1.36,3.19l.55.42,2.41,0c2.64,0,2.65,0,2.12.82a3.28,3.28,0,0,1-2.16,1.44c-.75.15-1,.11-2.88-.37-2.68-.69-3.27-.77-4.35-.57-1.81.33-2.38.78-6.1,4.81-2.9,3.13-3.62,4.24-4.12,6.31-.56,2.29,0,5,1.17,5.87a20,20,0,0,0,2.12,1.19,18.55,18.55,0,0,1,2.41,1.43c1.37,1.06,2.78,3.16,2.78,4.16a1.38,1.38,0,0,1-1.09,1.12,4.31,4.31,0,0,1-1.37-.76c-1.42-1-1.84-1.23-2.66-1.23a1.3,1.3,0,0,0-1.15.45c-.25.25-.41.54-.36.66a4.12,4.12,0,0,0,1.41.64,5.24,5.24,0,0,1,3.09,2c.18.32.87,2.2,1.52,4.16.88,2.63,1.13,3.54.94,3.44a28.08,28.08,0,0,1-3.35-3.54c-.59-.72-1.69-2-2.44-2.78a24.38,24.38,0,0,1-3.86-5.53,12.82,12.82,0,0,0-1.25-2,4.71,4.71,0,0,0-4.17-1.11,7.27,7.27,0,0,0-3.5,1.9c-1.69,1.42-1.92,1.52-3.27,1.52a3.34,3.34,0,0,1-1.91-.4c-1-.52-2.37-1.9-4.18-4.17-.8-1-1.81-2.25-2.25-2.77a50,50,0,0,1-4-5.91c-1.87-3-3.06-4.66-3.33-4.67s-1.59,1.85-2.39,3.35a28.2,28.2,0,0,0-1.36,3.28,77.14,77.14,0,0,1-6.2,13,12.74,12.74,0,0,1-2.74,3.67c-5.12,4.91-12.33,7.68-18.3,7a24.49,24.49,0,0,1-2.87-.49c-1.39-.36-1.11-.25-13-5C48.55,99,48.89,99.1,47.35,99.17c-3.41.17-5.32,2.85-5.3,7.44,0,3.47.93,5.51,2.74,6.11.72.24,3.16.12,7-.35a63.35,63.35,0,0,1,8.93-.34c6.95,0,8.28.11,12,1.06a59.77,59.77,0,0,1,16.74,8,66,66,0,0,1,5.77,4.78l.67.73-.37.14a13.68,13.68,0,0,1-4.26,0c-1.46-.44-3.5-2.92-3.32-4,.11-.69,0-1.14-.35-1.14s-.63.38-.72,1.34a3.31,3.31,0,0,0,.38,2l.46,1.1-.56-.45c-.31-.25-1-.88-1.63-1.41a22.6,22.6,0,0,0-4.14-3.08A37.1,37.1,0,0,0,69.27,116a26.57,26.57,0,0,0-6.3-.17c-1.45.41.83,1.22,5.61,2,5.13.84,6.39,1.29,10.3,3.66A43.81,43.81,0,0,1,88,128.53,41.08,41.08,0,0,1,91.51,133a7.77,7.77,0,0,1-1.1-.24c-.59-.15-1.72-.43-2.52-.62-4-.93-5.19-2.07-5-4.73.09-1.19.09-1.22-.26-1.22a1.08,1.08,0,0,0-.66.34c-1,1.11-.89,1.94.66,4.62.91,1.57,1.12,2.18.8,2.38a13.23,13.23,0,0,1-3.76,0Zm-46.2-14a5.32,5.32,0,0,1-.78-.29l-.47-.22-.1-3.77a60,60,0,0,0-1.93-14.84c-.42-1.72-.81-3.48-.86-3.91-.08-.71-.06-.81.27-1a5.27,5.27,0,0,1,2-.3,5.61,5.61,0,0,0,2.56-.5,7.54,7.54,0,0,0,3.06-3,12.56,12.56,0,0,0,.38-11.31c-.37-.73-.37-.75-.09-1.13.39-.53,6.47-3.63,9.31-4.76a30.11,30.11,0,0,1,7.48-2l1.56-.18.8.91c6.61,7.49,10.28,10.18,17.06,12.5,2.58.88,3.4,1,6.63.54,5.16-.65,8.24-1.78,11.69-4.28.71-.51,2-1.38,2.78-1.93a11.38,11.38,0,0,0,2.56-2.24A32.39,32.39,0,0,0,101.17,72c.44-.84,1.14-2,1.56-2.64,1.47-2.16,2.48-5.27,3.15-9.64,1.1-7.19.67-12-1.5-17a11.59,11.59,0,0,1-.77-2.14c0-.61.46-1.32,2.29-3.56a81.07,81.07,0,0,1,10.95-10.79l.92-.72.08,2.86a18.09,18.09,0,0,0,.4,4.11,23.44,23.44,0,0,0,5,8.76,11.26,11.26,0,0,0,3.29,3l.55.26L124.7,47a80.09,80.09,0,0,0-12,15.49c-1.22,2.05-1.44,2.86-1.17,4.21l.18.92,2.65,2.59C117.21,73,118,74,118.73,75.35a25.41,25.41,0,0,1,2.42,8.15c.17,1.17.4,2.47.49,2.89a5.73,5.73,0,0,0,2.28,3.67,3.41,3.41,0,0,0,2.56-.07,20.13,20.13,0,0,0,4.38-4.77c1.83-2.8,3.6-5.41,4-5.86l.37-.44-.15.42c-.08.23-.59,1.36-1.14,2.52a15.14,15.14,0,0,0-1.36,3.87c-.78,3.72-.91,3.85-6.11,6.21a11.75,11.75,0,0,0-1.59.9c-.89.63-1.38.73-2.08.44a6.94,6.94,0,0,1-2.69-2.39c-.54-.69-1.82-2.28-2.86-3.55a56.35,56.35,0,0,1-5.36-7.72c-1.31-2.26-1.62-2.61-2.81-3.21a3.59,3.59,0,0,0-3.42-.06A4.44,4.44,0,0,0,103.43,79a109.15,109.15,0,0,1-5.82,12.29,92.93,92.93,0,0,1-6.88,9.49A14.24,14.24,0,0,1,83.16,105a12.38,12.38,0,0,1-4.2.47,23.27,23.27,0,0,1-7.78-1.2A85,85,0,0,1,59.78,100c-5.46-2.48-7.73-3.24-11-3.65a12.16,12.16,0,0,0-5,.23c-2.38,1.24-4,5.35-4.23,10.69-.15,3.64.31,5.31,1.86,6.78a6.18,6.18,0,0,0,2.89,1.62c1,.3,2.84.26,6.42-.14,3.8-.42,5.48-.54,6-.43l.53.11-.76.32A17.89,17.89,0,0,1,50,116.76a56.19,56.19,0,0,0-8.62,1.38c-3.27.72-7,1.45-7.31,1.43a4.16,4.16,0,0,1-.55-.09ZM1.21,103.15c0-.17-.2-2.5-.45-5.17-1.31-14.16-1-22.25,1.37-31.5a93.68,93.68,0,0,1,5-14c.46-.9.47-.91.62-.51a15.83,15.83,0,0,1,.63,3.24C8.38,55.91,8,57,7,59.46a39.4,39.4,0,0,0-2.52,9.06A93.64,93.64,0,0,0,2.63,85,84.26,84.26,0,0,0,3,95.28q.28,1,1.82-.61c1.41-1.45,2.11-2.54,4.74-7.36,5.61-10.3,9.17-18.57,11.61-27a54.6,54.6,0,0,0,2-9.3,74,74,0,0,0,.83-12.64l0-3.76.44-.81c.46-.86,2.3-2.92,2.49-2.8.48.3.72,10.47.33,14a116.26,116.26,0,0,1-2.77,14.8c-1.16,4.54-1.88,6.4-5.88,15.26a119,119,0,0,1-7.05,14C7.67,95,2.62,102.19,1.53,103.17c-.32.29-.32.29-.32,0ZM28.75,90.77c-2.35-.81-3.32-2-4.32-5.07-1.28-4-2.66-6.69-4.4-8.57a3.17,3.17,0,0,1-.66-.91,26.89,26.89,0,0,1,1.89-4.4s.42.64.87,1.41a13.38,13.38,0,0,0,2.12,2.72c1.76,1.77,2.69,2.31,6.16,3.58a6.36,6.36,0,0,1,3.76,3.56,11.75,11.75,0,0,1,.25,1.78c.19,2.61-.93,5.13-2.61,5.9a4.57,4.57,0,0,1-3.06,0ZM75.58,84a10.13,10.13,0,0,1-1.6-.47c-.45-.18-1.27-.48-1.84-.67a32.52,32.52,0,0,1-7.63-4.53c-1.7-1.41-4.75-4.17-5.8-5.27-1.4-1.46-6.88-9.82-9.78-14.93A47.82,47.82,0,0,1,43.65,46c-1.85-6.72-2.8-10.25-3.37-12.57a106.34,106.34,0,0,1-2.6-15.2c-.09-1.09-.27-3-.38-4.2S37,11,37,10.17c-.11-1.84.13-4.53.42-4.83s1,.22,2,1.5a43,43,0,0,0,10,8.63c4.46,2.77,6.66,3.76,18.49,8.28,14.51,5.55,21.38,8.7,27.95,12.83,4.48,2.82,7,5.59,8,9,1,3.25,1.35,10.17.69,15.25-.46,3.56-.76,4.7-1.56,5.87a18.54,18.54,0,0,1-5.18,5.39,5.16,5.16,0,0,1-3.66.92,5,5,0,0,1-2.49-.62A8.76,8.76,0,0,1,87.33,67a7,7,0,0,1-.43-2.82,4.17,4.17,0,0,1,.42-2.46,5.79,5.79,0,0,1,2.76-2.58c2.25-1.05,2.93-.77,4.25,1.77,1.06,2,1.22,2.55,1,3.36a1.21,1.21,0,0,0,0,.74c.17.17,1.07-.3,1.19-.61a15.34,15.34,0,0,0-.18-2.49,14.66,14.66,0,0,1-.16-2.58c.15-.46.74-.66,1.44-.47A3.85,3.85,0,0,1,99.16,60c1.87,1.95,2.31,4,1.15,5.42a19.65,19.65,0,0,1-3.61,2.42c-1.61.88-3.83-.15-4.94-2.29a4,4,0,0,1-.46-2.18c0-1.6-.21-1.76-.94-.92-2.09,2.38.47,7,3.86,7a11.08,11.08,0,0,0,4.26-1.38c2.3-1.42,3.93-4.32,4.6-8.21a39.82,39.82,0,0,0-.48-11.9c-1-3.82-2.5-6.51-4.75-8.3A60.56,60.56,0,0,0,85.44,33C84,32.41,80.65,31.09,78,30s-6.88-2.72-9.5-3.71C58.2,22.4,55,21,50.12,18.1c-6.19-3.64-8.08-5.22-9.85-8.24-.54-.92-.68-1.06-1.06-1.06s-.51.09-.7,1.37,1.11,11.24,2.29,17.93c2.31,13,4.67,19.79,10.72,30.86,5.29,9.66,8.12,13.2,14.25,17.83,4.16,3.14,5.38,3.82,8,4.47a21.21,21.21,0,0,0,5.88.69c5.28,0,9.95-1.93,15.26-6.22,1.67-1.35,4-2.57,4-2.11A24.1,24.1,0,0,1,95,77.5c-3.62,2.91-6.45,4.51-9.5,5.39S77.36,84.35,75.58,84Zm3.51-3.2a3.53,3.53,0,0,1-1-.38,4.3,4.3,0,0,1-1.14-3.08,3.35,3.35,0,0,1,.31-2.07c1-2.1,3-3.32,4.45-2.64,1,.49,1.23.95,1.33,3.28a7.56,7.56,0,0,0,.51,3.1,5.13,5.13,0,0,1,.37,1.09,19.87,19.87,0,0,1-3.33.74,6.22,6.22,0,0,1-1.48-.05Zm-5.92-1a17.93,17.93,0,0,1-7.22-4.43c-1.69-1.61-6.68-7-7.81-8.43a104.65,104.65,0,0,1-7.27-12.17,117.64,117.64,0,0,1-6.69-17.07c-.87-3-4.26-21-4-21.27,0,0,.7,2.66,1.48,6A85.48,85.48,0,0,0,45.8,36.41a100.83,100.83,0,0,0,9.68,18.3A67,67,0,0,0,64.86,66.4c1.54,1.49,6.64,5.77,9.26,7.76,1.39,1.06,1.64,1.6,1.64,3.63,0,1.42,0,1.68-.32,2.06a1.27,1.27,0,0,1-.53.46,10.45,10.45,0,0,1-1.74-.47ZM85.23,79c-1.49-1.17-1.3-3.88.37-5.39,1.29-1.17,3.18-1.65,4.28-1.08A10.52,10.52,0,0,1,92.72,75c.24,1-1.9,2.53-5.21,3.85-1.36.54-1.73.56-2.27.14Zm-10.5-6A63.42,63.42,0,0,1,65,65.25c-1.17-1.18-5.74-6.84-8.25-10.22A84.66,84.66,0,0,1,43.94,28.33c-1.3-4.53-3.87-14.85-3.77-15.17a16,16,0,0,1,.77,2.21C43,22,43.27,22.74,44.88,26a90.54,90.54,0,0,0,9.28,15.18A195.15,195.15,0,0,0,66.28,56.75C69,59.86,76.35,67.22,78.78,69.3c1,.83,1.76,1.53,1.74,1.55s-.58.25-1.24.51a5.12,5.12,0,0,0-2.77,1.9,1.74,1.74,0,0,1-.38.55S75.46,73.42,74.73,73Zm9.46-.53C82.92,72,82.07,70.71,82,68.9a3.24,3.24,0,0,1,.31-2,7,7,0,0,1,.8-1.32c.5-.59,1.71-1.45,1.93-1.38a32.77,32.77,0,0,1,1.82,5.08c.49,1.79.38,2.32-.58,2.8A3,3,0,0,1,84.19,72.43Zm-68.56-2.8c-.21-.36-.93-2-1.59-3.7s-1.69-4.23-2.29-5.67A78.88,78.88,0,0,1,6.44,40.69,107.11,107.11,0,0,1,6.44,25a86.15,86.15,0,0,1,1.26-8.85A75.55,75.55,0,0,1,12.36,3.05c.45-.78,1.67-2,2-2s.92.79,2.39,3.29c3.85,6.52,5.83,10.57,7.37,15.1.31.92.79,2.22,1.06,2.89.58,1.44.58,2.37,0,3.21A22.75,22.75,0,0,1,22.79,28a2.13,2.13,0,0,1-.06-.72A23,23,0,0,0,22,22.13a64.55,64.55,0,0,0-3.39-8.77c-3.24-7.49-4.61-8.91-6-6.17C10.2,12,8.71,18.6,8.21,26.57A43.59,43.59,0,0,0,9,39.26c2,11.21,3.33,16.31,5.55,20.58s3.12,6.2,3.12,6.69c0,.74-1.25,3.76-1.55,3.76-.08,0-.32-.3-.53-.66Zm62-3.34c-3.26-3-9.88-9.7-11.95-12-3.41-3.86-4.65-5.45-10-12.9-4.14-5.74-6-8.55-6.7-10.19-.34-.78-1.37-2.76-2.29-4.41a51.56,51.56,0,0,1-4.32-9.27c-.47-1.38-.83-2.53-.8-2.56s.76,1.32,1.62,3a22.94,22.94,0,0,0,4.67,6.7c.73.8,2.09,2.38,3,3.51a54,54,0,0,0,7,7.48c.74.63,2.56,2.32,4,3.75,2.95,2.85,4.77,4.35,12.21,10.08,2.73,2.1,5.58,4.31,6.33,4.92a73.33,73.33,0,0,0,6,4.22,1.36,1.36,0,0,1,.56.48c.22.58-1,2.08-3.36,4.28-1.74,1.6-2.82,2.85-3,3.4-.32,1.39-.38,1.53-.68,1.53a12.66,12.66,0,0,1-2.47-2ZM161,66a.83.83,0,0,1-.43-.52c0-.27.06-.36.53-.48,1-.25,1.73-.36,1.73-.25a2.84,2.84,0,0,1-.66,1.11c-.35.39-.63.42-1.18.15Zm-3.7-1c-.39-.23-.33-.64.17-1.12s.54-.43.7.33-.25,1.14-.87.78Zm-9.18-3.53c1.72-1.74,3.12-3.24,3.12-3.32a6.7,6.7,0,0,1,1.18-1.16l1.18-1,.12.8c.34,2.35,2.16,3,5.22,1.9l1.46-.53-.34.61a13.6,13.6,0,0,1-5.16,5c-.8.39-1,.42-4,.53-1.77.06-3.81.17-4.54.24l-1.33.12Zm11.09,2.23c-.6-.42-.44-.91.77-2.25,1.74-1.94,3-2.71,4.82-3.09.68-.14.65,0-.55,2.32s-1.74,2.83-2.92,3.09-1.71.21-2.11-.07Zm-58.65-4.4a16.44,16.44,0,0,1-1.69-1.64,9.26,9.26,0,0,1-2-3.61,4.15,4.15,0,0,1,3.66-3.54h.72l.49,1.06a10.11,10.11,0,0,1,.66,5.39c-.22,2-.5,3.17-.72,3.17a5.52,5.52,0,0,1-1.16-.82ZM87.2,57.53c-.25-.21-1.93-1.36-3.74-2.55s-3.94-2.73-4.75-3.4a69.38,69.38,0,0,0-5.78-4.25,75.44,75.44,0,0,1-11-9.21c-1.13-1.14-3-3-4.25-4.12s-3.12-3.15-4.26-4.5-2.7-3.12-3.47-3.92c-2.34-2.45-4.1-5-7.42-10.55a3.29,3.29,0,0,1-.37-.72s.56.6,1.17,1.34A35.11,35.11,0,0,0,48,20.51c3.61,3.13,6.84,5.35,16.33,11.21C74.16,37.79,84,43.53,87.51,45.27c2.21,1.09,2.5,1.28,3,2,.39.53.5.77.34.77a9.35,9.35,0,0,0-2.72,2.71,5.31,5.31,0,0,0-.57,3.69,19.16,19.16,0,0,1,.12,2.48l0,1Zm3.55-.12c-1.43-.51-2-1.41-2-3.22a4.3,4.3,0,0,1,1.38-3.5c1.08-1.08,1.74-1.31,2.71-.94,1.61.61,3.19,3.47,3.4,6.15l.09,1.1-.67.3a5.44,5.44,0,0,1-2.5.3A9.64,9.64,0,0,1,90.75,57.41Zm64.48.1a2.07,2.07,0,0,1-.43-.71,2.59,2.59,0,0,0-.57-.85c-.32-.26-.32-.27.87-1.39a17.14,17.14,0,0,1,4.36-3.18c.8-.42,1.74-.93,2.1-1.15l.65-.4-.56,1c-.31.52-1,1.86-1.52,3-1.09,2.3-1.65,3-2.73,3.52A3,3,0,0,1,155.23,57.5ZM95.46,50.14c-.94-.82-1.35-2.78-1-4.87C94.94,42,97,41,99,43c1.21,1.24,2.25,3.93,1.89,4.87a5.16,5.16,0,0,1-2.46,1.72,4.74,4.74,0,0,0-1.23.55c-.88.55-1.07.55-1.72,0ZM12,47.48a11.63,11.63,0,0,1-.39-1.61c-.29-1.64-.14-2.17.89-3.12a21.65,21.65,0,0,0,2.16-2.65,49.22,49.22,0,0,1,4.53-5.66c.87-1,1.86-2.1,2.19-2.52C25.37,27,33,19,34.94,17.91c1.34-.78,1.59-.73,1.63.35A8.47,8.47,0,0,1,36.42,20l-.19.9L34.68,22c-5.14,3.59-7.53,6.14-15.92,17-1.46,1.89-3.31,4.26-4.13,5.27A22.82,22.82,0,0,0,12.68,47l-.46.91ZM91.63,46.2c-.25-.15-2-1.09-3.89-2.08A345.61,345.61,0,0,1,54.87,24.53,54.27,54.27,0,0,1,46,17.19l-1.22-1.25,3.63,2.39C54.27,22.19,58,23.84,74.84,30a131.8,131.8,0,0,1,16.48,7A25.42,25.42,0,0,1,96,40a6.21,6.21,0,0,1-1,1.2,11.08,11.08,0,0,0-2.45,4.45,2.87,2.87,0,0,1-.36.87,2.76,2.76,0,0,1-.54-.28Zm43.79-4.3a14.45,14.45,0,0,1-10.75-6.54,33.46,33.46,0,0,1-2.92-7.68,17.63,17.63,0,0,1,.14-5.93,7.53,7.53,0,0,1,.86-2.44l1,.24a9.42,9.42,0,0,0,4.68-.09,4.73,4.73,0,0,0,2.32-1.85,2.48,2.48,0,0,0-.12-2.27,2.15,2.15,0,0,0-2-1.14c-1,0-1.06.28-.11.73a1.59,1.59,0,0,1,.61,2.58c-.77,1-2.75,1.18-4.55.47a19.28,19.28,0,0,1-4.73-2.65,58.14,58.14,0,0,1-6.19-7.1c-2.45-3.14-2.51-3.22-2.27-3.45s.6-.06,1.9.3C118,6.41,124.14,7.47,134.66,8.8c9.6,1.21,12,1.71,15.17,3.14,2.69,1.23,5.61,3.64,6.3,5.2a8.73,8.73,0,0,1,.29,4.14,3.69,3.69,0,0,1-2.11,2.21,31.8,31.8,0,0,1-3.09,1c-5,1.42-5.92,1.72-7.16,2.37a14.24,14.24,0,0,0-6.86,8.69,13,13,0,0,1-.78,2c-.35.58-.43.57-1.9-.16a16.14,16.14,0,0,1-7.92-9.26c-.76-2.33-1-4.25-.51-4.94s.87-.85,2.79-1.18a24.67,24.67,0,0,0,2.57-.56c3.47-1.14,3.93-6.73.79-9.49a4.47,4.47,0,0,0-2.92-1.21,4.17,4.17,0,0,0-3.73,1.31,3.53,3.53,0,0,0-1.22,2.76,1.49,1.49,0,0,0,1.37,1.53c.65,0,.74-.35.23-.94a1.18,1.18,0,0,1-.34-1.15A2.88,2.88,0,0,1,128.49,12c2.89,0,5.53,3.55,4.45,6-.77,1.75-2.19,2.61-4.78,2.88-2.14.23-2.8.53-3.23,1.47-.74,1.6-.19,5.49,1.17,8.35a17.42,17.42,0,0,0,6.21,6.89,14.2,14.2,0,0,0,4.57,2.2c1.27,0,1.55-.57,2.21-4.66a11.86,11.86,0,0,1,.46-1.95,26,26,0,0,1,3.54-4.23c1.23-1.08,4.54-2.33,8.9-3.34,3-.69,3.29-.85,5.34-2.66,1.73-1.52,2.14-1.68,4-1.58a13.9,13.9,0,0,1,9.34,4.56,13.1,13.1,0,0,1,2.81,4,11.51,11.51,0,0,1,1.08,4.55v.93l-.77-.76a8.53,8.53,0,0,0-4.73-2.16A108.83,108.83,0,0,0,152.53,31H149l-.74.8c-1.32,1.44-1.34,2.58-.06,3,.91.33,4.38.15,8.16-.42a58.59,58.59,0,0,1,9.39-.91c3.1,0,5,.48,5.64,1.41a2.73,2.73,0,0,1-1.73,3.91,9.54,9.54,0,0,1-3.86-.07c-1.81-.39-10-.09-15.08.56a70.94,70.94,0,0,0-9.34,1.88,20.77,20.77,0,0,1-4.7.83l-1.3-.13Zm31-15.29c.3-.25.22-1.1-.15-1.65a3.71,3.71,0,0,0-2.73-1.31c-1.17-.11-1.73,0-1.87.35s.31.79,1.36,1.27a3.3,3.3,0,0,1,1.19.84,1.61,1.61,0,0,0,2.2.52Zm-15.67-5.92a2.86,2.86,0,0,0,1.5-2.62c.05-.9,0-1.12-.29-1.56-.95-1.38-3.39-2.24-7.22-2.54-2.67-.21-4.11-.19-4.44.05s-.19.86.64,1.47c.4.29,1.95,1.52,3.44,2.71s2.93,2.31,3.2,2.48a4.12,4.12,0,0,0,3.17,0Zm-7-4c-2.62-1.92-2.61-1.8-.09-1.72a14.16,14.16,0,0,1,2.64.26c.5.19.51.19.21.52a2.67,2.67,0,0,0-.71,1.58c-.06.36-.15.64-.21.64s-.88-.58-1.84-1.29ZM46.84,12.19a1.1,1.1,0,0,1-.76-.89c0-.57,1.45-1.72,4.06-3.22C57,4.1,62.87,1.82,68.89.79A45.05,45.05,0,0,1,77.33,0a20.48,20.48,0,0,1,5.79.64,20.75,20.75,0,0,1,5,1.64l.9.47-1.13.34A11.22,11.22,0,0,0,85.76,4l-1,.59-.92-.36C78.34,2.09,71,2.39,62.17,5.15a54.63,54.63,0,0,0-11.79,5.37c-2.92,1.68-3.18,1.8-3.55,1.67Z"/><g id="g6622"><path id="BootBase" class="cls-2" d="M85.06,7c-.35-1.26-.45-1.64-.55-2.13A.73.73,0,0,1,85,4c.76-.38,3.88-1.55,4.15-1.65a2.73,2.73,0,0,1,1.37,0A24.79,24.79,0,0,1,96.28,5a24.5,24.5,0,0,1,4.5,3.91,2.73,2.73,0,0,1,.82,1.41c.17.86.93,4.19.93,4.19a.78.78,0,0,1-.38,1c-.69.38-8.34,4.12-8.34,4.12s-.89.55-1.61-.65S90,15.46,90,15.46a7.47,7.47,0,0,1-.82-1.89,4.89,4.89,0,0,0-1-1.75,15.72,15.72,0,0,0-2-2.4C85.06,8.45,85.41,8.31,85.06,7Z"/><path id="path45958" class="cls-1" d="M87.65,9.16c0-.43,0-.51.39-.74l3-1.54c.17-.09.23-.12.14-.24s-.11-.14-.32,0l-3,1.47c-.36.18-.51.33-.36.88,0,.09.34,1.18.37,1.25C87.88,10.12,87.66,9.23,87.65,9.16Z"/><path id="path8989" class="cls-1" d="M95.66,4.61,92.79,5.82c-.08,0-.13.1-.08.19s.1.1.16.08L96,4.81Z"/><path id="path10932" class="cls-1" d="M94.47,4c-1.15.48-2.63,1.09-3.41,1.43-1.36.59-2.35,1.07-3.25,1.52-.66.33-.78.63-.71,1a7.72,7.72,0,0,0,.31,1.2s0-.4-.05-.5c-.09-.63-.21-.76.46-1.11.24-.12,2.46-1.23,3.5-1.67L95,4.26,94.47,4Z"/><path id="path11906" class="cls-1" d="M93.55,3.52l-2.27.87c-.17.08-.18.13-.1.23s.09.09.2.05l2.58-1-.4-.19Z"/><path id="path12880" class="cls-1" d="M92.46,3,90.08,4l-3.24,1.5c-.66.31-.74.62-.67,1a8.48,8.48,0,0,0,.33,1.26s0-.4-.05-.51c-.09-.63-.35-.95.33-1.26l3.61-1.66,2.6-1Z"/><path id="path13854" class="cls-1" d="M91.64,2.68l-1.86.73c-.12,0-.14.08-.1.16s.09.08.17.05L92,2.84l-.4-.16Z"/><path id="path14828" class="cls-1" d="M90.53,2.35l-2.36.84L85.84,4.25c-.67.3-.78.49-.71.83a7.88,7.88,0,0,0,.32,1.22s0-.4-.05-.5c-.09-.63-.31-.85.37-1.17L88.3,3.43l2.73-1Z"/><path id="path15802" class="cls-1" d="M85.66,7.84c-.11,0,.05.46.05.46l.31,1,.13.11.17.15-.31-1a2.05,2.05,0,0,0-.28-.63l-.07,0Z"/><path id="path16777" class="cls-1" d="M88,4.06,86,5.06c-.36.18-.48.38-.33.92s.83,3.3,1,4l.2.22c-.21-.83-.71-2.81-1-3.89a.67.67,0,0,1,.36-.94l2-1c.19-.09.19-.15.13-.23S88.12,4,88,4.06Z"/><path id="path17751" class="cls-1" d="M86.9,9.35c-.06,0,.07.36.07.36l.27.86.2.26-.32-1.08a1.42,1.42,0,0,0-.18-.37l0,0Z"/><path id="path18725" class="cls-1" d="M89.46,5.08,87,6.3c-.36.18-.48.38-.33.92s1,3.39,1.17,4.1l.21.29L86.81,7.53c-.13-.42,0-.57.39-.8l2.52-1.33c.17-.09.18-.15.09-.28s-.19-.12-.34-.06Z"/><path id="path19699" class="cls-1" d="M88,11s.07.36.07.36l.19.61.2.25-.25-.82a2.4,2.4,0,0,0-.17-.37Z"/><path id="BootFace" class="cls-1" d="M101.42,9.75l-8.88,4.1c-1,.46-1.05.67-.85,1.35l1.36,4.53a1,1,0,0,0,.75-.09s7.66-3.74,8.34-4.12a.78.78,0,0,0,.38-1s-.75-3.33-.93-4.19A2.34,2.34,0,0,0,101.42,9.75Z"/><path id="BootHighlight" class="cls-2" d="M90.33,13.23A4.67,4.67,0,0,1,91.95,16c-.51-1.64-.5-1.64,1-2.35C91.44,14.38,91.44,14.39,90.33,13.23Z"/></g><g id="g6598"><path id="PlugClipBase-9" class="cls-3" d="M105.45,21.15a4.61,4.61,0,0,1,.33.35,1,1,0,0,1,.24.57,9.25,9.25,0,0,1,.18,1.07c0,.36-.63.62-.92.76s-1.69.93-2.66,1.45-1,.36-1.47-.21c-.6-.8-.88-1.2-.88-1.2Z"/><path id="PlugClipTop-2" class="cls-4" d="M105.45,21.15l-4.54,2.43.49.8c1.29-.71,4.55-2.46,4.55-2.46a.79.79,0,0,0-.17-.42A4.65,4.65,0,0,0,105.45,21.15Z"/><path id="PlugBase-4" class="cls-4" d="M93.14,17.21c-.21-.8-1-2.16.46-2.79s6.29-2.95,6.58-3.12c.66-.4.9-.42,1.51.25,1.46,1.63,3.08,3.09,4.63,4.62a2.36,2.36,0,0,1,.91,1.65c.14.82.28,1.58.31,1.88s.15.62-.35.88l-7.88,4.29a1.11,1.11,0,0,1-1.61-.38c-.76-1-3.51-4.95-3.51-4.95a7.09,7.09,0,0,1-1.06-2.32Z"/><path id="path4424" class="cls-5" d="M105.41,21.1l-5.19,2.79,0,.09.91,1.22a3.37,3.37,0,0,0,.31.37.58.58,0,0,0,.3.17c.22,0,.47-.08.92-.31l2.79-1.52a5.35,5.35,0,0,0,.58-.32.71.71,0,0,0,.21-.21.45.45,0,0,0,.05-.29c0-.23-.12-.65-.21-1.17h0a.91.91,0,0,0-.24-.45,4.49,4.49,0,0,0-.34-.35h-.07Zm0,.14a3.85,3.85,0,0,1,.29.31.75.75,0,0,1,.21.4c.09.52.17.95.2,1.16a.31.31,0,0,1,0,.21.59.59,0,0,1-.17.17,5.62,5.62,0,0,1-.56.31l-2.79,1.52c-.44.24-.68.33-.84.3a.44.44,0,0,1-.23-.14,3.36,3.36,0,0,1-.29-.36L100.35,24l5.08-2.74Z"/><path id="path4426" class="cls-5" d="M105.4,21.11l-4.54,2.43,0,.09.27.38h0a1.3,1.3,0,0,1,.21.41l.09,0L106,22l0-.07a.86.86,0,0,0-.22-.43,3.09,3.09,0,0,0-.35-.34h-.07Zm0,.14a2.63,2.63,0,0,1,.3.3.75.75,0,0,1,.17.33l-4.5,2.45a2.43,2.43,0,0,0-.19-.39h0l-.23-.32,4.44-2.38Z"/><path id="PlugFront-7" class="cls-6" d="M106.91,16.82l-9.47,4.82v0l.82,3.3a1.08,1.08,0,0,0,1-.1l7.88-4.29c.5-.26.39-.59.35-.88s-.17-1.06-.31-1.88a2.47,2.47,0,0,0-.33-1ZM98.27,25l0,0ZM96.15,22.3l.41.58Zm.51.73.39.55ZM98,24.78l0,0Z"/><path id="PlugSide-8" class="cls-7" d="M92.75,15.44a5,5,0,0,0,.4,1.77,7.1,7.1,0,0,0,1.06,2.33s2.75,3.93,3.51,4.94a1.5,1.5,0,0,0,.56.48l-.82-3.3Z"/><path id="PlugHighlight-4" class="cls-4" d="M97.1,21.2a2,2,0,0,1,.49,1c-.15-.56-.15-.56.59-.94-.74.38-.74.38-1.08-.07Z"/><path id="path4603" class="cls-5" d="M101.31,24.15l-.08,0a2.4,2.4,0,0,1,.18.58h0l.12,0h0c-.05-.22,0-.31,0-.36s.06,0,.06,0l0-.12a.25.25,0,0,0-.15.1s0,.1,0,.14l-.07-.18Zm.37,1.2-.12,0h0a.5.5,0,0,1,0,.16l0,0,0,0-.1.08,0,0a.28.28,0,0,0,.1.07.11.11,0,0,0,.09,0,.12.12,0,0,0,.06-.07s0,.08.06.09a.28.28,0,0,0,.15,0v-.13a.11.11,0,0,1-.07,0,.34.34,0,0,1-.14-.24Z"/><path id="path4629" class="cls-5" d="M101.53,24.71l-.12,0,.19.76.12,0Z"/><path id="path4389" class="cls-5" d="M92.8,15.4l-.11,0s0,0,0,0a5.26,5.26,0,0,0,.39,1.75h0a11.45,11.45,0,0,0,.76,1.85,2.77,2.77,0,0,0,.31.49s2.74,3.92,3.51,4.94a1.56,1.56,0,0,0,.59.5l.09-.07-.82-3.3v0L92.8,15.4Zm.07.31,4.53,6,.77,3.1a1.33,1.33,0,0,1-.4-.35c-.76-1-3.51-4.94-3.51-4.94h0a2.53,2.53,0,0,1-.3-.47,11.33,11.33,0,0,1-.74-1.83h0a8,8,0,0,1-.34-1.48Z"/><path id="path4391" class="cls-5" d="M97.15,21.16l-.1.08a1.9,1.9,0,0,1,.48,1l.12,0a2.43,2.43,0,0,1-.07-.32.24.24,0,0,1,0-.17,1.84,1.84,0,0,1,.6-.38l-.06-.11a1.86,1.86,0,0,1-.66.27.2.2,0,0,1-.14-.07,2.3,2.3,0,0,1-.2-.25Zm.18.37a.32.32,0,0,0,.15.08s.11,0,.14-.06-.11.06-.13.09a.35.35,0,0,0,0,.17,2,2,0,0,0-.13-.28Z"/><path id="path4387" class="cls-5" d="M106.88,16.77l-9.47,4.82,0,.1h0L98.21,25h0v0l0,0a1.15,1.15,0,0,0,1.11-.11h0l7.87-4.28a.7.7,0,0,0,.41-.47,1.39,1.39,0,0,0,0-.47c0-.31-.17-1.06-.31-1.89a2.53,2.53,0,0,0-.34-1l-.08,0Zm0,.15a2.41,2.41,0,0,1,.3.91c.14.82.28,1.58.31,1.88a1.38,1.38,0,0,1,0,.43.56.56,0,0,1-.35.39L99.29,24.8h0a1.08,1.08,0,0,1-1,.09l-.8-3.23,9.35-4.76ZM96.2,22.27l-.1.07.41.58.1-.07-.41-.58Zm.52.72-.1.07.39.55.1-.07L96.72,23ZM98,24.73l-.08.1,0,0,.08-.1,0,0Z"/><path id="path4260" class="cls-8" d="M96.93,18.67,98.71,21l.36,1.38.5-.26-.36-1.38L97.47,18.4Z"/><path id="path4260-5" class="cls-8" d="M103.35,15.4l2.16,2.14.25,1.37.47-.24L106,17.28l-2.17-2.13Z"/><path id="path4260-5-3" class="cls-8" d="M102.46,15.86,104.62,18l.25,1.38.47-.24-.23-1.39L103,15.6Z"/><path id="path4260-5-5" class="cls-8" d="M101.59,16.3l2.07,2.15.3,1.38.47-.24-.28-1.4L102.09,16Z"/><path id="path4260-2" class="cls-8" d="M97.9,18.18l1.81,2.3.34,1.4.5-.26-.34-1.4-1.82-2.29Z"/><path id="path4260-9" class="cls-8" d="M98.79,17.73,100.67,20l.33,1.39.5-.26-.33-1.39-1.88-2.25Z"/><path id="path4260-1" class="cls-8" d="M99.69,17.26l2,2.2.32,1.4.5-.26-.32-1.4-2-2.19Z"/><path id="path4260-1-2" class="cls-8" d="M100.69,16.75l2,2.19.3,1.39.5-.26-.3-1.39-2-2.18Z"/><path id="path4385" class="cls-5" d="M101,11a1.3,1.3,0,0,0-.81.29l-.3.16-.64.31-1.9.92c-1.42.68-3,1.42-3.73,1.73a1.51,1.51,0,0,0-.76.62,1.33,1.33,0,0,0-.15.78,8.11,8.11,0,0,0,.41,1.47h0a11.45,11.45,0,0,0,.76,1.85,2.78,2.78,0,0,0,.31.49s2.74,3.92,3.51,4.94a1.26,1.26,0,0,0,1.15.6,1.16,1.16,0,0,0,.54-.2h0l7.87-4.28a.7.7,0,0,0,.41-.47,1.39,1.39,0,0,0,0-.47c0-.31-.17-1.06-.31-1.89a2.45,2.45,0,0,0-.93-1.68h0c-1.55-1.53-3.17-3-4.63-4.62A1.4,1.4,0,0,0,101,11Zm0,.13c.19,0,.4.17.7.5,1.46,1.63,3.08,3.09,4.64,4.62a2.28,2.28,0,0,1,.89,1.61c.14.82.28,1.58.32,1.88a1.37,1.37,0,0,1,0,.43.55.55,0,0,1-.34.39h0L99.28,24.8h0a1.07,1.07,0,0,1-.49.18,1.11,1.11,0,0,1-1-.55c-.76-1-3.51-4.94-3.51-4.94h0a2.54,2.54,0,0,1-.3-.47,11.33,11.33,0,0,1-.74-1.83,8.47,8.47,0,0,1-.4-1.45,1.19,1.19,0,0,1,.13-.7,1.38,1.38,0,0,1,.7-.56c.74-.32,2.31-1.05,3.73-1.73l1.9-.92.64-.31.31-.16a1.21,1.21,0,0,1,.73-.27Z"/></g></g></g></g></g></svg>