<?xml version="1.0" encoding="UTF-8"?>
<svg id="Layer_1" xmlns="http://www.w3.org/2000/svg" version="1.1" viewBox="0 0 24.8 24.8">
  <defs>
    <style>
      :root {
        color: #000000;
      }
      .st0 {
        fill: #ff00b8;
      }
      .st1 {
        fill: currentColor;
      }
      @media (prefers-color-scheme: dark) {
        :root {
          color: #ffffff;
        }
      }
    </style>
  </defs>
  <path class="st0" d="M12.73,15.08l.11,2.61-3.96,2.46h5.74v3H3.62l-.79-2.77,6.18-3.84-6.31-3.24,1.37-2.67,8.67,4.45Z"/>
  <polygon class="st1" points="20.61 7.64 20.61 10.9 22.11 10.9 22.11 13.9 20.61 13.9 20.61 17.16 22.11 17.16 22.11 20.15 20.61 20.15 20.61 21.65 19.11 23.15 14.61 23.15 14.61 20.15 17.61 20.15 17.61 4.65 6.11 4.65 6.11 7.65 3.11 7.65 3.11 3.15 4.61 1.65 19.11 1.65 20.61 3.15 20.61 4.65 22.11 4.65 22.11 7.64 20.61 7.64"/>
</svg>

