<?xml version="1.0" encoding="UTF-8" standalone="no"?>
<!-- Created with Inkscape (http://www.inkscape.org/) -->

<svg
   xmlns:dc="http://purl.org/dc/elements/1.1/"
   xmlns:cc="http://creativecommons.org/ns#"
   xmlns:rdf="http://www.w3.org/1999/02/22-rdf-syntax-ns#"
   xmlns:svg="http://www.w3.org/2000/svg"
   xmlns="http://www.w3.org/2000/svg"
   xmlns:sodipodi="http://sodipodi.sourceforge.net/DTD/sodipodi-0.dtd"
   xmlns:inkscape="http://www.inkscape.org/namespaces/inkscape"
   version="1.1"
   id="svg2"
   width="958"
   height="885"
   viewBox="0 0 958 885"
   sodipodi:docname="archie_detoure_propre.svg"
   inkscape:version="0.92.1 r15371">
  <metadata
     id="metadata8">
    <rdf:RDF>
      <cc:Work
         rdf:about="">
        <dc:format>image/svg+xml</dc:format>
        <dc:type
           rdf:resource="http://purl.org/dc/dcmitype/StillImage" />
        <dc:title></dc:title>
      </cc:Work>
    </rdf:RDF>
  </metadata>
  <defs
     id="defs6">
    <filter
       style="color-interpolation-filters:sRGB;"
       inkscape:label="Invert"
       id="filter18">
      <feColorMatrix
         type="hueRotate"
         values="180"
         result="color1"
         id="feColorMatrix14" />
      <feColorMatrix
         values="-1 0 0 0 1 0 -1 0 0 1 0 0 -1 0 1 -0.21 -0.72 -0.07 2 0 "
         result="color2"
         id="feColorMatrix16" />
    </filter>
  </defs>
  <sodipodi:namedview
     pagecolor="#ffffff"
     bordercolor="#666666"
     borderopacity="1"
     objecttolerance="10"
     gridtolerance="10"
     guidetolerance="10"
     inkscape:pageopacity="0"
     inkscape:pageshadow="2"
     inkscape:window-width="848"
     inkscape:window-height="480"
     id="namedview4"
     showgrid="false"
     inkscape:pagecheckerboard="true"
     inkscape:zoom="0.53333333"
     inkscape:cx="264.38812"
     inkscape:cy="524.90368"
     inkscape:window-x="0"
     inkscape:window-y="26"
     inkscape:window-maximized="0"
     inkscape:current-layer="svg2" />
  <path
     style="fill:#ffffff;filter:url(#filter18)"
     d="m 173.5,770.70821 c -3.5668,-2.01425 -4.0335,-2.72043 -4.30931,-6.52065 -0.27904,-3.84461 0.13697,-4.75813 4.25,-9.33282 2.50762,-2.78907 4.55931,-5.45199 4.55931,-5.91758 0,-1.04802 -3.96188,-1.66954 -15.22241,-2.38804 -5.07192,-0.32362 -11.03582,-1.4221 -14.25,-2.62468 L 143,741.8563 v -6.4882 c 0,-7.29993 -0.85068,-5.65751 16.2042,-31.2857 12.09059,-18.16839 27.76987,-40.79014 34.10068,-49.19977 10.35064,-13.74944 23.29225,-35.09899 30.2377,-49.88263 6.98747,-14.8731 16.01928,-39.80955 19.00794,-52.48015 2.46406,-10.44655 2.22465,-11.31399 -5.11933,-18.54874 -14.352,-14.13854 -24.333,-31.11354 -28.53548,-48.53117 -1.7091,-7.08355 -2.17042,-12.15853 -2.22165,-24.43994 -0.0646,-15.48723 -0.0615,-15.50859 3.70561,-25.92381 4.40645,-12.18276 9.33046,-22.27518 14.80251,-30.33974 2.68776,-3.96114 3.50531,-5.89096 2.61429,-6.17095 C 227.08341,398.34144 223.35,397.61453 219.5,396.95013 202.20221,393.96507 193,387.19231 193,377.44632 v -3.65301 l -5.61102,7.35335 c -3.08607,4.04434 -8.8123,10.61584 -12.72498,14.60334 -6.0512,6.16693 -7.61889,7.25 -10.49401,7.25 -3.32866,0 -3.37241,-0.057 -2.87675,-3.75 0.27682,-2.0625 1.08981,-6.78354 1.80664,-10.49119 1.57876,-8.1658 0.19269,-20.00066 -3.71952,-31.75881 -3.05216,-9.17329 -7.17536,-15.93352 -8.47065,-13.88814 -1.42446,2.24933 -1.03528,23.05597 0.59012,31.55017 2.25462,11.78247 2.1474,12.52709 -1.74983,12.15133 -3.00996,-0.29022 -3.56931,-0.96673 -7.57329,-9.15963 -6.13358,-12.55048 -8.18011,-23.93985 -8.16484,-45.43919 0.008,-11.40182 0.47316,-18.44793 1.46317,-22.16804 0.79821,-2.99942 1.2775,-5.62729 1.06508,-5.83971 -0.56726,-0.56727 -8.97816,14.0629 -11.69883,20.34929 -2.14133,4.94777 -2.61885,5.41124 -5.59129,5.42685 L 116,330 l 0.0349,-8.25 c 0.0579,-13.69912 2.21433,-22.841 8.35321,-35.41271 4.6229,-9.46717 6.97486,-12.85588 15.07562,-21.72096 5.27899,-5.77708 13.00567,-13.24498 17.17038,-16.59532 7.49088,-6.0261 17.72241,-13.00024 19.13532,-13.04325 0.40182,-0.0122 1.77612,-0.82658 3.05399,-1.80967 l 2.32342,-1.78744 -5.60381,-3.72072 C 166.88557,221.9117 154.73581,209.20001 151.394,202.394 148.73461,196.9778 148.5,195.60827 148.5,185.5 c 0,-6.05 0.59455,-13.30899 1.32121,-16.13109 l 1.32122,-5.13108 8.67878,-0.52871 c 4.77334,-0.29079 15.42879,-1.07029 23.67879,-1.73223 20.37497,-1.63478 50.84736,-0.66619 63.40272,2.01532 l 9.40272,2.00818 34.45312,-21.55425 c 30.62528,-19.15952 34.85798,-21.52047 38.09727,-21.2502 L 332.5,123.5 335.634,136 c 1.7237,6.875 5.51457,22.625 8.42416,35 2.90958,12.375 5.722,23.06867 6.24982,23.76371 0.52782,0.69505 4.61195,3.47194 9.07585,6.17088 18.14418,10.97026 33.57857,24.19288 50.77217,43.49644 C 419.20198,254.58712 424,262.39523 424,266.96024 424,270.80164 398.60187,296 394.73001,296 c -4.58858,0 -22.57293,-2.878 -34.44336,-5.5119 C 354.11931,289.11965 348.89933,288 348.68671,288 c -0.21263,0 0.62114,3.4875 1.85281,7.75 3.70997,12.83923 5.74464,31.42602 5.20643,47.56094 -0.56045,16.80156 -2.56081,25.34478 -9.23168,39.42714 -2.48285,5.24134 -4.51427,9.73209 -4.51427,9.97946 0,0.24736 5.15781,-2.25931 11.46181,-5.57038 20.86471,-10.95885 35.46391,-16.95893 50.15607,-20.61348 20.20177,-5.02501 26.77567,-5.80728 45.0875,-5.36523 l 16.25483,0.3924 10.04658,5.10212 10.04657,5.10211 2.60254,-4.63254 c 5.86057,-10.43186 10.44383,-16.21158 22.3441,-28.17697 35.39503,-35.58875 70.55374,-50.95478 116.59004,-50.95537 20.77203,-2.7e-4 27.16433,1.69433 52.40996,13.89392 19.1527,9.25527 40.75859,27.36659 54.66825,45.82611 7.53574,10.00067 18.35932,30.06639 19.06799,35.34994 0.50314,3.75121 0.40165,3.92983 -2.23297,3.92983 -2.01197,0 -4.55675,-1.69404 -9.38874,-6.25 -7.75153,-7.30873 -22.08096,-17.20346 -31.1995,-21.54383 -9.28387,-4.41906 -16.60926,-7.1786 -17.27879,-6.50908 -0.32006,0.32006 1.69566,3.07397 4.47938,6.11979 23.70148,25.9332 38.23041,53.25947 45.45281,85.4885 3.66534,16.35608 4.03627,19.57935 5.43108,47.19462 2.20309,43.61833 6.80322,63.82516 19.06927,83.76502 1.61217,2.62077 2.93122,5.88327 2.93122,7.25 0,2.07376 -0.47854,2.48498 -2.89181,2.48498 -2.32559,0 -5.24213,-2.25173 -14.8953,-11.5 -6.60191,-6.325 -12.25564,-11.5 -12.56383,-11.5 -1.97663,0 8.68977,20.84939 15.94181,31.1611 15.31454,21.77582 45.45507,47.36093 68.9224,58.50552 6.41102,3.04458 7.48673,3.91958 7.48673,6.08982 v 2.53439 l -9.75,-0.54613 c -5.70375,-0.31948 -13.485,-1.58164 -18.75,-3.04134 -4.95,-1.37237 -13.5,-3.71999 -19,-5.21694 -5.5,-1.49694 -12.925,-4.10776 -16.5,-5.80182 -3.575,-1.69406 -6.95,-3.27066 -7.5,-3.50357 -3.08952,-1.30833 9.60802,10.09786 15.94009,14.31897 6.74385,4.4956 7.50349,5.32786 7.5302,8.25 0.0343,3.74842 -0.17744,3.79353 -9.88838,2.10669 -8.04614,-1.39765 -38.07994,-13.30527 -45.71386,-18.12435 -2.14282,-1.3527 -6.13974,-3.60053 -8.88205,-4.99518 -4.78426,-2.43311 -21.83204,-14.36107 -29.79591,-20.84755 -9.07259,-7.38953 -4.19642,2.77685 7.32426,15.2704 6.38956,6.92913 7.98565,9.2776 7.98565,11.75 0,2.90662 -0.22254,3.08911 -3.75,3.07521 -15.96737,-0.0629 -38.56108,-13.04504 -59.52938,-34.20494 -11.41165,-11.51592 -11.98143,-12.3013 -18.25125,-25.15709 -4.74414,-9.72749 -7.39984,-16.85089 -9.94794,-26.68339 -3.2439,-12.51748 -3.52125,-14.82819 -4.15262,-34.59824 l -0.67655,-21.18493 -8.54145,12.17168 C 589.44083,538.59019 580.22643,548 575.99149,548 573.33028,548 573,547.66678 573,544.98183 c 0,-1.65999 2.18794,-7.39749 4.86209,-12.75 7.39411,-14.79986 15.80565,-34.08715 17.54582,-40.23183 2.47642,-8.74441 3.66235,-19.51702 3.65785,-33.22681 -0.008,-25.5313 -9.65831,-54.49837 -22.39813,-67.2345 -6.51344,-6.51156 -18.9187,-12.8658 -28.43932,-14.56722 -6.46856,-1.156 -7.83376,-1.05487 -18.77139,1.39049 -11.31999,2.53085 -24.28884,7.52566 -26.51981,10.21382 -0.77777,0.93716 -0.38782,2.3009 1.45879,5.10165 4.3484,6.59518 7.69789,17.32128 9.77942,31.31671 3.16074,21.25165 1.82724,44.348 -4.04393,70.04111 -1.55789,6.81755 -9.39241,31.89063 -11.78463,37.71475 -0.36607,0.89125 0.78246,1.25 4.00181,1.25 5.21544,0 5.54279,0.3553 12.89844,14 9.54142,17.69929 25.74163,56.19963 33.41241,79.40572 13.34483,40.37154 26.69043,97.02868 26.79343,113.74823 0.0436,7.08017 -0.18341,7.94227 -3.02847,11.5 -4.51224,5.64254 -16.01938,11.83823 -26.83466,14.44836 -7.65048,1.84634 -12.18269,2.20983 -28.62388,2.29569 -17.26384,0.0901 -19.85604,-0.10816 -22.30374,-1.70627 -3.39204,-2.21467 -3.37014,-2.14654 -4.19075,-13.03535 l -0.66648,-8.84361 -2.65244,2.53783 c -3.84573,3.67958 -19.39802,9.36707 -28.85734,10.55317 -4.43059,0.55555 -13.84699,1.3074 -20.92535,1.67079 -11.55183,0.59304 -13.47574,0.44556 -18.78748,-1.4402 -11.86252,-4.2114 -12.70822,-7.30328 -7.12007,-26.03126 6.54886,-21.94767 7.54022,-27.51618 8.56382,-48.1031 1.03317,-20.77958 0.52288,-49.03436 -1.1378,-63 -3.04957,-25.64557 -16.59487,-63.5079 -26.92105,-75.25072 l -3.53283,-4.01751 -21.96717,5.60671 C 344.14464,554.0359 333.12854,556 323.49585,556 h -5.35943 l -1.63325,7.75 c -2.93642,13.93367 -8.51724,36.04292 -11.9924,47.50969 -1.87359,6.18217 -4.58223,15.96531 -6.0192,21.74031 -5.8833,23.64429 -17.59619,60.57703 -27.27415,86 -5.64661,14.83304 -17.92964,40.15639 -20.52953,42.32474 -3.64336,3.03864 -13.90043,7.43162 -22.44677,9.6137 -6.92775,1.76881 -11.10379,2.05922 -29.40773,2.04511 -20.2852,-0.0156 -21.52992,-0.12744 -25.33339,-2.27534 z m 52.83891,-2.1405 c 7.39753,-2.01267 15.08739,-5.2591 19.9548,-8.42433 3.22228,-2.09541 4.93148,-4.81501 11.34722,-18.05519 C 271.41225,713.66828 282.2318,682.67177 294.67175,636 c 2.41886,-9.075 5.9253,-21.675 7.79208,-28 4.26775,-14.45992 7.899,-28.64383 10.62447,-41.5 2.8916,-13.63975 2.78938,-13.5 9.87452,-13.5 9.89,0 20.65164,-1.89617 41.03718,-7.23062 25.83499,-6.76045 26.88837,-6.85035 30.83132,-2.6314 3.24804,3.47539 13.04945,21.51606 15.75584,29.00051 2.41806,6.68705 7.18123,23.84289 9.45942,34.07061 3.11867,14.001 4.2099,34.06446 3.65987,67.2909 -0.54733,33.06344 -1.18331,37.76066 -8.28458,61.18841 -4.73185,15.61081 -4.52615,17.03465 2.98654,20.67299 5.1739,2.50568 6.97648,2.84947 14.5,2.76544 21.4788,-0.23988 34.58081,-2.71968 47.07557,-8.90993 7.50094,-3.71616 9.64196,-8.08335 11.13702,-22.71691 1.31537,-12.87477 0.56638,-36.91426 -1.55782,-50 -1.64798,-10.15206 -5.65043,-29.03452 -8.69063,-41 -2.21123,-8.70284 -14.63947,-46.37511 -20.22021,-61.29113 -5.01882,-13.41414 -5.41028,-13.86834 -12.67994,-14.71207 -3.98464,-0.46247 -6.31572,-1.22791 -6.68715,-2.19582 C 440.57416,555.44789 444.02587,540 445.15103,540 c 2.07221,0 13.56765,21.57348 21.58045,40.5 17.36328,41.01272 22.25734,55.03944 27.38937,78.5 2.96148,13.53806 3.62806,42.10165 1.48486,63.62746 -1.62115,16.28255 -2.12943,36.84417 -0.98453,39.82774 1.75286,4.56788 12.00961,6.11449 30.87882,4.65619 19.28595,-1.4905 32.40991,-5.70333 40.84845,-13.11247 7.54908,-6.62818 7.94591,-9.58046 4.01693,-29.8841 -8.64432,-44.67084 -24.0999,-98.14988 -37.17206,-128.62189 -13.18546,-30.73612 -23.1004,-51.20662 -26.99922,-55.74293 -1.07972,-1.25626 -2.99544,-1.75 -6.79007,-1.75 -2.9073,0 -5.55457,-0.43457 -5.88283,-0.9657 -0.32826,-0.53114 0.34821,-2.81816 1.50327,-5.08227 2.83995,-5.56676 10.61659,-29.70836 12.51996,-38.86662 0.84754,-4.07802 1.76792,-7.78179 2.0453,-8.23059 1.31262,-2.12387 3.37328,-23.74354 3.39075,-35.57455 0.0354,-23.96528 -4.13985,-42.2515 -12.49264,-54.71374 -3.18192,-4.74738 -3.27893,-5.13989 -1.70131,-6.88314 3.06519,-3.387 17.47913,-9.48342 27.44602,-11.60839 17.29727,-3.68781 29.19536,-2.35982 41.76299,4.66134 11.19242,6.25288 16.42748,12.11038 23.02592,25.76366 9.8673,20.41713 13.45936,42.63443 11.07325,68.48942 -1.66597,18.05188 -3.74059,24.20966 -18.97847,56.33097 l -6.0818,12.82039 3.99767,-3.16621 c 4.36931,-3.46056 20.07097,-24.48468 26.30713,-35.22457 2.78049,-4.78856 4.5025,-6.75 5.92601,-6.75 1.85151,0 1.93813,0.36712 1.12067,4.75 -0.48725,2.6125 -0.86491,14.65 -0.83923,26.75 0.0457,21.54105 0.11473,22.26077 3.30787,34.5 2.27249,8.71044 5.1965,16.48273 9.64493,25.63718 5.68398,11.69712 7.34931,14.15266 15.19213,22.40093 16.53923,17.39427 38.15928,32.21446 50.98379,34.94856 2.65352,0.56571 5.86141,1.26482 7.12863,1.55357 1.7533,0.3995 0.34188,-1.69387 -5.9047,-8.75762 -8.5096,-9.62283 -15.35329,-21.64284 -16.56147,-29.08802 -0.52069,-3.20859 -0.34127,-3.6946 1.36392,-3.6946 1.0957,0 3.41698,1.80868 5.25222,4.0924 4.06056,5.05282 27.56669,22.59947 39.04599,29.14671 21.38899,12.19924 54.27376,25.82046 56.6353,23.45893 0.29003,-0.29004 -2.77176,-2.76013 -6.80398,-5.48909 -7.34687,-4.97227 -17.40484,-14.67215 -19.73988,-19.03709 C 751.66386,637.50325 752.27678,635 754.35778,635 c 0.7813,0 5.63292,2.20157 10.78138,4.89238 10.71424,5.59972 46.26703,16.57773 56.36084,17.40313 l 6,0.49064 -3.5,-1.48962 c -16.33188,-6.95094 -47.96008,-31.40535 -61.49624,-47.54789 -8.08709,-9.64426 -19.33689,-27.31296 -23.07979,-36.24864 -3.42661,-8.18056 -5.56834,-17.62112 -4.33481,-19.10744 1.98079,-2.3867 3.29014,-1.59045 7.98758,4.85744 3.80713,5.22581 22.92326,23.98622 22.92326,22.4967 0,-0.25835 -1.83972,-3.79454 -4.08827,-7.85821 C 751.33804,553.77928 747.05661,531.6284 745.02087,485.5 c -1.14476,-25.93926 -5.13362,-46.22854 -12.97559,-66 -7.78876,-19.63733 -22.7295,-42.17712 -41.06686,-61.95399 -3.88112,-4.18579 -6.78743,-8.04601 -6.45848,-8.57827 1.12735,-1.8241 6.56143,-0.96543 15.33599,2.4233 19.03593,7.35169 32.7206,15.57779 45.03932,27.07396 l 5.39524,5.035 -6.22374,-12 C 728.78174,342.02895 704.77591,318.87683 674.51746,304.42404 653.15628,294.22099 648.05408,292.81231 630.5,292.27118 c -31.11645,-0.95922 -60.41436,7.08695 -84.47017,23.19829 -25.24198,16.90578 -45.08906,36.599 -54.45265,54.03053 -2.06808,3.85 -4.10616,7.36467 -4.52905,7.81039 -0.4229,0.44571 -2.81692,-0.5718 -5.32005,-2.26114 -2.50312,-1.68934 -7.62845,-4.52902 -11.38961,-6.31039 L 463.5,365.5 h -19 c -17.2458,0 -20.07345,0.25403 -30.62664,2.7514 -6.39465,1.51327 -15.16309,3.90581 -19.48542,5.31676 -9.04707,2.95326 -45.06581,20.24115 -53.74716,25.79699 -3.22257,2.06236 -6.03741,3.57156 -6.25519,3.35378 -0.21778,-0.21779 2.79693,-7.05134 6.69935,-15.18569 3.98027,-8.29659 8.24737,-19.01395 9.7194,-24.41148 2.32191,-8.51384 2.60636,-11.2914 2.47026,-24.12176 -0.16569,-15.61941 -2.68998,-33.35923 -6.25106,-43.93011 -2.30184,-6.83291 -2.54175,-9.73049 -0.85228,-10.29364 0.64419,-0.21473 7.28169,1.03312 14.75,2.77299 7.46831,1.73988 18.15683,3.74645 23.75226,4.45905 l 10.17353,1.29563 13.05656,-12.40196 c 7.18112,-6.82108 13.06553,-12.98681 13.07648,-13.70162 0.0604,-3.94141 -7.82392,-13.96272 -24.43938,-31.06361 -11.54092,-11.8781 -29.39242,-26.10227 -40.63801,-32.3806 -3.62852,-2.02578 -7.06828,-4.26213 -7.64391,-4.96968 -0.57563,-0.70755 -4.75843,-17.03645 -9.2951,-36.28645 -4.53667,-19.25 -8.58755,-35.38064 -9.00196,-35.84587 -0.41441,-0.46523 -15.31283,8.27673 -33.1076,19.42657 -17.79477,11.14984 -33.77062,21.11029 -35.50189,22.13432 -3.08925,1.82728 -3.3309,1.82101 -13,-0.33682 -16.38723,-3.6571 -60.92754,-3.80167 -89.97454,-0.29204 l -4.12229,0.49808 -1.35972,6.20788 c -3.61988,16.52684 -0.35797,26.3407 13.18417,39.66622 4.40819,4.33768 10.90432,9.83406 14.43585,12.21417 3.53152,2.38012 6.4352,5.04431 6.45262,5.92043 0.0186,0.93427 -2.96613,3.36178 -7.21833,5.87079 -12.55575,7.40853 -21.87299,14.8982 -34.09852,27.41016 C 134.4731,276.81415 133.47319,278.17871 127.97249,289.5 121.57978,302.65718 120,308.52286 120,319.10169 v 7.00324 l 4.61226,-8.90302 c 6.05136,-11.68089 13.5599,-22.61138 15.83331,-23.0492 2.77898,-0.53519 3.50495,1.73608 1.95713,6.12307 -0.77111,2.18555 -2.36047,8.05622 -3.53191,13.04592 -1.85016,7.88065 -2.05547,10.98358 -1.56318,23.62524 0.68889,17.69043 2.62541,27.03337 7.78366,37.55306 2.1575,4.4 3.6456,6.875 3.30688,5.5 -0.33872,-1.375 -0.81221,-10.15 -1.0522,-19.5 -0.45548,-17.74572 0.20761,-21.59776 3.83822,-22.29695 4.03778,-0.77761 10.49264,11.06924 13.94168,25.58769 1.68294,7.08418 1.97987,10.85507 1.59134,20.20926 -0.26271,6.325 -0.81139,12.625 -1.21928,14 -1.18198,3.98442 11.02454,-8.64759 21.25896,-22 4.84801,-6.325 9.23124,-11.5 9.74051,-11.5 0.50926,0 1.57678,1.15956 2.37226,2.57681 1.32286,2.35685 1.25113,2.84082 -0.84025,5.66957 -6.29678,8.51685 4.57304,18.19617 24.47061,21.79049 4.95,0.89418 10.05184,1.83263 11.33742,2.08545 l 2.33742,0.45967 -2.68658,3.52229 c -8.83584,11.58439 -14.36842,22.21061 -19.91109,38.2425 C 210.29628,448.3366 210,450.12887 210,460.48631 c 0,27.93294 9.43103,50.2229 29.69896,70.19258 7.54495,7.43392 8.29946,8.52694 8.28368,12 -0.0493,10.84513 -10.13133,42.30178 -20.93581,65.32111 -8.69153,18.51762 -19.09724,35.2366 -38.35118,61.61934 -14.94106,20.47299 -36.77128,53.07384 -40.85183,61.00735 -2.87484,5.58934 -2.01201,8.68873 2.97421,10.68382 5.13825,2.05592 17.42682,3.68949 27.75433,3.68949 4.6352,0 8.42764,0.3981 8.42764,0.88466 0,0.48656 -3.375,4.61808 -7.5,9.18116 -4.125,4.56307 -7.5,8.8796 -7.5,9.59229 0,1.78593 4.42928,4.52618 8.83608,5.46659 6.2821,1.34059 38.96292,0.22233 45.50283,-1.55699 z M 183,768.1324 c -3.71734,-0.80942 -8,-2.82694 -8,-3.76872 0,-0.31127 2.8125,-3.61409 6.25,-7.33959 6.35376,-6.88609 21.50684,-31.12349 33.77555,-54.02409 3.38854,-6.325 6.52614,-11.95 6.97243,-12.5 0.44629,-0.55 7.33959,-14.05 15.31844,-30 19.43214,-38.84552 27.26258,-59.62157 38.8023,-102.95186 1.60419,-6.02353 4.25873,-15.14141 5.89899,-20.26196 C 284.96169,528.09568 285.86364,521 284.0879,521 c -0.50166,0 -1.21682,1.9125 -1.58925,4.25 -0.95755,6.00988 -5.656,21.1248 -6.80503,21.89179 -1.15643,0.77192 -4.15711,-0.0565 -12.36546,-3.41381 -20.91779,-8.55562 -41.67474,-33.55408 -48.34839,-58.22798 -3.04263,-11.24928 -3.79616,-29.78123 -1.56472,-38.48193 4.24484,-16.55122 13.80696,-35.48749 23.18945,-45.92308 3.66532,-4.07672 5.21186,-5.09639 7.73817,-5.102 1.73653,-0.004 6.89834,-0.90385 11.47068,-2 4.57234,-1.09614 8.74132,-1.99299 9.26439,-1.99299 0.52308,0 -0.35443,2.5875 -1.95003,5.75 -1.59559,3.1625 -4.58841,10.925 -6.65071,17.25 -3.39181,10.40255 -3.7929,12.78831 -4.20299,25 -0.31117,9.26602 -0.0717,14.44089 0.76363,16.5 1.19746,2.95184 1.26858,2.83947 4.43067,-7 3.91291,-12.17581 6.14041,-17.5 7.32153,-17.5 0.49055,0 1.4297,2.3625 2.08702,5.25 5.64038,24.77754 28.06912,56.75 39.81021,56.75 1.39063,0 1.38395,-0.24026 -0.0626,-2.25 -3.80956,-5.29292 -5.92561,-10.61649 -8.19329,-20.61275 C 295.61159,458.70799 295.55484,458 297.37807,458 c 0.78188,0 2.29609,2.59578 3.5,6 1.16706,3.3 3.09582,8.75087 4.28613,12.11304 3.65981,10.33757 14.59564,23.14568 24.9366,29.20588 5.93069,3.47562 18.59207,6.68459 26.30916,6.66794 3.34952,-0.007 10.26441,-0.87453 15.36641,-1.92735 15.84351,-3.26938 29.94903,-12.21113 49.43704,-31.33903 11.38343,-11.17309 18.07028,-21.20894 22.37063,-33.5746 5.21483,-14.99522 8.59468,-47.81418 5.32958,-51.75117 -4.17942,-5.03947 -17.05543,-5.74715 -35.5261,-1.95255 -14.33028,2.944 -14.98783,3.16289 -33.80815,11.25419 -16.71152,7.18468 -26.5278,12.60961 -34.35959,18.98869 -6.50583,5.29907 -10.04496,5.64363 -14.2967,1.39188 -5.89236,-5.89235 -3.24967,-11.9534 8.57145,-19.65879 10.38909,-6.77196 44.39983,-23.55123 54.50547,-26.8904 4.125,-1.363 13.8,-3.93331 21.5,-5.71179 12.59797,-2.90976 15.55225,-3.23216 29.5,-3.21932 17.62097,0.0162 19.5934,0.51478 31.57055,7.97982 12.1978,7.60255 23.00676,20.66355 27.89522,33.70718 5.18185,13.82646 7.13424,40.29321 4.52265,61.30954 -2.79077,22.45833 -16.06705,64.26581 -23.50464,74.017 -2.8909,3.79015 -3.02399,4.38984 -0.97428,4.38984 0.83023,0 2.74273,-1.79638 4.25,-3.99195 l 2.7405,-3.99196 6.5,0.24196 6.5,0.24195 4.79207,9 c 5.00963,9.4086 6.60731,12.86307 19.1936,41.5 11.39432,25.9249 20.01776,52.22272 30.66,93.5 4.26098,16.5267 10.85484,50.19968 10.85059,55.41086 -0.005,6.32207 -2.51624,9.89584 -10.09393,14.36562 -11.79864,6.95954 -24.2614,9.63765 -45.10528,9.69264 -12.84313,0.0339 -16.50574,-0.96028 -17.45379,-4.73759 -0.78355,-3.1219 0.17984,-28.13333 1.70371,-44.23153 1.60383,-16.94293 0.67271,-44.65273 -1.90567,-56.71192 C 493.58379,642.64946 487.90287,623.7178 482.50121,610.5 470.90563,582.12574 461.74418,561.23384 458.60204,556 448.1854,538.64906 437.0196,513.88527 436.98469,508.05652 c -0.0358,-5.98308 -1.58598,-5.78089 -7.81744,1.01965 -9.49304,10.35998 -28.3824,22.88359 -41.62808,27.59935 -10.33992,3.68125 -46.96764,12.29906 -56.36138,13.26078 -13.68925,1.40149 -14.1264,1.14953 -12.89261,-7.43097 0.52227,-3.63215 0.64729,-6.9062 0.27782,-7.27566 -1.02101,-1.02102 -2.53045,1.9301 -2.54769,4.98101 -0.0365,6.45508 -10.87879,51.76562 -17.4478,72.91513 -2.49852,8.04419 -5.22315,17.94419 -6.05473,22 -2.42898,11.84674 -17.23501,59.77533 -21.27651,68.87419 -1.34363,3.025 -3.69377,9.1 -5.22253,13.5 -3.97417,11.43829 -15.82549,35.1579 -19.30475,38.63717 -7.98613,7.98612 -22.08405,11.94573 -44.20899,12.41672 -8.8,0.18734 -17.575,-0.002 -19.5,-0.42149 z M 486.10078,455.84139 C 496.48437,452.30221 504,442.01453 504,431.34028 504,428.40312 503.55,426 503,426 c -0.55,0 -1,-0.88681 -1,-1.97069 0,-2.66051 -7.84544,-10.78717 -11.17465,-11.5752 -2.12586,-0.5032 -2.62476,-0.29316 -2.43149,1.0237 0.13375,0.91124 1.29396,2.18902 2.57826,2.8395 3.23036,1.63614 6.92585,6.8218 5.27788,7.40613 -0.6875,0.24378 -1.25,1.79897 -1.25,3.45599 0,4.97675 -3.00978,14.0308 -4.47701,13.46777 -0.71135,-0.27297 -2.55422,0.81974 -4.09527,2.42824 -2.86112,2.98637 -5.98037,3.54883 -11.35358,2.0473 -4.03957,-1.12885 -3.40892,-2.71696 1.96591,-4.95064 6.45388,-2.68211 5.82684,-4.67741 -1.17791,-3.7482 -4.35205,0.57732 -5.15756,0.37159 -7.4257,-1.89655 -2.9274,-2.9274 -2.32859,-4.96808 1.19809,-4.08294 2.16533,0.54346 2.35221,0.35096 1.79903,-1.85312 -0.45666,-1.81945 -0.0897,-2.78909 1.40994,-3.72563 1.97352,-1.23248 1.94945,-1.31336 -0.90812,-3.05115 -2.94345,-1.79002 -3.80595,-4.15843 -1.93538,-5.31451 0.55,-0.33992 1,-1.09323 1,-1.67403 0,-0.59012 -1.08739,-0.3435 -2.46482,0.55902 C 467.17953,416.27325 464.3233,417 462.188,417 c -3.0553,0 -4.10108,-0.47932 -4.90903,-2.25 -0.94935,-2.08055 -1.115,-1.91109 -2.19959,2.25 -0.64512,2.475 -1.69507,5.83068 -2.33324,7.45706 -2.40019,6.11689 3.2e-4,17.71846 4.83481,23.36648 6.7582,7.89543 18.88044,11.30339 28.51983,8.01785 z M 424.5,755.13563 c -6.03214,-1.61067 -9.5,-4.05074 -9.5,-6.68445 0,-1.3736 1.55581,-7.77454 3.45735,-14.22432 8.02423,-27.21706 7.94042,-26.49123 7.9942,-69.22686 0.0559,-44.38438 -0.65954,-51.26935 -7.93837,-76.39876 -6.23869,-21.53844 -11.96081,-34.20696 -21.08623,-46.68397 l -3.35171,-4.58273 3.71238,-1.76386 c 6.57114,-3.12213 22.5503,-14.04738 29.12219,-19.91136 3.51193,-3.13363 6.50585,-5.57642 6.65316,-5.42842 0.1473,0.14801 2.28377,5.4441 4.74769,11.7691 l 4.47987,11.5 -1.44698,7 c -0.79584,3.85 -2.13763,9.38654 -2.98175,12.30342 -0.84413,2.91688 -1.30338,5.90643 -1.02057,6.64343 0.30519,0.79531 2.98746,1.62705 6.59871,2.04618 3.34648,0.3884 6.99628,1.44886 8.11066,2.35658 2.52913,2.06009 7.96718,16.12736 17.45399,45.15039 8.39068,25.66962 9.4628,29.60611 13.56999,49.8246 4.82431,23.7486 5.92777,33.09983 5.89053,49.91882 -0.0416,18.80508 -1.78968,30.34719 -5.15238,34.02047 -3.3096,3.61528 -17.18884,9.82608 -24.81273,11.10341 -8.70009,1.45763 -30.7545,2.26842 -34.5,1.26833 z M 165.69909,741.97655 C 155.27221,740.98248 149,738.58082 149,735.58239 c 0,-1.2387 2.29935,-6.03899 5.10967,-10.66729 6.36871,-10.48862 35.85038,-53.5951 44.18772,-64.60886 6.91839,-9.13931 24.13758,-35.69416 25.55481,-39.40976 C 224.35494,619.57842 227.26267,613.325 230.31382,607 238.09415,590.87143 250,554.03449 250,546.09052 c 0,-4.57453 1.76713,-5.30464 6.40268,-2.64535 2.25353,1.29279 7.02232,3.36931 10.59732,4.61449 3.575,1.24518 6.8459,2.55954 7.26867,2.92082 1.08145,0.92415 -4.13582,20.70864 -12.00374,45.51952 -7.02719,22.15972 -27.62057,66.75191 -45.25795,98 -3.72524,6.6 -8.40642,14.925 -10.40261,18.5 -9.55752,17.11668 -17.18315,28.43046 -19.61973,29.10886 -3.14008,0.87427 -11.25657,0.82382 -21.28555,-0.13231 z M 342,506.87559 c -9.73987,-2.60131 -14.89958,-5.69832 -22.54019,-13.52928 C 311.798,485.49363 303.27452,470 306.61634,470 c 0.33899,0 3.22887,2.41873 6.42195,5.37497 3.19308,2.95623 7.16172,5.84771 8.81919,6.4255 l 3.01359,1.05054 -3.68554,-7.05272 c -3.62142,-6.93002 -3.69138,-7.281 -4.02164,-20.1755 -0.35884,-14.01012 0.84486,-21.81424 4.78051,-30.994 l 2.08844,-4.8712 4.30346,4.6212 c 3.74996,4.02682 4.82473,4.62121 8.35613,4.62121 3.34671,0 5.11122,-0.84619 10.12966,-4.85778 10.01935,-8.00918 14.57902,-8.83202 19.83213,-3.57891 2.21276,2.21276 2.45562,3.20891 2.23901,9.1837 -0.24204,6.67647 -0.23193,6.704 2.68191,7.30371 6.83695,1.40715 9.42486,4.56881 9.42486,11.51438 0,3.3403 0.11008,3.4349 3.99712,3.4349 3.18805,0 4.80736,0.732 8,3.61636 3.81236,3.44425 4.00288,3.89809 4.00288,9.53554 v 5.91917 l 4.26416,1.82784 c 5.35471,2.29529 7.13584,4.41924 7.13584,8.50929 0,4.59741 -3.51846,8.93676 -11.73931,14.4782 -10.15698,6.84653 -14.4921,8.86374 -23.89155,11.11715 -10.44013,2.50291 -21.08433,2.45864 -30.76914,-0.12796 z m 69.57057,-27.35112 c -0.42659,-2.2739 -1.96353,-4.56095 -4.55672,-6.78062 l -3.91302,-3.3494 17.92594,-15.69723 C 430.88604,445.06375 439.46343,438 440.08765,438 c 2.04643,0 -0.007,7.10692 -5.05742,17.5 -3.64775,7.50724 -6.65038,11.93656 -12.04536,17.76874 -9.32018,10.07545 -10.56929,10.76004 -11.4143,6.25573 z m -10.90172,-13.18895 c -0.36787,-0.36787 -0.67053,-2.05635 -0.67259,-3.75219 -0.005,-4.1597 -3.25069,-9.21089 -7.54745,-11.74603 -1.94318,-1.14651 -3.4016,-2.43032 -3.24093,-2.85291 0.74872,-1.96931 57.14953,-45.02698 57.94214,-44.23437 0.51535,0.51535 0.25423,5.67272 -0.62368,12.31825 -0.83061,6.28745 -1.51383,11.72425 -1.51827,12.08178 -0.004,0.35752 -9.12057,8.64754 -20.25807,18.42226 -25.25303,22.16308 -23.29127,20.55308 -24.08115,19.76321 z m -17.64102,-23.23218 c -0.72641,-2.69768 -2.26775,-4.94729 -4.61783,-6.73978 -3.38993,-2.58563 -3.45695,-2.75852 -1.71873,-4.43421 0.9948,-0.95902 12.83373,-9.51467 26.30873,-19.01256 13.475,-9.49789 25.8054,-18.34275 27.40089,-19.65525 2.43467,-2.00283 3.55968,-2.2773 7,-1.70782 6.2702,1.03792 9.54495,3.13145 9.5838,6.12687 0.0134,1.03121 -53.02345,43.09854 -60.1756,47.72961 l -2.69091,1.74239 z M 372,427.96788 c 0,-3.58101 -2.96042,-9.39128 -6.12628,-12.02374 l -3.07374,-2.55587 6.85001,-3.1096 c 3.76751,-1.71029 11.36536,-5.15792 16.88413,-7.66141 11.97579,-5.4326 39.51378,-12.38343 39.44065,-9.95516 C 425.94264,393.72889 374.58025,430 373.10174,430 372.49578,430 372,429.08555 372,427.96788 Z M 225.20623,391.95265 c -1.8086,-0.72587 -2.09301,-1.29569 -1.34463,-2.69406 1.54428,-2.8855 1.8132,-10.49505 0.3884,-10.99055 -0.83527,-0.29048 -1.25489,0.67124 -1.26474,2.89863 -0.0166,3.75138 -1.74094,7.67499 -3.98526,9.06813 -2.23779,1.38909 -12.86584,-2.92215 -16.75,-6.7946 -2.27092,-2.26408 -3.25,-4.17409 -3.25,-6.3402 0,-1.705 0.38228,-3.1 0.84952,-3.1 2.14637,0 9.70745,-6.17718 11.80749,-9.64639 1.94214,-3.20834 2.3336,-5.23503 2.33787,-12.10361 0.003,-4.83675 -0.40861,-8.25 -0.99488,-8.25 -0.55,0 -1,0.85186 -1,1.89301 C 212,347.87458 210.15927,349 206.91821,349 205.68,349 205,348.30549 205,347.04085 c 0,-3.55723 2.23076,-17.52628 2.92072,-18.28961 0.37224,-0.41181 3.57985,0.81547 7.12804,2.72729 3.54818,1.91183 6.90124,3.48639 7.45124,3.49903 0.63672,0.0146 1,-7.87845 1,-21.72729 V 291.5 l 3.26045,-8 c 1.79325,-4.4 4.11401,-9.10375 5.15725,-10.45277 1.71236,-2.21427 2.16149,-2.33218 4.61878,-1.21256 4.40864,2.00871 4.13546,0.42654 -0.61366,-3.55414 -2.43255,-2.03895 -8.17386,-7.32368 -12.75847,-11.74386 -6.73369,-6.49217 -9.09305,-9.59876 -12.2767,-16.16487 C 206.75,231.83813 202,215.19872 202,209.23806 v -3.50549 l 20.75,0.52153 c 17.41824,0.4378 21.81776,0.86218 27.39993,2.64299 19.39364,6.18693 44.49008,32.8749 51.22377,54.47221 3.72301,11.941 4.10585,16.48211 2.64357,31.35706 -1.94548,19.79031 -5.29537,30.19766 -21.23536,65.97342 -8.33706,18.71174 -11.80739,23.78324 -18.60801,27.19355 -3.12065,1.56491 -8.63576,3.35411 -12.25581,3.97598 -7.79482,1.33905 -23.46127,1.38793 -26.71186,0.0833 z M 212,376.17079 v -2.61523 l -2.12136,2.12135 c -2.24503,2.24504 -1.82207,4.62235 0.65339,3.67243 C 211.33941,379.03951 212,377.60917 212,376.17079 Z m 53.12787,-39.69869 c 9.18289,-3.12893 15.14791,-10.81607 17.89098,-23.05619 0.95814,-4.27546 0.80848,-6.12169 -1.5755,-19.43535 -0.60618,-3.38526 -0.41594,-3.667 4.9898,-7.39008 6.81064,-4.69066 6.61784,-6.11509 -0.23268,-1.71912 -2.68156,1.72075 -5.17367,3.12864 -5.53802,3.12864 -1.59123,0 -0.39839,-4.57429 2.90173,-11.12745 1.9603,-3.89263 3.33977,-7.30194 3.06548,-7.57623 -0.27429,-0.27428 -1.93078,2.35933 -3.6811,5.85249 -5.74215,11.4598 -7.29739,11.51598 -5.32829,0.19249 0.7377,-4.2422 1.15773,-7.89664 0.9334,-8.12097 -0.5526,-0.55259 -2.54114,6.76165 -2.54809,9.37239 -0.003,1.15099 -1.01808,3.95033 -2.25558,6.22076 -3.50003,6.42146 -42.69738,51.03647 -45.14625,51.38613 -2.71969,0.38834 -2.34292,2.19846 0.55061,2.64536 1.2847,0.19842 2.76899,-0.38724 3.49388,-1.37859 1.30981,-1.79126 1.86811,-1.73298 8.85176,0.924 5.23746,1.99264 17.89119,2.0364 23.62787,0.0817 z M 246,336.08488 c -4.62781,-1.07044 -8.67087,-2.74333 -9.37204,-3.87784 -0.31148,-0.50397 0.49889,-1.91703 1.80082,-3.14013 2.27452,-2.1368 2.49828,-2.16016 5.71918,-0.59695 2.83177,1.37436 3.05076,1.38653 1.41091,0.0784 -1.06762,-0.85163 -2.30512,-1.54841 -2.75,-1.54841 -1.39993,0 -0.88476,-2.08468 1.25922,-5.09563 2.29189,-3.21865 5.2949,-3.95346 4.71767,-1.15437 -0.62659,3.03844 10.03306,7.25 18.3501,7.25 6.73931,0 8.95915,1.20029 4.71253,2.54812 -1.18339,0.37559 -5.34589,1.01982 -9.25,1.43161 -6.82226,0.71958 -6.89416,0.75399 -1.84839,0.88449 5.23511,0.13539 6.81922,1.31267 3.5,2.60111 -2.83697,1.10125 -14.46141,1.49587 -18.25,0.61955 z m 7.72917,-4.68905 c -0.3323,-0.33229 -1.1948,-0.36781 -1.91667,-0.0789 -0.79773,0.31922 -0.56078,0.55618 0.60417,0.60416 1.05416,0.0434 1.64479,-0.19293 1.3125,-0.52522 z m 3.79383,-20.75535 c -1.8035,-1.31875 -1.79697,-1.4462 0.2175,-4.25 1.14221,-1.58976 3.50129,-4.24048 5.24241,-5.89048 3.07672,-2.91572 3.20571,-2.94547 4.59137,-1.05887 2.07638,2.82701 1.78413,8.20046 -0.57428,10.55887 -2.30819,2.30819 -6.78271,2.61059 -9.477,0.64048 z M 252,246.56944 c 0,-1.33681 -1.6875,-5.67309 -3.75,-9.63618 -3.29393,-6.32928 -4.49868,-7.65529 -9.90596,-10.90297 -7.23807,-4.34728 -16.41803,-7.45897 -19.3034,-6.54319 -3.19093,1.01276 -2.39479,2.5129 1.33363,2.5129 8.07441,0 21.01053,7.35273 24.96007,14.18699 1.37088,2.37216 3.05269,6.22551 3.73737,8.56301 1.36707,4.6672 2.92829,5.63724 2.92829,1.81944 z m -54.42997,116.54387 c -0.30141,-0.48768 0.082,-1.40954 0.85195,-2.04856 1.55873,-1.29363 3.15488,0.19286 2.07802,1.93525 -0.7652,1.23812 -2.20049,1.29363 -2.92997,0.11331 z M 380,288.94809 c -17.64801,-2.77321 -65.60974,-15.37812 -71.3813,-18.75985 -2.29698,-1.34587 -3.52516,-3.54433 -6.0562,-10.84069 -1.98116,-5.71116 -4.75177,-11.24098 -7.36871,-14.7071 C 292.88721,241.5854 291,238.67109 291,238.16421 c 0,-0.50689 6.8625,1.27074 15.25,3.95027 8.3875,2.67953 21.1,6.21319 28.25,7.85256 7.15,1.63938 24.23605,5.68933 37.969,8.99991 13.73296,3.31057 28.80796,6.53552 33.5,7.16656 4.69205,0.63103 8.981,1.57898 9.531,2.10656 1.07142,1.02774 -21.08583,22.86218 -22.97221,22.63753 C 391.9625,290.81028 386.325,289.942 380,288.94809 Z m 26.4284,-24.99476 c -6.43419,-0.84042 -44.47989,-9.67149 -45.33037,-10.52197 -0.86933,-0.86933 -11.93498,-47.88617 -11.45357,-48.6651 1.72412,-2.78968 27.61899,15.56587 41.94295,29.73122 C 402.15983,244.95283 416,261.41668 416,263.53796 c 0,1.58293 -0.47501,1.60355 -9.5716,0.41537 z M 341.5,249.24252 c -8.25,-1.86122 -15.675,-3.73388 -16.5,-4.16147 -0.825,-0.42758 -2.44906,-4.46171 -3.60903,-8.96473 -1.26965,-4.92881 -3.02903,-9.1666 -4.42061,-10.64787 -2.60765,-2.77572 -1.90142,-4.531 1.07512,-2.67212 1.78864,1.11702 1.95553,0.94407 1.96638,-2.03786 0.014,-3.84159 -7.69694,-55.88952 -8.92731,-60.25847 l -0.84486,-3 -11.14918,11.5 c -11.09518,11.4443 -11.31351,11.81631 -9.9772,17 0.30768,1.19351 -0.48418,1.43485 -3.87549,1.18116 -4.20224,-0.31436 -4.42215,-0.16418 -15.63833,10.67989 l -11.37615,10.99874 -6.36167,-2.04198 C 247.03482,205.26849 241.51921,204.62193 229,204.13792 217.17518,203.68075 212.5,203.15954 212.5,202.29842 212.5,201.01594 325.61158,130 327.65426,130 c 0.66603,0 1.45409,0.7875 1.75124,1.75 2.77474,8.98772 28.44318,119.76823 27.86167,120.24611 -0.42195,0.34674 -7.51717,-0.89237 -15.76717,-2.75359 z M 295.51719,235.9373 c -6.24385,-2.31947 -9.13022,-4.09861 -13.25,-8.16722 C 279.37023,224.90911 277,222.04796 277,221.41197 c 0,-0.636 1.85636,-1.4532 4.12524,-1.81601 6.26417,-1.00168 7.53826,-2.05053 8.16476,-6.72137 0.66341,-4.94616 3.64792,-9.37459 6.31792,-9.37459 2.95525,0 2.97387,5.54944 0.0401,11.95757 l -2.48145,5.42019 5.89062,7.81112 c 5.45589,7.23466 7.04885,10.38283 5.19277,10.2625 -0.4125,-0.0267 -4.34227,-1.38308 -8.73281,-3.01408 z M 200,235.09463 c -2.475,-1.52141 -8.0854,-4.7526 -12.46755,-7.18042 -5.68381,-3.14897 -10.87102,-7.28051 -18.09727,-14.41421 -12.35281,-12.19461 -15.43791,-17.68242 -15.4296,-27.44634 0.006,-6.65399 1.48955,-14.05366 2.81824,-14.05366 0.4014,0 3.86775,3.17826 7.703,7.06279 4.25412,4.30879 11.26242,9.76017 17.97318,13.98038 16.39303,10.30911 15.21209,8.86141 17.93066,21.98101 1.30787,6.3117 3.09602,13.4449 3.97365,15.85155 1.73343,4.75344 2.02238,7.16386 0.84569,7.05469 -0.4125,-0.0383 -2.775,-1.31438 -5.25,-2.83579 z m 0.25852,-33.81869 c -16.76032,-9.18264 -41.6628,-28.29114 -39.56375,-30.35859 3.62512,-3.57054 62.38513,-5.39905 77.92902,-2.42502 9.26615,1.77291 14.37621,3.36119 14.37621,4.46835 0,0.44306 -2.5875,2.36308 -5.75,4.26671 -3.1625,1.90363 -13.60231,8.32184 -23.19958,14.26269 -9.59728,5.94085 -18.14728,10.9726 -19,11.18167 -0.85273,0.20908 -3.00909,-0.41904 -4.7919,-1.39581 z"
     id="path12"
     inkscape:connector-curvature="0" />
</svg>
