<?xml version="1.0" encoding="UTF-8" standalone="no"?>
<!-- Created with Inkscape (http://www.inkscape.org/) -->

<svg
   version="1.1"
   id="svg2"
   width="958"
   height="885"
   viewBox="0 0 958 885"
   sodipodi:docname="archie_white.svg"
   inkscape:version="1.2.1 (9c6d41e410, 2022-07-14)"
   xmlns:inkscape="http://www.inkscape.org/namespaces/inkscape"
   xmlns:sodipodi="http://sodipodi.sourceforge.net/DTD/sodipodi-0.dtd"
   xmlns="http://www.w3.org/2000/svg"
   xmlns:svg="http://www.w3.org/2000/svg"
   xmlns:rdf="http://www.w3.org/1999/02/22-rdf-syntax-ns#"
   xmlns:cc="http://creativecommons.org/ns#"
   xmlns:dc="http://purl.org/dc/elements/1.1/">
  <metadata
     id="metadata8">
    <rdf:RDF>
      <cc:Work
         rdf:about="">
        <dc:format>image/svg+xml</dc:format>
        <dc:type
           rdf:resource="http://purl.org/dc/dcmitype/StillImage" />
        <dc:title />
      </cc:Work>
    </rdf:RDF>
  </metadata>
  <defs
     id="defs6">
    <filter
       style="color-interpolation-filters:sRGB;"
       inkscape:label="Invert"
       id="filter18"
       x="0"
       y="0"
       width="1"
       height="1">
      <feColorMatrix
         type="hueRotate"
         values="180"
         result="color1"
         id="feColorMatrix14" />
      <feColorMatrix
         values="-1 0 0 0 1 0 -1 0 0 1 0 0 -1 0 1 -0.21 -0.72 -0.07 2 0 "
         result="color2"
         id="feColorMatrix16" />
    </filter>
  </defs>
  <sodipodi:namedview
     pagecolor="#ffffff"
     bordercolor="#666666"
     borderopacity="1"
     objecttolerance="10"
     gridtolerance="10"
     guidetolerance="10"
     inkscape:pageopacity="0"
     inkscape:pageshadow="2"
     inkscape:window-width="1600"
     inkscape:window-height="823"
     id="namedview4"
     showgrid="false"
     inkscape:pagecheckerboard="true"
     inkscape:zoom="0.53333333"
     inkscape:cx="361.875"
     inkscape:cy="875.625"
     inkscape:window-x="0"
     inkscape:window-y="0"
     inkscape:window-maximized="1"
     inkscape:current-layer="svg2"
     inkscape:showpageshadow="2"
     inkscape:deskcolor="#d1d1d1" />
  <path
     id="path12"
     style="fill:#000000;filter:url(#filter18)"
     d="M 328.85547 123.19531 C 325.61618 122.92504 321.38306 125.28581 290.75781 144.44531 L 256.30469 166 L 246.90234 163.99219 C 234.347 161.31068 203.87495 160.34178 183.5 161.97656 C 175.25001 162.6385 164.59365 163.41819 159.82031 163.70898 L 151.14258 164.23828 L 149.82031 169.36914 C 149.09365 172.19124 148.5 179.45001 148.5 185.5 C 148.5 195.60826 148.73514 196.97834 151.39453 202.39453 C 154.73634 209.20053 166.88552 221.91193 175.54297 227.66016 L 181.14648 231.38086 L 178.82422 233.16797 C 177.54635 234.15106 176.17135 234.96632 175.76953 234.97852 C 174.35662 235.02153 164.12564 241.99539 156.63477 248.02148 C 152.47006 251.37182 144.74188 258.84011 139.46289 264.61719 C 131.36214 273.48226 129.01157 276.87073 124.38867 286.33789 C 118.2498 298.90959 116.09306 308.05089 116.03516 321.75 L 116 330 L 119.25 329.98242 C 122.22244 329.96681 122.70047 329.50441 124.8418 324.55664 C 127.56246 318.27026 135.97376 303.63976 136.54102 304.20703 C 136.75344 304.41945 136.27282 307.04746 135.47461 310.04688 C 134.4846 313.76698 134.01972 320.81304 134.01172 332.21484 C 133.99645 353.71416 136.04221 365.10383 142.17578 377.6543 C 146.17976 385.84719 146.74004 386.52228 149.75 386.8125 C 153.64723 387.18826 153.75462 386.44457 151.5 374.66211 C 149.8746 366.16792 149.4857 345.36066 150.91016 343.11133 C 152.20544 341.06595 156.3287 347.82672 159.38086 357 C 163.29307 368.75814 164.67837 380.59397 163.09961 388.75977 C 162.38278 392.46741 161.56979 397.1875 161.29297 399.25 C 160.79731 402.943 160.84127 403 164.16992 403 C 167.04504 403 168.61287 401.91692 174.66406 395.75 C 178.57674 391.7625 184.3026 385.19082 187.38867 381.14648 L 193 373.79297 L 193 377.44727 C 193 387.19325 202.20223 393.96416 219.5 396.94922 C 223.35 397.61362 227.08382 398.34235 227.79688 398.56641 C 228.68789 398.8464 227.8694 400.77519 225.18164 404.73633 C 219.7096 412.80088 214.78535 422.89342 210.37891 435.07617 C 206.6118 445.49138 206.60923 445.51279 206.67383 461 C 206.72506 473.2814 207.18739 478.35591 208.89648 485.43945 C 213.09896 502.85707 223.07965 519.83218 237.43164 533.9707 C 244.77561 541.20545 245.01484 542.07299 242.55078 552.51953 C 239.56212 565.19012 230.53043 590.12691 223.54297 605 C 216.59753 619.78363 203.65532 641.13339 193.30469 654.88281 C 186.97388 663.29243 171.29566 685.91366 159.20508 704.08203 C 142.15022 729.7102 143 728.06726 143 735.36719 L 143 741.85547 L 148.52734 743.92383 C 151.74152 745.12641 157.70543 746.22521 162.77734 746.54883 C 174.03786 747.26733 178 747.88948 178 748.9375 C 178 749.40309 175.94902 752.0664 173.44141 754.85547 C 169.32838 759.43015 168.91237 760.34289 169.19141 764.1875 C 169.46722 767.98772 169.9332 768.69474 173.5 770.70898 C 177.30347 772.85688 178.5488 772.96878 198.83398 772.98438 C 217.13791 772.99848 221.31249 772.70631 228.24023 770.9375 C 236.78657 768.75542 247.04414 764.36286 250.6875 761.32422 C 253.28739 759.15587 265.57019 733.83303 271.2168 719 C 280.89475 693.57706 292.60889 656.64427 298.49219 633 C 299.92916 627.22501 302.63813 617.44193 304.51172 611.25977 C 307.98688 599.79301 313.56749 577.68366 316.50391 563.75 L 318.13672 556 L 323.49609 556 C 333.12877 556 344.1443 554.0353 366.4668 548.33789 L 388.43359 542.73242 L 391.9668 546.75 C 402.29297 558.49281 415.8391 596.35446 418.88867 622 C 420.54935 635.96563 421.05856 664.22044 420.02539 685 C 419.00179 705.5869 418.01174 711.15587 411.46289 733.10352 C 405.87475 751.83148 406.71952 754.92337 418.58203 759.13477 C 423.89377 761.02052 425.81732 761.16726 437.36914 760.57422 C 444.44749 760.21083 453.86434 759.45985 458.29492 758.9043 C 467.75423 757.7182 483.30662 752.03114 487.15234 748.35156 L 489.80469 745.8125 L 490.4707 754.65625 C 491.29131 765.54505 491.27007 765.47674 494.66211 767.69141 C 497.10981 769.28951 499.70297 769.48854 516.9668 769.39844 C 533.40797 769.31258 537.93937 768.9479 545.58984 767.10156 C 556.40511 764.49144 567.91159 758.29683 572.42383 752.6543 C 575.26889 749.09657 575.49672 748.23446 575.45312 741.1543 C 575.35013 724.43476 562.00497 667.77775 548.66016 627.40625 C 540.98938 604.20018 524.7875 565.69927 515.24609 548 C 507.89045 534.35531 507.56309 534 502.34766 534 C 499.12831 534 497.98159 533.64125 498.34766 532.75 C 500.73987 526.92589 508.57297 501.8527 510.13086 495.03516 C 516.00202 469.34207 517.33652 446.24577 514.17578 424.99414 C 512.09425 410.99872 508.74488 400.27291 504.39648 393.67773 C 502.54988 390.87699 502.15973 389.51333 502.9375 388.57617 C 505.16847 385.88801 518.13705 380.89218 529.45703 378.36133 C 540.39465 375.91597 541.75996 375.8147 548.22852 376.9707 C 557.74913 378.67212 570.15454 385.02751 576.66797 391.53906 C 589.40778 404.27518 599.05841 433.24216 599.06641 458.77344 C 599.07091 472.48321 597.88462 483.2556 595.4082 492 C 593.66803 498.14467 585.25543 517.43258 577.86133 532.23242 C 575.18718 537.58493 573 543.32243 573 544.98242 C 573 547.66737 573.33098 548 575.99219 548 C 580.22712 548 589.44042 538.58999 600.15039 523.32812 L 608.69141 511.15625 L 609.36914 532.3418 C 610.00051 552.11183 610.27759 554.42199 613.52148 566.93945 C 616.06958 576.77194 618.72461 583.89557 623.46875 593.62305 C 629.73856 606.47882 630.30906 607.26534 641.7207 618.78125 C 662.68898 639.94113 685.28265 652.92148 701.25 652.98438 C 704.77746 652.99827 705 652.81677 705 649.91016 C 705 647.43776 703.40323 645.08928 697.01367 638.16016 C 685.493 625.66662 680.61687 615.49915 689.68945 622.88867 C 697.65332 629.37515 714.70207 641.30322 719.48633 643.73633 C 722.22864 645.13098 726.22437 647.37972 728.36719 648.73242 C 736.0011 653.5515 766.0359 665.45977 774.08203 666.85742 C 783.79296 668.54426 784.005 668.49842 783.9707 664.75 C 783.94399 661.82786 783.1833 660.9956 776.43945 656.5 C 770.10739 652.27889 757.41048 640.87331 760.5 642.18164 C 761.05 642.41455 764.425 643.99149 768 645.68555 C 771.575 647.37961 779.00001 649.98939 784.5 651.48633 C 789.99999 652.98328 798.55 655.33076 803.5 656.70312 C 808.76499 658.16282 816.54626 659.42466 822.25 659.74414 L 832 660.29102 L 832 657.75586 C 832 655.58562 830.92469 654.71059 824.51367 651.66602 C 801.04637 640.52144 770.90632 614.93595 755.5918 593.16016 C 748.33976 582.84846 737.67181 562 739.64844 562 C 739.95663 562 745.61099 567.17501 752.21289 573.5 C 761.86605 582.74826 764.78183 585 767.10742 585 C 769.52069 585 770 584.58938 770 582.51562 C 770 581.1489 768.68053 577.88639 767.06836 575.26562 C 754.80232 555.32578 750.20309 535.11829 748 491.5 C 746.60519 463.88476 746.2337 460.66075 742.56836 444.30469 C 735.34597 412.07569 720.81669 384.74958 697.11523 358.81641 C 694.33152 355.77059 692.31666 353.01733 692.63672 352.69727 C 693.30625 352.02775 700.6302 354.78798 709.91406 359.20703 C 719.03259 363.5474 733.36371 373.44128 741.11523 380.75 C 745.94722 385.30596 748.49194 387 750.50391 387 C 753.13852 387 753.23947 386.82152 752.73633 383.07031 C 752.02766 377.78677 741.2037 357.72136 733.66797 347.7207 C 719.75832 329.2612 698.15268 311.14979 679 301.89453 C 653.7544 289.69495 647.36185 287.99973 626.58984 288 C 580.55359 288.00059 545.39499 303.36636 510 338.95508 C 498.09974 350.92046 493.51681 356.70096 487.65625 367.13281 L 485.05273 371.76562 L 475.00586 366.66211 L 464.96094 361.56055 L 448.70508 361.16797 C 430.39327 360.72592 423.81894 361.5082 403.61719 366.5332 C 388.92504 370.18775 374.32563 376.18765 353.46094 387.14648 C 347.15694 390.45755 342 392.96416 342 392.7168 C 342 392.46943 344.03082 387.97962 346.51367 382.73828 C 353.18454 368.65594 355.18564 360.11209 355.74609 343.31055 C 356.2843 327.17564 354.24903 308.58922 350.53906 295.75 C 349.30739 291.4875 348.47487 288 348.6875 288 C 348.90012 288 354.11978 289.11983 360.28711 290.48828 C 372.15753 293.12218 390.14189 296 394.73047 296 C 398.60232 296 424 270.80233 424 266.96094 C 424 262.39593 419.20222 254.58772 410.15625 244.43164 C 392.96267 225.1281 377.52893 211.9058 359.38477 200.93555 C 354.92087 198.23661 350.83641 195.45872 350.30859 194.76367 C 349.78077 194.06863 346.96817 183.37499 344.05859 171 C 341.14901 158.62501 337.35846 142.87499 335.63477 136 L 332.5 123.5 L 328.85547 123.19531 z M 329.96094 126.6543 C 330.37535 127.11953 334.42623 143.25002 338.96289 162.5 C 343.49956 181.74998 347.68414 198.07956 348.25977 198.78711 C 348.8354 199.49466 352.27383 201.73008 355.90234 203.75586 C 367.14792 210.03418 385.00011 224.25863 396.54102 236.13672 C 413.15646 253.23759 421.04087 263.25977 420.98047 267.20117 C 420.96952 267.91598 415.08541 274.08127 407.9043 280.90234 L 394.84766 293.30469 L 384.67383 292.00781 C 379.0784 291.29521 368.39018 289.28871 360.92188 287.54883 C 353.45357 285.80896 346.81606 284.56066 346.17188 284.77539 C 344.48241 285.33854 344.7216 288.23741 347.02344 295.07031 C 350.58451 305.64118 353.1097 323.38061 353.27539 339 C 353.41149 351.83035 353.1266 354.60726 350.80469 363.12109 C 349.33266 368.51862 345.06425 379.23662 341.08398 387.5332 C 337.18157 395.66754 334.16699 402.50096 334.38477 402.71875 C 334.60255 402.93653 337.41806 401.42759 340.64062 399.36523 C 349.32197 393.8094 385.34161 376.52162 394.38867 373.56836 C 398.711 372.15741 407.4784 369.76522 413.87305 368.25195 C 424.42623 365.75459 427.25422 365.5 444.5 365.5 L 463.5 365.5 L 470.33789 368.73828 C 474.09905 370.51965 479.2254 373.35949 481.72852 375.04883 C 484.23164 376.73817 486.62593 377.75626 487.04883 377.31055 C 487.47172 376.86483 489.51005 373.35 491.57812 369.5 C 500.94171 352.06849 520.78734 332.37451 546.0293 315.46875 C 570.08508 299.35743 599.38358 291.31227 630.5 292.27148 C 648.05406 292.81261 653.15642 294.22079 674.51758 304.42383 C 704.776 318.8766 728.78141 342.02898 744.06641 371.5 L 750.29102 383.5 L 744.89453 378.46484 C 732.57582 366.96869 718.89138 358.74231 699.85547 351.39062 C 691.08092 348.0019 685.64688 347.1427 684.51953 348.9668 C 684.19058 349.49906 687.0974 353.36109 690.97852 357.54688 C 709.31586 377.32373 724.25617 399.86269 732.04492 419.5 C 739.88688 439.27144 743.87673 459.56077 745.02148 485.5 C 747.05722 531.62835 751.33843 553.77948 761.91211 572.88867 C 764.16066 576.95234 766 580.48774 766 580.74609 C 766 582.23561 746.8833 563.4758 743.07617 558.25 C 738.37874 551.80212 737.07063 551.00588 735.08984 553.39258 C 733.85631 554.8789 735.99722 564.31945 739.42383 572.5 C 743.16672 581.43567 754.41682 599.1038 762.50391 608.74805 C 776.04005 624.89057 807.66814 649.34594 824 656.29688 L 827.5 657.78711 L 821.5 657.29492 C 811.4062 656.46952 775.8529 645.49229 765.13867 639.89258 C 759.99022 637.20177 755.13872 635 754.35742 635 C 752.27642 635 751.66422 637.50327 753.0918 640.17188 C 755.42683 644.53681 765.48517 654.23672 772.83203 659.20898 C 776.86425 661.93794 779.9248 664.40723 779.63477 664.69727 C 777.27323 667.05879 744.38897 653.43751 723 641.23828 C 711.52071 634.69105 688.01368 617.14461 683.95312 612.0918 C 682.11789 609.80808 679.79687 608 678.70117 608 C 676.99598 608 676.8172 608.48673 677.33789 611.69531 C 678.54607 619.14049 685.38885 631.16038 693.89844 640.7832 C 700.14501 647.84695 701.55799 649.94052 699.80469 649.54102 C 698.53747 649.25227 695.3293 648.55204 692.67578 647.98633 C 679.85128 645.25223 658.23062 630.43332 641.69141 613.03906 C 633.84859 604.7908 632.18397 602.33383 626.5 590.63672 C 622.05157 581.48228 619.12796 573.71043 616.85547 565 C 613.66233 552.76078 613.59257 552.04103 613.54688 530.5 C 613.5212 518.40001 613.89947 506.3625 614.38672 503.75 C 615.20418 499.36712 615.11713 499 613.26562 499 C 611.84212 499 610.12033 500.96144 607.33984 505.75 C 601.10369 516.48988 585.40056 537.51405 581.03125 540.97461 L 577.03516 544.14062 L 583.11719 531.32031 C 598.35505 499.19903 600.42778 493.0421 602.09375 474.99023 C 604.47986 449.13527 600.88877 426.91711 591.02148 406.5 C 584.42305 392.84673 579.1885 386.9892 567.99609 380.73633 C 555.42848 373.71518 543.52967 372.38641 526.23242 376.07422 C 516.26554 378.19919 501.8523 384.2966 498.78711 387.68359 C 497.20949 389.42684 497.30636 389.81903 500.48828 394.56641 C 508.84106 407.02863 513.01587 425.31404 512.98047 449.2793 C 512.963 461.1103 510.90246 482.7316 509.58984 484.85547 C 509.31246 485.30427 508.39246 489.00792 507.54492 493.08594 C 505.64155 502.24419 497.86534 526.38442 495.02539 531.95117 C 493.87033 534.21528 493.19322 536.50402 493.52148 537.03516 C 493.84974 537.56629 496.497 538 499.4043 538 C 503.19892 538 505.11364 538.49374 506.19336 539.75 C 510.09218 544.28631 520.00791 564.7561 533.19336 595.49219 C 546.26551 625.96417 561.72092 679.44444 570.36523 724.11523 C 574.29421 744.41885 573.89673 747.36987 566.34766 753.99805 C 557.90912 761.40718 544.78593 765.62083 525.5 767.11133 C 506.63081 768.56963 496.37395 767.02295 494.62109 762.45508 C 493.47619 759.47151 493.98432 738.90949 495.60547 722.62695 C 497.74867 701.10116 497.08257 672.53805 494.12109 659 C 488.98907 635.53946 484.09568 621.51268 466.73242 580.5 C 458.71963 561.5735 447.2226 540 445.15039 540 C 444.02523 540 440.57407 555.44769 441.28516 557.30078 C 441.65659 558.26869 443.98802 559.03362 447.97266 559.49609 C 455.24231 560.33982 455.63353 560.79486 460.65234 574.20898 C 466.23308 589.12499 478.66182 626.79717 480.87305 635.5 C 483.91324 647.46547 487.91452 666.34795 489.5625 676.5 C 491.6867 689.58573 492.43646 713.62524 491.12109 726.5 C 489.62604 741.13355 487.48531 745.50064 479.98438 749.2168 C 467.48963 755.40704 454.38698 757.88707 432.9082 758.12695 C 425.38469 758.21098 423.5821 757.86701 418.4082 755.36133 C 410.89552 751.72299 410.69003 750.29829 415.42188 734.6875 C 422.52314 711.25977 423.1597 706.56341 423.70703 673.5 C 424.25706 640.27359 423.16554 620.20997 420.04688 606.20898 C 417.76869 595.98127 413.00595 578.82572 410.58789 572.13867 C 407.8815 564.65423 398.08007 546.61406 394.83203 543.13867 C 390.88909 538.91973 389.83496 539.00909 364 545.76953 C 343.61448 551.10398 332.85288 553 322.96289 553 C 315.87776 553 315.97949 552.86026 313.08789 566.5 C 310.36242 579.35616 306.73064 593.54009 302.46289 608 C 300.59611 614.32499 297.09073 626.92501 294.67188 636 C 282.23194 682.67172 271.41193 713.66801 257.64062 742.08789 C 251.22489 755.32806 249.51525 758.04717 246.29297 760.14258 C 241.42556 763.3078 233.73737 766.55569 226.33984 768.56836 C 219.79994 770.34768 187.11803 771.46559 180.83594 770.125 C 176.42914 769.18459 172 766.44413 172 764.6582 C 172 763.94551 175.375 759.62947 179.5 755.06641 C 183.625 750.50333 187 746.37133 187 745.88477 C 187 745.39821 183.20746 745 178.57227 745 C 168.24477 745 155.9566 743.36646 150.81836 741.31055 C 145.83214 739.31546 144.96891 736.21629 147.84375 730.62695 C 151.9243 722.69345 173.75427 690.09211 188.69531 669.61914 C 207.94923 643.23643 218.35535 626.5176 227.04688 608 C 237.85134 584.98069 247.93312 553.52481 247.98242 542.67969 C 247.9982 539.20663 247.24416 538.1136 239.69922 530.67969 C 219.43131 510.71003 210 488.41924 210 460.48633 C 210 450.1289 210.29724 448.33747 213.57812 438.84766 C 219.12079 422.81578 224.65245 412.18789 233.48828 400.60352 L 236.17578 397.08203 L 233.83789 396.62305 C 232.55231 396.37023 227.45 395.43129 222.5 394.53711 C 202.60245 390.94279 191.73252 381.26294 198.0293 372.74609 C 200.12067 369.91735 200.192 369.43302 198.86914 367.07617 C 198.07366 365.65892 197.00731 364.5 196.49805 364.5 C 195.98878 364.5 191.60582 369.67501 186.75781 376 C 176.5234 389.3524 164.31607 401.98442 165.49805 398 C 165.90594 396.625 166.45409 390.32499 166.7168 384 C 167.10533 374.64582 166.80794 370.87519 165.125 363.79102 C 161.67596 349.27258 155.22137 337.42552 151.18359 338.20312 C 147.55299 338.90231 146.89022 342.7543 147.3457 360.5 C 147.58569 369.84999 148.05972 378.625 148.39844 380 C 148.73716 381.375 147.24929 378.9 145.0918 374.5 C 139.93355 363.98032 137.99553 354.63768 137.30664 336.94727 C 136.81435 324.30562 137.02094 321.20291 138.87109 313.32227 C 140.04253 308.33257 141.63123 302.46094 142.40234 300.27539 C 143.95016 295.88841 143.22429 293.61715 140.44531 294.15234 C 138.1719 294.59016 130.66268 305.52029 124.61133 317.20117 L 120 326.10547 L 120 319.10156 C 120 308.52274 121.57995 302.65717 127.97266 289.5 C 133.47335 278.17872 134.47397 276.8133 145.65234 265.37305 C 157.87786 252.8611 167.19426 245.37141 179.75 237.96289 C 184.0022 235.45388 186.98735 233.02802 186.96875 232.09375 C 186.95133 231.21763 184.04714 228.55199 180.51562 226.17188 C 176.9841 223.79177 170.48826 218.29666 166.08008 213.95898 C 152.53795 200.63348 149.27661 190.81979 152.89648 174.29297 L 154.25586 168.08398 L 158.37695 167.58594 C 187.42392 164.07631 231.96435 164.22181 248.35156 167.87891 C 258.02065 170.03673 258.26232 170.04212 261.35156 168.21484 C 263.08283 167.19081 279.05876 157.22991 296.85352 146.08008 C 314.64827 134.93025 329.54653 126.18907 329.96094 126.6543 z M 327.6543 130 C 325.61162 130 212.5 201.01635 212.5 202.29883 C 212.5 203.15995 217.17519 203.6815 229 204.13867 C 241.5192 204.62268 247.03448 205.26904 251.86133 206.81836 L 258.22266 208.85938 L 269.59961 197.86133 C 280.81578 187.01727 281.03605 186.86728 285.23828 187.18164 C 288.62959 187.43533 289.42096 187.19351 289.11328 186 C 287.77697 180.81632 287.99467 180.44429 299.08984 169 L 310.24023 157.5 L 311.08398 160.5 C 312.31435 164.86895 320.02572 216.91623 320.01172 220.75781 C 320.00087 223.73974 319.83356 223.91389 318.04492 222.79688 C 315.06838 220.938 314.36306 222.69303 316.9707 225.46875 C 318.36228 226.95002 320.12098 231.18838 321.39062 236.11719 C 322.55059 240.6202 324.175 244.6525 325 245.08008 C 325.825 245.50767 333.25001 247.38097 341.5 249.24219 C 349.74999 251.10341 356.84563 252.34283 357.26758 251.99609 C 357.84909 251.51821 332.18099 140.73771 329.40625 131.75 C 329.1091 130.7875 328.32033 130 327.6543 130 z M 220.40039 167.11523 C 197.14665 166.5422 163.41415 168.24007 160.69531 170.91797 C 158.59626 172.98542 183.49751 192.09276 200.25781 201.27539 C 202.04062 202.25216 204.19805 202.88095 205.05078 202.67188 C 205.9035 202.46281 214.45351 197.43108 224.05078 191.49023 C 233.64804 185.54939 244.0875 179.13019 247.25 177.22656 C 250.4125 175.32293 253 173.404 253 172.96094 C 253 171.85378 247.88919 170.2651 238.62305 168.49219 C 234.73708 167.74868 228.15164 167.30624 220.40039 167.11523 z M 156.82422 172 C 155.49553 172 154.01186 179.39875 154.00586 186.05273 C 153.99755 195.81664 157.08275 201.3054 169.43555 213.5 C 176.66179 220.63369 181.8494 224.7651 187.5332 227.91406 C 191.91535 230.34188 197.525 233.57234 200 235.09375 C 202.475 236.61516 204.8375 237.89139 205.25 237.92969 C 206.42669 238.03886 206.13773 235.62844 204.4043 230.875 C 203.52667 228.46835 201.73756 221.33513 200.42969 215.02344 C 197.71112 201.90385 198.89301 203.35207 182.5 193.04297 C 175.78925 188.82276 168.78146 183.37129 164.52734 179.0625 C 160.6921 175.17797 157.22562 172 156.82422 172 z M 295.60742 203.5 C 292.93742 203.5 289.95247 207.92884 289.28906 212.875 C 288.66256 217.54584 287.38916 218.59402 281.125 219.5957 C 278.85612 219.95851 277 220.77611 277 221.41211 C 277 222.0481 279.37062 224.90856 282.26758 227.76953 C 286.38735 231.83814 289.27373 233.61803 295.51758 235.9375 C 299.90811 237.5685 303.8375 238.92447 304.25 238.95117 C 306.10608 239.0715 304.51253 235.92411 299.05664 228.68945 L 293.16602 220.87695 L 295.64844 215.45703 C 298.5822 209.04891 298.56267 203.5 295.60742 203.5 z M 350.24219 204.48438 C 349.95432 204.49972 349.75229 204.59127 349.64453 204.76562 C 349.16312 205.54455 360.22833 252.56231 361.09766 253.43164 C 361.94814 254.28212 399.99355 263.11271 406.42773 263.95312 C 415.52432 265.1413 416 265.12004 416 263.53711 C 416 261.41583 402.1603 244.95339 391.58789 234.49805 C 378.15919 221.21804 354.56017 204.25423 350.24219 204.48438 z M 202 205.73242 L 202 209.23828 C 202 215.19894 206.74907 231.83743 210.88672 240.37109 C 214.07037 246.9372 216.43038 250.04495 223.16406 256.53711 C 227.74867 260.95728 233.48933 266.2423 235.92188 268.28125 C 240.67099 272.26193 240.94574 273.84269 236.53711 271.83398 C 234.07982 270.71437 233.63033 270.83261 231.91797 273.04688 C 230.87473 274.39589 228.55301 279.1 226.75977 283.5 L 223.5 291.5 L 223.5 313.25 C 223.5 327.09883 223.13672 334.99312 222.5 334.97852 C 221.95 334.96588 218.597 333.39034 215.04883 331.47852 C 211.50064 329.5667 208.29216 328.34014 207.91992 328.75195 C 207.22996 329.51528 205 343.48379 205 347.04102 C 205 348.30565 205.67976 349 206.91797 349 C 210.15903 349 212 347.87415 212 345.89258 C 212 344.85143 212.45 344 213 344 C 213.58627 344 213.99714 347.41325 213.99414 352.25 C 213.98987 359.11857 213.59839 361.14518 211.65625 364.35352 C 209.55621 367.82272 201.99598 374 199.84961 374 C 199.38237 374 199 375.39461 199 377.09961 C 199 379.26572 199.97908 381.17538 202.25 383.43945 C 206.13416 387.3119 216.76221 391.62346 219 390.23438 C 221.24432 388.84124 222.96778 384.91739 222.98438 381.16602 C 222.99422 378.93863 223.41473 377.9771 224.25 378.26758 C 225.6748 378.76308 225.40561 386.37232 223.86133 389.25781 C 223.11295 390.65618 223.39843 391.22726 225.20703 391.95312 C 228.45762 393.25775 244.12316 393.20819 251.91797 391.86914 C 255.53802 391.24727 261.05318 389.45749 264.17383 387.89258 C 270.97444 384.48227 274.4442 379.41094 282.78125 360.69922 C 298.72122 324.92349 302.0721 314.51685 304.01758 294.72656 C 305.47986 279.85163 305.09605 275.31013 301.37305 263.36914 C 294.63936 241.77185 269.54401 215.08341 250.15039 208.89648 C 244.56823 207.11568 240.16822 206.69171 222.75 206.25391 L 202 205.73242 z M 219.04102 219.48633 C 221.92638 218.57055 231.10569 221.68397 238.34375 226.03125 C 243.75102 229.27893 244.95607 230.60432 248.25 236.93359 C 250.3125 240.89668 252 245.2335 252 246.57031 C 252 250.38811 250.43933 249.4172 249.07227 244.75 C 248.38759 242.4125 246.70486 238.55966 245.33398 236.1875 C 241.38445 229.35325 228.4494 222 220.375 222 C 216.64658 222 215.85009 220.49909 219.04102 219.48633 z M 291 238.16406 C 291 238.67094 292.88678 241.58558 295.19336 244.64062 C 297.8103 248.10674 300.58134 253.6365 302.5625 259.34766 C 305.09354 266.64401 306.32216 268.84163 308.61914 270.1875 C 314.39069 273.56923 362.35201 286.17406 380 288.94727 C 386.32499 289.94117 391.96205 290.80963 392.52734 290.87695 C 394.41372 291.1016 416.57142 269.26797 415.5 268.24023 C 414.95 267.71265 410.6608 266.76384 405.96875 266.13281 C 401.27671 265.50177 386.2017 262.27736 372.46875 258.9668 C 358.73581 255.65622 341.64999 251.60618 334.5 249.9668 C 327.35001 248.32743 314.63749 244.79476 306.25 242.11523 C 297.86251 239.43571 291 237.65717 291 238.16406 z M 278.55273 267.2207 C 278.77706 267.44503 278.35879 271.0996 277.62109 275.3418 C 275.652 286.66528 277.20707 286.60823 282.94922 275.14844 C 284.69954 271.65528 286.35462 269.0226 286.62891 269.29688 C 286.9032 269.57116 285.52475 272.98042 283.56445 276.87305 C 280.26434 283.4262 279.07088 288 280.66211 288 C 281.02646 288 283.51961 286.59184 286.20117 284.87109 C 293.05169 280.47513 293.24423 281.89919 286.43359 286.58984 C 281.02786 290.31292 280.83718 290.59521 281.44336 293.98047 C 283.82734 307.29412 283.97767 309.14056 283.01953 313.41602 C 280.27646 325.65612 274.30983 333.34373 265.12695 336.47266 C 259.39028 338.42735 246.73745 338.38326 241.5 336.39062 C 234.51636 333.73365 233.95825 333.67554 232.64844 335.4668 C 231.92355 336.45815 230.439 337.04412 229.1543 336.8457 C 226.26077 336.3988 225.88383 334.58756 228.60352 334.19922 C 231.05238 333.84956 270.24997 289.23591 273.75 282.81445 C 274.9875 280.54403 276.00286 277.74279 276.00586 276.5918 C 276.01281 273.98106 278.00013 266.66811 278.55273 267.2207 z M 265.91211 298.16992 C 265.32206 298.306 264.52078 299.04214 262.98242 300.5 C 261.2413 302.15 258.88244 304.80087 257.74023 306.39062 C 255.72577 309.19442 255.71994 309.32188 257.52344 310.64062 C 260.21772 312.61073 264.69181 312.30819 267 310 C 269.35841 307.64159 269.6506 302.26841 267.57422 299.44141 C 266.88139 298.49811 266.50215 298.03384 265.91211 298.16992 z M 247.50195 319.07031 C 246.53687 319.30646 245.2143 320.29497 244.06836 321.9043 C 241.92438 324.91524 241.40867 327 242.80859 327 C 243.25347 327 244.49097 327.6972 245.55859 328.54883 C 247.19844 329.85696 246.9802 329.84506 244.14844 328.4707 C 240.92754 326.90749 240.70421 326.92961 238.42969 329.06641 C 237.12776 330.28951 236.31743 331.70306 236.62891 332.20703 C 237.33008 333.34154 241.37219 335.01355 246 336.08398 C 249.78859 336.9603 261.41303 336.56609 264.25 335.46484 C 267.56922 334.17641 265.9851 332.99867 260.75 332.86328 C 255.70424 332.73278 255.7754 332.70005 262.59766 331.98047 C 266.50176 331.56868 270.66427 330.92442 271.84766 330.54883 C 276.09427 329.201 273.87602 328 267.13672 328 C 258.81969 328 248.15857 323.78844 248.78516 320.75 C 249.07377 319.35046 248.46704 318.83417 247.50195 319.07031 z M 251.8125 331.31641 C 252.53437 331.0275 253.39622 331.06419 253.72852 331.39648 C 254.06081 331.72877 253.47017 331.96527 252.41602 331.92188 C 251.25107 331.8739 251.01477 331.63563 251.8125 331.31641 z M 199.55664 360.57617 C 199.20463 360.59151 198.81156 360.74105 198.42188 361.06445 C 197.65193 361.70347 197.2689 362.6256 197.57031 363.11328 C 198.29979 364.2936 199.7348 364.23812 200.5 363 C 201.30764 361.69321 200.61267 360.53017 199.55664 360.57617 z M 445 367.5957 C 431.05226 367.58286 428.09796 367.90665 415.5 370.81641 C 407.80001 372.59488 398.125 375.16435 394 376.52734 C 383.89437 379.86651 349.88322 396.64602 339.49414 403.41797 C 327.67303 411.12335 325.03147 417.18383 330.92383 423.07617 C 335.17556 427.32792 338.71488 426.98461 345.2207 421.68555 C 353.05249 415.30647 362.86857 409.88194 379.58008 402.69727 C 398.40038 394.60597 399.05645 394.3854 413.38672 391.44141 C 431.85737 387.64681 444.73465 388.35507 448.91406 393.39453 C 452.17916 397.33152 448.79881 430.15128 443.58398 445.14648 C 439.28364 457.51213 432.59631 467.54762 421.21289 478.7207 C 401.7249 497.84858 387.62084 506.78922 371.77734 510.05859 C 366.67535 511.11141 359.75967 511.97933 356.41016 511.98633 C 348.69307 512.00298 336.03225 508.79398 330.10156 505.31836 C 319.76061 499.25817 308.82387 486.45084 305.16406 476.11328 C 303.97375 472.75111 302.04597 467.3 300.87891 464 C 299.675 460.59578 298.16079 458 297.37891 458 C 295.55568 458 295.61205 458.70747 298.43164 471.13672 C 300.69932 481.13297 302.81544 486.45709 306.625 491.75 C 308.07155 493.75974 308.07813 494 306.6875 494 C 294.94642 494 272.51733 462.02752 266.87695 437.25 C 266.21963 434.3625 265.27961 432 264.78906 432 C 263.60794 432 261.38166 437.3242 257.46875 449.5 C 254.30666 459.33946 254.23457 459.45184 253.03711 456.5 C 252.20178 454.44089 251.96227 449.26601 252.27344 440 C 252.68353 427.78832 253.08476 425.40254 256.47656 415 C 258.53886 408.67501 261.53136 400.9125 263.12695 397.75 C 264.72255 394.5875 265.6012 392 265.07812 392 C 264.55506 392 260.38484 392.89605 255.8125 393.99219 C 251.24016 395.08834 246.07833 395.98819 244.3418 395.99219 C 241.81549 395.9978 240.27079 397.01899 236.60547 401.0957 C 227.22299 411.53128 217.66085 430.46637 213.41602 447.01758 C 211.18458 455.71827 211.93784 474.25073 214.98047 485.5 C 221.65411 510.17388 242.41036 535.1729 263.32812 543.72852 C 271.53647 547.08582 274.53693 547.9145 275.69336 547.14258 C 276.84239 546.37559 281.5405 531.25987 282.49805 525.25 C 282.87048 522.9125 283.58623 521 284.08789 521 C 285.86363 521 284.96156 528.09662 282.01758 537.28711 C 280.37732 542.40765 277.72333 551.5253 276.11914 557.54883 C 264.57943 600.87907 256.74853 621.65452 237.31641 660.5 C 229.33756 676.44998 222.44434 689.95 221.99805 690.5 C 221.55176 691.05 218.41393 696.67501 215.02539 703 C 202.75669 725.90058 187.60375 750.13735 181.25 757.02344 C 177.8125 760.74893 175 764.05201 175 764.36328 C 175 765.30506 179.28266 767.32339 183 768.13281 C 184.925 768.5523 193.70001 768.74203 202.5 768.55469 C 224.62492 768.0837 238.72286 764.12283 246.70898 756.13672 C 250.18824 752.65745 262.03951 728.93828 266.01367 717.5 C 267.54243 713.1 269.8927 707.025 271.23633 704 C 275.27782 694.90115 290.08469 646.97173 292.51367 635.125 C 293.34525 631.06919 296.06984 621.16918 298.56836 613.125 C 305.13736 591.97551 315.97913 546.66601 316.01562 540.21094 C 316.03286 537.16003 317.54149 534.20945 318.5625 535.23047 C 318.93197 535.59993 318.80743 538.87371 318.28516 542.50586 C 317.05137 551.08635 317.4885 551.33704 331.17773 549.93555 C 340.57146 548.97383 377.19915 540.35703 387.53906 536.67578 C 400.78473 531.96003 419.67494 519.43614 429.16797 509.07617 C 435.39942 502.27564 436.94858 502.07357 436.98438 508.05664 C 437.01928 513.88538 448.18493 538.64908 458.60156 556 C 461.7437 561.23383 470.90638 582.12577 482.50195 610.5 C 487.90361 623.71779 493.58312 642.64851 497.14062 659.28711 C 499.719 671.34629 500.6507 699.05709 499.04688 716 C 497.52301 732.09818 496.5602 757.11052 497.34375 760.23242 C 498.2918 764.00973 501.95376 765.00265 514.79688 764.96875 C 535.64073 764.91376 548.10372 762.23688 559.90234 755.27734 C 567.48003 750.80757 569.99109 747.23222 569.99609 740.91016 C 570.00034 735.69898 563.40746 702.02668 559.14648 685.5 C 548.50426 644.22276 539.88064 617.92487 528.48633 592 C 515.90005 563.3631 514.30259 559.90859 509.29297 550.5 L 504.5 541.5 L 498 541.25781 L 491.5 541.01562 L 488.75977 545.00781 C 487.2525 547.20338 485.33999 549 484.50977 549 C 482.46006 549 482.59348 548.39952 485.48438 544.60938 C 492.92196 534.85819 506.19751 493.05206 508.98828 470.59375 C 511.59987 449.57744 509.64669 423.10965 504.46484 409.2832 C 499.57639 396.23959 488.7681 383.17871 476.57031 375.57617 C 464.59317 368.11114 462.62095 367.6119 445 367.5957 z M 212 373.55469 L 212 376.16992 C 212 377.6083 211.33863 379.03978 210.53125 379.34961 C 208.05579 380.29953 207.63388 377.92277 209.87891 375.67773 L 212 373.55469 z M 433.52344 391.44336 C 432.50781 391.69115 431.61772 392.2603 430.40039 393.26172 C 428.8049 394.57422 416.47499 403.41814 403 412.91602 C 389.52501 422.4139 377.68621 430.97067 376.69141 431.92969 C 374.95319 433.60538 375.02023 433.77765 378.41016 436.36328 C 380.76023 438.15577 382.30093 440.40584 383.02734 443.10352 L 384.11914 447.15234 L 386.80859 445.41016 C 393.96074 440.77909 446.99777 398.7109 446.98438 397.67969 C 446.94553 394.68427 443.67058 392.59261 437.40039 391.55469 C 435.68023 391.26995 434.53906 391.19557 433.52344 391.44336 z M 424.79297 392.16992 C 419.40729 391.94788 397.01201 397.86367 386.5332 402.61719 C 381.01444 405.12067 373.4179 408.56901 369.65039 410.2793 L 362.80078 413.38867 L 365.87305 415.94336 C 369.0389 418.57582 372 424.38774 372 427.96875 C 372 429.08642 372.4956 430 373.10156 430 C 374.58007 430 425.94248 393.7289 425.97461 392.66211 C 425.98375 392.35858 425.56235 392.20164 424.79297 392.16992 z M 447.15039 403.75 C 446.35778 402.95739 389.95575 446.01507 389.20703 447.98438 C 389.04636 448.40696 390.50604 449.69138 392.44922 450.83789 C 396.74597 453.37303 399.99109 458.42429 399.99609 462.58398 C 399.99815 464.27982 400.3001 465.96807 400.66797 466.33594 C 401.45785 467.12581 399.497 468.73532 424.75 446.57227 C 435.88749 436.79756 445.00381 428.50791 445.00781 428.15039 C 445.01225 427.79286 445.69478 422.3558 446.52539 416.06836 C 447.4033 409.42284 447.66574 404.26535 447.15039 403.75 z M 360.71289 417.27539 C 357.21395 416.93789 353.08435 419.13685 346.82227 424.14258 C 341.80383 428.15416 340.04007 429 336.69336 429 C 333.16196 429 332.08589 428.40572 328.33594 424.37891 L 324.0332 419.75781 L 321.94531 424.62891 C 318.00967 433.80866 316.80522 441.61294 317.16406 455.62305 C 317.49432 468.51753 317.56413 468.86882 321.18555 475.79883 L 324.87109 482.85156 L 321.85742 481.80078 C 320.19995 481.22299 316.23214 478.33123 313.03906 475.375 C 309.84599 472.41876 306.95618 470 306.61719 470 C 303.27537 470 311.79718 485.49303 319.45898 493.3457 C 327.09959 501.17666 332.26014 504.27369 342 506.875 C 351.6848 509.4616 362.32941 509.50681 372.76953 507.00391 C 382.16897 504.7505 386.50319 502.73324 396.66016 495.88672 C 404.881 490.34528 408.40039 486.00561 408.40039 481.4082 C 408.40039 477.31816 406.61838 475.19373 401.26367 472.89844 L 397 471.07031 L 397 465.15234 C 397 459.5149 396.8104 459.06143 392.99805 455.61719 C 389.80541 452.73283 388.18609 452 384.99805 452 C 381.11101 452 381 451.90475 381 448.56445 C 381 441.61889 378.41116 438.45793 371.57422 437.05078 C 368.66038 436.45107 368.65054 436.42256 368.89258 429.74609 C 369.10919 423.77131 368.86705 422.77526 366.6543 420.5625 C 364.68438 418.59259 362.81226 417.47789 360.71289 417.27539 z M 440.08789 438 C 439.46367 438 430.8866 445.0638 421.02734 453.69727 L 403.10156 469.39453 L 407.01367 472.74414 C 409.60686 474.96381 411.14372 477.25149 411.57031 479.52539 C 412.41532 484.0297 413.6642 483.34497 422.98438 473.26953 C 428.37935 467.43736 431.38155 463.00723 435.0293 455.5 C 440.07971 445.10693 442.13432 438 440.08789 438 z M 433.5625 510.23047 C 433.41519 510.08247 430.42208 512.52653 426.91016 515.66016 C 420.33827 521.52413 404.35824 532.44819 397.78711 535.57031 L 394.07617 537.33398 L 397.42773 541.91797 C 406.55315 554.39497 412.27499 567.06314 418.51367 588.60156 C 425.79249 613.73095 426.50707 620.61566 426.45117 665 C 426.39739 707.73559 426.48125 707.00953 418.45703 734.22656 C 416.55549 740.67634 415 747.07757 415 748.45117 C 415 751.08488 418.46787 753.5241 424.5 755.13477 C 428.2455 756.13485 450.29992 755.32482 459 753.86719 C 466.62388 752.58986 480.5029 746.37895 483.8125 742.76367 C 487.1752 739.0904 488.92324 727.5492 488.96484 708.74414 C 489.00208 691.92517 487.89852 682.5728 483.07422 658.82422 C 478.96703 638.60575 477.89458 634.66959 469.50391 609 C 460.01711 579.977 454.57991 565.9097 452.05078 563.84961 C 450.9364 562.94189 447.28593 561.88059 443.93945 561.49219 C 440.32821 561.07306 437.64699 560.24257 437.3418 559.44727 C 437.05899 558.71027 437.5172 555.71961 438.36133 552.80273 C 439.20545 549.88586 440.54791 544.35 441.34375 540.5 L 442.79102 533.5 L 438.31055 522 C 435.84663 515.67501 433.7098 510.37848 433.5625 510.23047 z M 251.46289 542.05469 C 250.44167 542.47662 250 543.80258 250 546.08984 C 250 554.03381 238.09478 590.87145 230.31445 607 C 227.26331 613.32499 224.3543 619.57843 223.85156 620.89648 C 222.43433 624.61208 205.21526 651.16734 198.29688 660.30664 C 189.95954 671.32039 160.47808 714.42741 154.10938 724.91602 C 151.29906 729.54431 149 734.34333 149 735.58203 C 149 738.58046 155.27235 740.98249 165.69922 741.97656 C 175.72819 742.93269 183.8443 742.98364 186.98438 742.10938 C 189.42095 741.43098 197.04601 730.11666 206.60352 713 C 208.5997 709.425 213.28258 701.09999 217.00781 694.5 C 234.64517 663.25194 255.23844 618.6597 262.26562 596.5 C 270.13354 571.68914 275.35098 551.90462 274.26953 550.98047 C 273.84676 550.61919 270.575 549.30573 267 548.06055 C 263.425 546.81537 258.65587 544.7381 256.40234 543.44531 C 254.08457 542.11567 252.48412 541.63276 251.46289 542.05469 z M 284.89062 573.32227 C 285.16693 573.37793 285.40206 573.68487 285.93164 574.54492 C 286.38112 575.27494 286.88719 576.36063 287.05664 576.95898 C 287.77652 579.50054 292.13208 586.39921 294.26172 588.37109 C 294.78001 588.851 295.23293 589.44374 295.26758 589.68945 C 295.30258 589.9351 295.07198 591.07798 294.75586 592.22852 C 294.07785 594.69625 293.97619 594.95479 293.70508 594.91992 C 293.06271 594.83422 289.24712 588.58369 287.45508 584.68164 C 286.87764 583.42432 286.35894 582.34872 286.30273 582.29102 C 286.11725 582.10051 285.60312 584.18741 285.39453 585.97656 C 285.19772 587.66451 285.16894 587.73651 284.66797 587.73438 C 283.91512 587.73138 282.24728 586.40461 281.91992 585.54883 C 281.76845 585.15289 281.76629 584.27001 281.91406 583.58594 C 282.06266 582.90186 282.44847 581.05381 282.77148 579.48047 C 283.98983 573.5461 284.01159 573.47077 284.58789 573.33789 C 284.70156 573.31169 284.79854 573.30371 284.89062 573.32227 z M 281.17383 589.07617 C 281.89608 589.10883 282.72591 589.62012 283.67773 590.59766 C 284.85677 591.80851 285.28753 592.63084 285.61523 594.28711 C 285.80717 595.25737 285.81674 595.2638 286.45117 594.89844 C 286.80359 594.6955 287.47172 594.61665 287.93555 594.72461 C 289.63674 595.12061 292.25707 599.41638 292.01172 601.40625 C 291.88976 602.3955 291.0596 605.3949 290.21289 607.9043 C 289.85517 608.96444 289.44504 609.72772 289.08594 610.00781 C 288.40775 610.53678 287.70055 609.83559 286.93555 607.875 L 286.42969 606.57422 L 287.31641 604.47656 C 288.6371 601.35005 288.69025 601.11887 288.36328 600.07227 C 287.69292 597.92634 286.24934 598.59358 285.61328 601.3418 C 285.18513 603.19166 284.94715 603.29433 283.80273 602.12891 C 282.87984 601.18909 282.77392 600.48289 283.35547 599.13086 C 284.25893 597.03037 283.9182 594.81168 282.59375 594.16211 C 282.00205 593.87191 281.3573 594.64259 280.98242 596.08594 C 280.12864 599.3732 280.09921 599.43608 279.37305 599.60352 C 278.87968 599.71727 278.48652 599.53919 278.06055 599.01367 C 277.49558 598.31653 277.47625 598.09861 277.79883 595.9707 C 278.51425 591.25208 279.58487 589.00432 281.17383 589.07617 z M 277.41406 603.18164 C 278.7651 603.12432 280.48013 604.22557 282.67578 606.48047 C 284.55204 608.40734 285.01363 609.02497 285.60938 610.40234 C 286.84296 613.25436 287.26054 616.38375 286.81836 619.45508 C 286.64828 620.63642 285.13546 624.40108 284.63281 624.89258 C 284.03329 625.47875 281.94436 622.2757 281.97461 620.81641 C 281.98261 620.43403 282.38246 619.36547 282.86133 618.44141 C 283.7123 616.79935 283.72472 616.72185 283.44531 615.02734 C 283.21099 613.60652 283.01037 613.14004 282.33008 612.44141 C 281.87354 611.97253 281.44384 611.71565 281.37695 611.87109 C 281.31005 612.02656 281.34784 612.24918 281.46094 612.36523 C 281.8821 612.79773 281.67846 615.23685 281.11133 616.55859 C 280.42305 618.16218 279.2338 618.74079 277.91016 618.11523 C 276.68624 617.5368 274.61754 615.00463 274.24023 613.62305 C 273.7073 611.67159 273.74711 608.70924 274.33203 606.83398 C 275.07435 604.45447 276.06303 603.23896 277.41406 603.18164 z M 277.47461 608.6582 C 277.37772 608.65277 277.29188 608.67547 277.2207 608.72852 C 276.25896 609.4453 276.37357 612.02915 277.41406 613.09766 C 278.39318 614.10321 279.71199 612.81853 279.48438 611.08008 C 279.34955 610.05095 278.15281 608.69621 277.47461 608.6582 z M 272.2832 615.46094 C 272.566 615.44039 272.91245 615.81373 273.42773 616.45703 C 274.0505 617.23454 274.57902 618.20215 274.74414 618.86719 C 275.36852 621.38178 279.08204 627.44307 281.55273 629.98047 C 282.36906 630.81883 282.88489 631.54568 282.92188 631.9082 C 282.95405 632.22822 282.62202 633.53793 282.18359 634.81836 L 281.38672 637.14648 L 280.875 636.61914 C 279.92733 635.64591 276.4337 629.71403 275.17773 626.94336 C 274.49311 625.43305 273.86176 624.21403 273.77344 624.23438 C 273.68514 624.25505 273.45578 625.16403 273.26367 626.25586 C 272.62103 629.9084 272.68676 629.77766 271.68359 629.42188 C 270.52633 629.01141 269.4073 627.86781 269.25391 626.9375 C 269.18831 626.53978 269.36358 625.48191 269.64258 624.58594 C 269.92156 623.68992 270.49377 621.36401 270.91406 619.41797 C 271.51761 616.62329 271.81187 615.49518 272.2832 615.46094 z M 270.79102 633.73242 C 270.95564 633.73923 271.12 633.7715 271.28516 633.83008 C 272.6654 634.31968 274.09581 635.80556 274.33398 636.99805 C 274.55209 638.09029 273.95282 641.87269 273.11719 644.67773 C 272.816 645.68874 272.59284 646.64708 272.61914 646.80664 C 272.64544 646.96618 273.04227 647.0084 273.50195 646.90234 C 274.83865 646.59414 275.57233 644.98345 275.85742 641.72461 C 276.16304 638.23128 276.52915 637.86195 278.09375 639.46875 L 279.17383 640.57812 L 279.00391 642.33984 C 278.64655 646.04511 277.4225 649.62408 275.89453 651.42578 C 272.8995 654.95735 267.1479 650.61991 266.52148 644.35742 C 266.00096 639.15364 268.32166 633.63036 270.79102 633.73242 z M 271.24609 638.75977 C 271.10532 638.71477 270.92494 638.7253 270.69922 638.77734 C 268.9461 639.18157 268.59077 644.12077 270.28906 644.48047 C 270.90369 644.61062 271.15654 643.89828 271.54492 640.92773 C 271.72918 639.51832 271.66841 638.89474 271.24609 638.75977 z M 261.51953 646.72656 C 261.88039 646.78276 262.34827 647.15677 263.05664 647.77539 C 264.18229 648.75844 264.44744 649.12737 264.65625 650.00586 L 264.90625 651.05859 L 263.91406 652.11914 C 263.08173 653.00928 262.88531 653.39557 262.6875 654.51562 C 262.35121 656.42001 262.70428 657.94533 263.79688 659.32031 L 264.70703 660.4668 L 264.42773 659.30664 C 264.04221 657.70983 264.38327 655.17529 265.16406 653.83789 C 265.99495 652.41469 266.95039 652.02651 268.37695 652.53516 C 269.42948 652.91042 269.69356 653.14565 270.75977 654.65039 C 272.13495 656.59116 272.72928 658.56012 272.69336 661.06055 C 272.66356 663.12647 271.38113 666.21855 270.07617 667.36914 C 268.99373 668.3235 268.261 668.2844 266.63672 667.18164 C 263.21334 664.8575 261.10571 662.39388 259.84961 659.25 C 258.63762 656.2166 258.67471 653.64655 259.99219 649.41797 C 260.61437 647.42103 260.9181 646.6329 261.51953 646.72656 z M 252.75391 656.5625 C 253.26184 656.44543 254.78143 658.06048 255.20508 659.16797 C 255.48294 659.8944 255.43737 660.08434 254.64258 661.50977 C 253.524 663.51589 253.48404 664.83958 254.51562 665.70898 L 255.19922 666.28516 L 256.11133 664.16406 L 257.02344 662.04492 L 258.18164 663.31641 C 259.71059 664.99531 259.78795 665.45606 258.90039 667.51953 L 258.17773 669.20117 L 261.44336 672.29688 C 265.4005 676.04776 265.51828 676.27285 265.11523 679.33008 C 264.79262 681.77706 264.4076 682.90019 263.84766 683.0293 C 263.57279 683.0927 262.34292 681.97405 259.65234 679.21094 L 255.8457 675.30078 L 255.11719 676.99805 L 254.38672 678.69336 L 253.31836 677.5957 C 251.84655 676.08419 251.603 675.11266 252.25391 673.33789 C 252.73792 672.0182 252.73584 671.89737 252.19141 671.24414 C 250.53051 669.25063 249.76458 667.76977 249.57227 666.17773 C 249.4654 665.29298 249.45801 664.15126 249.55664 663.64062 C 249.87224 662.01144 252.28485 656.67065 252.75391 656.5625 z M 268.13477 657.76172 C 267.06882 657.62454 266.60884 658.42521 266.75586 660.16602 C 266.87127 661.5355 267.77645 662.66216 268.79102 662.69727 C 269.68428 662.72847 270.09182 661.59078 269.80664 659.86133 C 269.52741 658.16796 269.32786 657.91526 268.13477 657.76172 z M 248.35547 676.93359 C 248.45802 676.89948 248.56936 676.91492 248.71289 676.94531 C 249.66923 677.14785 251.893 679.46485 252.05273 680.42578 C 252.17635 681.16987 252.11387 681.29463 251.18555 682.13281 C 249.94213 683.25572 249.54506 684.15212 249.55273 685.82617 C 249.55973 687.33561 249.78968 688.01753 250.76953 689.42383 L 251.47852 690.43945 L 251.28125 688.8125 C 250.76297 684.52233 253.53797 681.33595 256.24805 683.10938 C 258.36878 684.49712 259.8144 687.27201 259.89844 690.11719 C 259.95974 692.17402 259.01305 694.9737 257.84375 696.19531 C 256.0375 698.08233 255.16808 698.0821 252.49805 696.1875 C 247.88403 692.91382 245.28451 688.09751 245.86914 683.90625 C 245.99922 682.97377 246.55792 680.99692 247.10938 679.51367 C 247.82704 677.5834 248.04782 677.03594 248.35547 676.93359 z M 255.27734 687.79102 C 255.15431 687.77463 255.02993 687.77679 254.9043 687.79883 C 253.24478 688.09 253.33123 691.72066 255.01367 692.40039 C 256.43056 692.97279 257.17101 692.15456 257.00586 690.19922 C 256.89747 688.91644 256.13855 687.90571 255.27734 687.79102 z M 242.7793 691.79492 C 243.32349 691.79616 243.90909 691.94782 244.55469 692.24023 C 246.75095 693.23499 249.54179 695.83785 251.26367 698.49609 C 253.33832 701.69892 253.39737 703.16342 251.64062 707.86328 C 250.92249 709.78456 250.56355 710.41474 249.68945 711.28125 C 247.48678 713.46485 245.50588 713.07907 241.89844 709.76367 C 239.69572 707.73925 237.98194 705.24806 237.41602 703.25 C 236.99299 701.75653 237.50494 698.71837 238.61719 696.12891 C 239.89917 693.14437 241.14672 691.7912 242.7793 691.79492 z M 244.12109 697.86914 C 242.84182 697.72575 241.84098 698.83344 241.68555 700.83398 C 241.58429 702.13764 242.16609 703.28373 243.75391 704.9043 C 245.085 706.2629 246.62105 707.04651 247.2207 706.67188 C 248.29793 705.99882 249.16873 703.66241 248.86523 702.25977 C 248.64742 701.25307 247.3804 699.82902 245.47266 698.44336 C 245.0056 698.10415 244.54753 697.91694 244.12109 697.86914 z M 234.61914 705.07031 C 234.69596 705.06558 234.77618 705.0753 234.86328 705.09375 C 235.57618 705.24472 236.73428 707.19118 237.11133 708.86914 C 237.60564 711.06883 240.82352 716.30079 243.67578 719.54297 C 244.64924 720.64954 244.65269 720.66488 244.25977 721.67773 C 244.04217 722.23871 243.56656 723.17216 243.20117 723.75391 C 242.83578 724.33564 242.3717 724.84998 242.16992 724.89648 C 241.6075 725.02613 238.12063 719.32412 236.66406 715.89258 C 235.99383 714.3136 235.35818 713.04155 235.25195 713.06641 C 235.1457 713.09121 234.65992 714.12212 234.17383 715.35742 C 233.31444 717.54143 233.27223 717.59724 232.60547 717.39258 C 231.53805 717.06496 230.02957 715.79533 229.86719 715.08789 C 229.75295 714.59039 230.10514 713.64077 231.66406 710.25781 C 233.67112 705.90239 234.08139 705.10346 234.61914 705.07031 z M 229.8125 719.06445 C 229.92683 719.18185 230.55615 721.04348 231.21094 723.20117 L 232.40234 727.125 L 233.93164 727.45117 C 234.7735 727.63124 236.43462 727.96056 237.62305 728.18359 C 238.81151 728.40663 239.82852 728.71541 239.88281 728.86914 C 240.00025 729.20157 239.8726 729.4643 238.35742 731.99219 C 237.12456 734.04917 236.16267 734.66173 235.12695 734.05273 C 234.84332 733.88596 234.1657 733.5916 233.62109 733.39844 L 232.63086 733.04688 L 233.54492 734.97266 C 234.90753 737.84846 234.91056 737.79053 233.24023 740.49023 C 232.45453 741.76017 231.73213 742.81783 231.63672 742.83984 C 231.54132 742.86204 230.83563 741.01657 230.06641 738.73828 C 229.29717 736.45996 228.51488 734.43979 228.33008 734.25 C 227.96448 733.87453 225.74591 733.26841 223.49609 732.92969 C 222.71499 732.81211 221.99053 732.62811 221.88672 732.52148 C 221.703 732.33281 223.58932 728.28024 224.2168 727.51562 C 224.39223 727.30189 225.42194 727.49027 226.67969 727.96484 L 228.8418 728.7793 L 227.79492 726.36328 L 226.74805 723.94727 L 227.25781 722.76367 C 227.96524 721.119 229.5618 718.80695 229.8125 719.06445 z M 218.0625 734.68359 C 219.64208 734.66684 221.51362 735.74085 223.82422 737.87109 C 225.17824 739.11942 226.01659 740.11483 226.81641 741.42383 C 228.25962 743.78589 228.53029 744.71536 228.2207 746.25977 C 227.84418 748.138 226.666 751.30278 226.0293 752.14648 C 224.99948 753.51113 223.03413 754.89071 222.0918 754.91016 C 220.35361 754.94606 218.7246 753.92847 215.94727 751.07617 C 213.62527 748.69151 213.35214 748.3238 212.71484 746.7168 C 211.83683 744.50281 211.89912 743.44437 213.10352 740.2207 C 214.48322 736.52782 216.03162 734.70514 218.0625 734.68359 z M 218.875 740.52734 C 217.74961 740.65309 216.84818 741.6578 216.72461 743.24805 C 216.62398 744.54374 217.2612 745.79758 218.83008 747.39062 C 221.15386 749.7502 222.66603 749.64502 223.80664 747.04688 C 224.2682 745.99547 224.33296 745.54766 224.125 744.82812 C 223.84179 743.84821 222.50368 742.36968 220.74805 741.0957 C 220.2875 740.76151 219.81796 740.5775 219.36914 740.52734 C 219.20083 740.50854 219.03577 740.50938 218.875 740.52734 z " />
</svg>
