<?xml version="1.0" encoding="UTF-8" standalone="no"?>
<!-- Created with Inkscape (http://www.inkscape.org/) -->

<svg
   xmlns:dc="http://purl.org/dc/elements/1.1/"
   xmlns:cc="http://creativecommons.org/ns#"
   xmlns:rdf="http://www.w3.org/1999/02/22-rdf-syntax-ns#"
   xmlns:svg="http://www.w3.org/2000/svg"
   xmlns="http://www.w3.org/2000/svg"
   xmlns:sodipodi="http://sodipodi.sourceforge.net/DTD/sodipodi-0.dtd"
   xmlns:inkscape="http://www.inkscape.org/namespaces/inkscape"
   version="1.1"
   id="svg2"
   width="6826.6665"
   height="2645.3333"
   viewBox="0 0 6826.6665 2645.3333"
   sodipodi:docname="all_coeur.svg"
   inkscape:version="0.92.1 r15371">
  <metadata
     id="metadata8">
    <rdf:RDF>
      <cc:Work
         rdf:about="">
        <dc:format>image/svg+xml</dc:format>
        <dc:type
           rdf:resource="http://purl.org/dc/dcmitype/StillImage" />
        <dc:title></dc:title>
      </cc:Work>
    </rdf:RDF>
  </metadata>
  <defs
     id="defs6">
    <filter
       style="color-interpolation-filters:sRGB;"
       inkscape:label="Invert"
       id="filter304">
      <feColorMatrix
         type="hueRotate"
         values="180"
         result="color1"
         id="feColorMatrix300" />
      <feColorMatrix
         values="-1 0 0 0 1 0 -1 0 0 1 0 0 -1 0 1 -0.21 -0.72 -0.07 2 0 "
         result="fbSourceGraphic"
         id="feColorMatrix302" />
      <feColorMatrix
         result="fbSourceGraphicAlpha"
         in="fbSourceGraphic"
         values="0 0 0 -1 0 0 0 0 -1 0 0 0 0 -1 0 0 0 0 1 0"
         id="feColorMatrix306" />
      <feColorMatrix
         id="feColorMatrix308"
         type="hueRotate"
         values="180"
         result="color1"
         in="fbSourceGraphic" />
      <feColorMatrix
         id="feColorMatrix310"
         values="-1 0 0 0 1 0 -1 0 0 1 0 0 -1 0 1 -0.21 -0.72 -0.07 2 0 "
         result="fbSourceGraphic" />
      <feColorMatrix
         result="fbSourceGraphicAlpha"
         in="fbSourceGraphic"
         values="0 0 0 -1 0 0 0 0 -1 0 0 0 0 -1 0 0 0 0 1 0"
         id="feColorMatrix312" />
      <feColorMatrix
         id="feColorMatrix314"
         type="hueRotate"
         values="180"
         result="color1"
         in="fbSourceGraphic" />
      <feColorMatrix
         id="feColorMatrix316"
         values="-1 0 0 0 1 0 -1 0 0 1 0 0 -1 0 1 -0.21 -0.72 -0.07 2 0 "
         result="color2" />
    </filter>
  </defs>
  <sodipodi:namedview
     pagecolor="#ffffff"
     bordercolor="#666666"
     borderopacity="1"
     objecttolerance="10"
     gridtolerance="10"
     guidetolerance="10"
     inkscape:pageopacity="0"
     inkscape:pageshadow="2"
     inkscape:window-width="1366"
     inkscape:window-height="723"
     id="namedview4"
     showgrid="false"
     inkscape:zoom="0.22031251"
     inkscape:cx="1080.7907"
     inkscape:cy="752.34597"
     inkscape:window-x="0"
     inkscape:window-y="26"
     inkscape:window-maximized="1"
     inkscape:current-layer="svg2"
     inkscape:pagecheckerboard="true" />
  <path
     style="fill:#000000;stroke-width:1.33333325;filter:url(#filter304)"
     d="m 2077.7231,2534.1737 c -87.2515,-26.5064 -147.0873,-45.3381 -149.2959,-46.9872 l -3.686,-2.752 12.2465,-57.8839 c 20.8719,-98.6532 54.5077,-295.038 57.9853,-338.5506 2.4939,-31.2047 2.0687,-118.0651 -0.7212,-147.3334 -7.3901,-77.5277 -19.5349,-132.031 -36.9936,-166.0193 -12.7677,-24.8561 -19.1186,-30.3379 -41.4945,-35.8152 -24.2567,-5.9379 -31.1113,-4.3683 -138.6279,31.7415 -34.7246,11.6624 -118.0358,40.1049 -185.1358,63.2056 -67.1,23.1006 -152.9,52.5036 -190.6667,65.3397 -114.5337,38.9276 -289.5228,98.6333 -483.33332,164.9116 -101.2,34.6079 -221.8,75.7061 -268,91.3296 -99.72741,33.7248 -122.04801,41.4725 -185.33332,64.3312 -70.6073,25.5032 -138.70787,48.4555 -180.66667,60.8909 -13.56666,4.0207 -30.6956,9.4138 -38.06429,11.9846 -15.46516,5.3953 -30.47868,9.5454 -58.60237,16.1992 -16.69627,3.95 -23.42177,4.8604 -40.71456,5.5113 -24.79659,0.9332 -37.11389,-0.5999 -56.048396,-6.9764 -28.27647,-9.5225 -44.98862,-19.7504 -60.005971,-36.7233 -12.981545,-14.6722 -17.614362,-21.2835 -21.7765449,-31.0768 -6.3374715,-14.9115 -2.9288942,-16.5456 11.5314589,-5.5286 31.981,24.3658 76.981131,34.724 121.680683,28.009 18.42432,-2.7678 55.95937,-12.2451 89.47946,-22.593 35.66764,-11.0108 248.30049,-94.6389 357.85386,-140.7433 42.16666,-17.7453 216.76666,-90.6469 387.99999,-162.0033 C 1270.4035,1814.513 1418.952,1752.5492 1504,1716.9536 c 20.1666,-8.4406 76.5666,-31.8519 125.3333,-52.0252 128.1861,-53.0268 220.9967,-91.8195 260.6667,-108.9527 72.0166,-31.1036 90.804,-37.4311 119.3333,-40.1909 12.7957,-1.2379 17.2761,-1.1391 27.0724,0.5965 21.4129,3.794 44.1781,17.7405 69.0234,42.2853 14.92,14.7398 17.9608,18.8434 78.5426,106 34.6617,49.8667 63.7585,91.4558 64.6594,92.4203 1.3252,1.4188 3.469,-0.7449 11.2282,-11.3333 5.2745,-7.1979 15.4522,-22.087 22.6169,-33.087 43.7456,-67.1628 87.8005,-100.0284 130.8571,-97.621 14.3532,0.8024 34.8993,6.3086 48.7188,13.0564 12.369,6.0394 29.0697,18.9362 40.0317,30.9138 8.9775,9.8094 27.2495,33.8939 27.2495,35.918 0,0.7756 7.0136,14.3828 15.5858,30.2382 8.5722,15.8554 17.349,32.128 19.504,36.1613 2.1551,4.0333 4.9364,8.8333 6.181,10.6667 1.2444,1.8333 3.6364,6.3333 5.3153,10 4.4881,9.8016 161.0635,301.5029 166.0396,309.3333 2.3301,3.6667 5.8135,9.8159 7.7407,13.6648 10.3049,20.5809 63.8104,114.3731 69.9249,122.5745 15.3748,20.6227 35.1091,35.5706 54.3753,41.187 11.2108,3.2681 28.5302,3.2637 38.6667,-0.013 4.4,-1.4209 26.3,-11.8376 48.6667,-23.1478 22.3666,-11.3104 46.5041,-23.497 53.6389,-27.0814 14.5027,-7.2858 13.5791,-5.3005 8.3061,-17.8538 -0.924,-2.2 -2.5829,-6.7 -3.6862,-10 -1.8982,-5.6764 -3.0296,-8.5943 -6.9804,-18 -0.924,-2.2 -2.6136,-6.7 -3.7547,-10 -1.1411,-3.3 -3.9508,-11.1 -6.2439,-17.3334 -3.7388,-10.1637 -9.916,-28.5676 -17.2294,-51.3333 -3.7767,-11.7559 -10.5203,-36.4544 -12.8047,-46.8977 -17.2897,-79.0376 -20.7487,-111.585 -20.7341,-195.1023 0.013,-45.0453 3.0957,-71.0821 14.0736,-118.6667 6.321,-27.3993 10.4977,-41.528 17.7373,-60 16.1324,-41.1625 36.7027,-72.6566 67.5465,-103.417 29.2616,-29.1824 49.959,-43.1447 104.7976,-70.6962 31.1175,-15.6336 33.8043,-16.8921 45.3334,-21.2341 3.3,-1.2429 6.9,-2.7015 8,-3.2415 1.1,-0.5398 5.6,-2.0421 10,-3.3384 4.4,-1.2962 10.1438,-3.1456 12.7641,-4.1096 24.3513,-8.9593 88.2449,-21.6801 131.2359,-26.1282 23.8453,-2.4672 77.5387,-2.1128 98.6666,0.6513 75.0931,9.824 132.2855,35.362 185.132,82.6665 11.0801,9.918 43.8956,45.893 51.2477,56.1818 0.5246,0.734 2.7532,3.734 4.9527,6.6666 25.5459,34.0611 44.302,73.5158 57.9964,121.9988 0.7251,2.5667 3.7652,12.7667 6.756,22.6667 5.2045,17.2279 16.7349,62.9553 19.9007,78.9223 l 1.5046,7.5889 22.9216,-11.8824 c 12.607,-6.5352 66.1216,-34.2672 118.9216,-61.6265 l 96,-49.7444 -0.08,-80.629 c -0.044,-44.3458 -0.5918,-142.7289 -1.2172,-218.6289 -1.4012,-170.0543 -1.4204,-186.5092 -0.3666,-313.3333 0.8114,-97.66045 3.4644,-233.31873 4.5881,-234.61824 0.2941,-0.34001 65.1564,-0.8442 144.1387,-1.1204 129.2534,-0.452 144.1013,-0.28946 148.5806,1.62636 3.1486,1.34667 5.2676,3.28814 5.769,5.28539 0.4357,1.73628 -1.682,151.88259 -4.706,333.65849 -3.0242,181.776 -5.3202,336.6024 -5.1023,344.0588 l 0.396,13.5572 359.8303,-191.1652 c 197.9066,-105.1409 360.0883,-191.4233 360.4038,-191.7388 0.3155,-0.3154 2.032,-40.9918 3.8145,-90.3919 6.5183,-180.6411 19.7028,-484.83331 22.6279,-522.06811 l 0.7528,-9.58306 -85.048,42.06838 c -46.7764,23.13762 -132.748,65.75672 -191.048,94.70912 -58.3,28.9524 -110.2,54.31449 -115.3333,56.3602 -16.0043,6.37793 -49.9704,16.9264 -66.262,20.57819 -24.1531,5.41398 -41.2355,7.39922 -63.8967,7.42581 -60.5245,0.0709 -98.2861,-19.39807 -138.7058,-71.51356 -3.4999,-4.51255 -6.9082,-8.41255 -7.574,-8.66667 -1.6048,-0.61237 -28.8996,-37.28671 -49.4644,-66.46201 -9.0458,-12.83333 -19.0682,-26.15762 -22.272,-29.60954 -3.2038,-3.45192 -5.8251,-6.92386 -5.8251,-7.7154 0,-0.79156 -14.2031,-20.46727 -31.5623,-43.72379 -17.3592,-23.25653 -32.1708,-43.88169 -32.9146,-45.83368 -1.1426,-2.99851 -0.7968,-4.27731 2.2281,-8.2432 4.4427,-5.82475 8.0371,-7.09 12.2672,-4.31829 2.3497,1.53961 6.5461,2.11057 15.5119,2.11057 10.8285,0 14.1461,-0.63144 27.8881,-5.30813 83.1777,-28.30706 303.9264,-139.78579 595.9149,-300.93884 31.1667,-17.20137 61.2797,-34.38272 66.9177,-38.18079 5.6382,-3.79806 17.9382,-11.37689 27.3334,-16.84185 9.3953,-5.46495 21.5822,-13.15557 27.0822,-17.090262 18.049,-12.912174 64.4006,-42.410291 77.3334,-49.214885 3.3,-1.736293 8.9094,-4.959717 12.4656,-7.163166 3.5561,-2.203448 10.1561,-5.548572 14.6666,-7.433609 4.5106,-1.885036 9.2556,-4.364642 10.5444,-5.510232 7.2175,-6.415483 28.7628,3.097962 39.6384,17.50257 11.317,14.989137 17.8442,33.633468 23.4022,66.845864 3.07,18.34475 6.3237,31.15508 14.152,55.71843 0.964,3.0249 6.9972,11.24352 15.037,20.48412 36.7059,42.18777 64.1987,83.53814 76.5474,115.13078 5.4716,13.9986 8.2146,27.81776 8.1805,41.21328 -0.056,21.72934 -4.5645,33.66275 -18.1707,48.08904 -9.3313,9.89379 -17.6884,15.31949 -35.274,22.90105 -16.1828,6.97682 -30.1482,16.54231 -37.1534,25.44808 -3.0766,3.91114 -4.7671,12.37123 -14.0047,70.08442 -24.1927,151.14878 -42.7279,326.94771 -51.9713,492.93077 -4.1316,74.188 -3.9904,66.5041 -1.2039,65.528 2.362,-0.8275 2.3663,-0.7816 0.092,0.9871 -2.0363,1.5835 -2.3289,3.6225 -2,13.9319 l 0.3853,12.0769 95.3334,-50.6812 c 114.5952,-60.9212 155.0402,-81.92656 252,-130.87742 40.7,-20.5477 74.9,-38.09756 76,-38.99971 4.8032,-3.93919 53.8161,-30.31157 80.6666,-43.40421 27.9842,-13.6454 76.654,-34.96959 88,-38.55624 2.9334,-0.92728 5.9543,-2.1741 6.7132,-2.77071 3.543,-2.7854 36.4515,-13.11323 56.7934,-17.82373 16.847,-3.90122 55.9609,-10.53228 76.4934,-12.96811 21.5495,-2.55648 72.1372,-2.16884 92,0.70497 35.9443,5.20054 65.429,13.91787 99.2583,29.34627 24.5635,11.20252 38.4416,19.18161 55.3783,31.83912 13.0141,9.72599 38.7121,33.85789 46.0478,43.24165 l 3.3156,4.24124 78.6667,-4.66682 78.6666,-4.66682 56,23.94926 56,23.94926 0.3923,26.47633 0.3923,26.47632 160.396,106.85945 160.396,106.8594 0.8722,15.1406 c 0.4799,8.3273 0.8752,37.8034 0.8786,65.5025 v 50.3619 l -3,1.2698 c -1.65,0.6984 -14.3655,3.101 -28.2564,5.339 -13.8911,2.238 -25.2947,4.2038 -25.3412,4.3683 -0.047,0.1645 0.2438,11.099 0.6454,24.299 0.4016,13.2 0.5774,24.2278 0.3907,24.506 -0.1867,0.2783 -23.3117,6.7567 -51.3889,14.3963 -28.0774,7.6396 -58.8348,16.0164 -68.3502,18.6152 -9.5152,2.5987 -18.9176,5.5611 -20.8941,6.5832 -7.0975,3.6703 -13.4383,0.9675 -35.6692,-15.2045 -15.7913,-11.4876 -21.4295,-14.891 -24.6399,-14.8734 -2.2896,0.013 -16.1629,1.4699 -30.8296,3.2386 -14.6666,1.7686 -35.3813,3.9389 -46.0326,4.8228 l -19.366,1.607 -170.7,-134.6181 c -93.8794,-74.0365 -175.318,-138.3634 -180.9692,-142.9452 l -10.2749,-8.3304 0.3408,-112.23034 0.3409,-112.2303 8.6667,-0.66667 8.6666,-0.66667 -14,-6.50862 c -62.3222,-28.97368 -144.6044,-37.54851 -217.9652,-22.71464 -19.1121,3.86457 -114.313,39.31742 -140.1134,52.1783 -8.6138,4.29374 -125.7426,68.08349 -127.9214,69.66747 -0.7333,0.53313 -7.1814,4.07202 -14.3292,7.86418 -7.1477,3.79216 -15.5477,8.30546 -18.6666,10.02954 -3.119,1.72408 -25.1708,13.78292 -49.0042,26.79745 -23.8333,13.0145 -46.3333,25.3105 -50,27.3244 -3.6666,2.0139 -24.0666,13.1164 -45.3333,24.6723 -21.2667,11.5559 -55.1667,30.0098 -75.3333,41.0086 -20.1667,10.9988 -40.5667,22.1012 -45.3334,24.672 -4.7666,2.5708 -9.2666,5.1088 -10,5.6401 -0.7333,0.5312 -5.8333,3.3794 -11.3333,6.3293 -5.5,2.95 -12.1,6.5272 -14.6667,7.9493 -2.5666,1.4222 -25.1449,13.897 -50.1738,27.7217 l -45.5072,25.1358 -1.0028,44.7831 c -1.4622,65.2987 -1.1147,259.8408 0.5801,324.783 3.2349,123.9567 7.8935,236.6402 14.2188,343.9284 1.8568,31.4939 3.0369,58.6124 2.6227,60.2632 -0.4196,1.6716 -8.2816,9.361 -17.7455,17.3558 -9.3457,7.8948 -26.5923,22.5302 -38.3256,32.523 -56.7059,48.2944 -58.8293,49.7419 -72.9169,49.7072 -13.7422,-0.033 -26.0964,-7.5664 -28.6507,-17.4686 -2.3143,-8.9719 -0.3911,-367.6983 2.9539,-550.9756 0.68,-37.2602 2.6544,-89.7579 7.4105,-197.047 0.8545,-19.2759 1.3248,-35.2651 1.0451,-35.5317 -0.4363,-0.4159 -13.6888,6.6644 -45.1752,24.1355 -32.2196,17.878 -87.7166,48.3092 -174.6667,95.7766 -105.3154,57.4936 -141.9121,77.5502 -174,95.3599 -38.6757,21.4661 -87.4482,48.1852 -200.6666,109.9316 -64.1667,34.9948 -117.083,64.0201 -117.5916,64.5009 -0.7235,0.6838 -4.7186,219.5258 -6.3444,347.5408 -0.6258,49.2654 6.6176,89.245 19.9264,109.9851 5.6816,8.8539 14.7222,16.8901 23.7761,21.1344 7.0697,3.3141 8.7932,3.5464 26.2335,3.5344 15.3626,-0.013 20.5546,-0.5488 29.3333,-3.0411 62.9657,-17.8753 143.1437,-69.7409 235.3333,-152.2324 23.8334,-21.326 67.0166,-59.3109 95.9626,-84.4109 36.919,-32.0135 64.5806,-57.418 92.6666,-85.1057 22.0207,-21.7082 41.4519,-40.2138 43.1807,-41.1235 8.401,-4.4208 6.674,-0.7647 -36.1798,76.5931 -152.0627,274.497 -291.321,454.5373 -413.6301,534.7622 -95.0232,62.3275 -176.8893,65.5548 -260.4513,10.2675 -48.2821,-31.9451 -86.132,-78.0853 -106.8335,-130.2336 -6.7853,-17.0929 -5.6174,-16.7765 -19.4262,-5.2612 -167.289,139.5055 -314.6459,224.4151 -444.9398,256.3819 -45.9013,11.2617 -82.175,15.4373 -124.3492,14.3146 -29.234,-0.7784 -45.1894,-2.5872 -71.9999,-8.1626 -8.8,-1.83 -24.2755,-4.8674 -34.3899,-6.7499 -74.17,-13.8039 -138.3385,-49.1187 -194.1692,-106.8599 -9.1075,-9.4192 -24.726,-25.5257 -34.7077,-35.7924 -20.6382,-21.2273 -33.0084,-34.7977 -39.1598,-42.9588 -2.3321,-3.094 -4.772,-5.644 -5.4221,-5.6666 -1.2847,-0.045 -233.1497,109.7773 -281.7075,133.4298 -16.405,7.991 -30.1518,14.529 -30.5482,14.529 -0.3966,0 -21.7206,9.9336 -47.3867,22.0745 -29.3364,13.8772 -50.4293,23.0372 -56.8005,24.6667 -12.5991,3.2224 -32.0667,3.4342 -43.516,0.4737 -9.6176,-2.4868 -24.3123,-9.6076 -33.025,-16.0033 -11.0441,-8.1072 -29.5237,-28.905 -44.3778,-49.9448 -7.999,-11.33 -16.999,-23.896 -20,-27.9243 -3.001,-4.0283 -11.4563,-16.0629 -18.7896,-26.7437 -22.2044,-32.3402 -189.1686,-269.208 -189.5156,-268.8611 -0.4819,0.482 -93.2239,413.5117 -95.1144,423.5956 -1.7988,9.5952 -4.6588,17.4027 -6.302,17.2045 -0.5874,-0.071 -66.5926,-20.0348 -146.6782,-44.3641 z m 1560.9435,-151.5621 c 51.984,-4.6764 113.9621,-23.2288 162,-48.493 94.2514,-49.5688 176.5029,-113.5908 219.22,-170.634 14.6081,-19.5072 13.9172,-16.0524 12.9277,-64.6377 -0.898,-44.0879 -1.5276,-69.6536 -2.9765,-120.8469 -0.4774,-16.8667 -1.2362,-61.3348 -1.6863,-98.818 l -0.8183,-68.1514 -44.6666,23.2003 c -24.5667,12.7601 -58.1667,30.1612 -74.6667,38.6692 -16.5,8.5079 -34.2,17.7113 -39.3333,20.4521 -11.8083,6.3046 -93.1359,48.4563 -214.6667,111.2611 -52.0667,26.9069 -95.2667,49.6732 -96,50.5915 -0.7333,0.9182 -24.1333,14.1621 -52,29.4306 -123.0233,67.4062 -159.4593,87.2982 -171.1661,93.447 -6.8747,3.6109 -12.764,7.2546 -13.0873,8.0973 -0.9556,2.4903 9.8057,22.6251 21.2825,39.8203 31.4444,47.1117 67.5895,83.9134 106.6748,108.6129 17.6222,11.1361 54.2477,28.1409 76.3552,35.4508 35.8061,11.8393 73.6305,16.0541 112.6076,12.5479 z m -224.6667,-371.1924 c 73.3333,-38.5995 150.9067,-79.0095 172.3851,-89.8 32.7152,-16.4358 39.1873,-20.1555 39.8877,-22.924 1.2153,-4.8048 -1.6412,-28.5122 -4.7429,-39.3619 -1.4675,-5.1333 -3.914,-15.8239 -5.4367,-23.7567 -2.9549,-15.3946 -13.2391,-43.2652 -23.5376,-63.7881 -29.2408,-58.2709 -66.5415,-94.7828 -113.8889,-111.4807 -21.8562,-7.708 -30.9759,-8.9796 -64,-8.9242 -34.2039,0.057 -45.9883,1.6854 -68.2248,9.4254 -89.74,31.2366 -132.3601,95.9095 -128.6325,195.191 2.0138,53.6385 16.0668,113.6998 43.5272,186.0325 10.3221,27.1893 16.3634,40.7792 17.8569,40.1692 0.8103,-0.3309 61.4732,-32.1831 134.8065,-70.7825 z m 3235.3333,-637.8936 c 29.7,-8.0384 56.4642,-15.2702 59.476,-16.0706 l 5.4761,-1.4552 1.2087,-13.3332 c 0.8216,-9.0617 0.7677,-13.3333 -0.1682,-13.3333 -0.7573,0 -29.554,5.4 -63.9926,12 -34.4387,6.6 -63.0772,12 -63.6412,12 -0.564,0 -1.0255,8.3516 -1.0255,18.5592 v 18.5592 l 4.3333,-1.1555 c 2.3834,-0.6354 28.6334,-7.7322 58.3334,-15.7706 z M 6568.6692,1369 c 1.2013,-16.1338 0.696,-20.0422 -2.7082,-20.9474 -1.488,-0.3956 -4.788,-2.2736 -7.3333,-4.1732 -2.5453,-1.8997 -6.9392,-4.8365 -9.764,-6.5262 l -5.1363,-3.0724 0.566,15.5416 0.5659,15.5414 6.0836,3.8582 c 3.346,2.122 6.3027,4.3761 6.5703,5.009 0.6396,1.5127 7.887,7.1023 9.2086,7.1023 0.566,0 1.4424,-5.55 1.9474,-12.3333 z m -74.0643,-9.0699 c 18.6661,-2.1921 34.3389,-4.6335 34.8283,-5.4253 0.4894,-0.7919 1.2974,-6.0294 1.7956,-11.639 0.4982,-5.6096 1.7416,-13.8399 2.7629,-18.2896 1.3565,-5.9097 1.8624,-18.5538 1.8768,-46.9071 l 0.02,-38.8167 -4.2775,0.7027 c -2.3526,0.3865 -9.9776,1.6948 -16.9442,2.9072 l -12.6667,2.2044 -0.6667,47.6006 c -0.6768,48.3208 -1.2748,53.6579 -5.5348,49.3979 -2.8646,-2.8647 -3.6394,-14.253 -3.719,-54.6652 -0.063,-31.9297 -0.4366,-40.3333 -1.7934,-40.3333 -1.6688,0 -29.289,4.7426 -35.2861,6.059 l -3,0.6584 v 55.8908 55.8908 l 4.3333,-0.6251 c 2.3834,-0.3437 19.6056,-2.4185 38.2718,-4.6105 z m -60.0221,-56.2634 -0.084,-56.3334 -129.4195,-100.6666 c -71.1808,-55.3667 -130.0875,-101.7167 -130.9037,-103 -0.8164,-1.2834 -2.5314,-2.3334 -3.8112,-2.3334 -2.1566,0 -2.3528,-3.0494 -2.6794,-41.63007 l -0.3518,-41.6301 -34.6221,-19.63661 c -19.0423,-10.80015 -34.88,-19.37878 -35.1952,-19.06366 -1.1751,1.17508 2.7869,177.32624 4.0176,178.62714 1.2652,1.3372 332.1735,261.7682 332.7997,261.9194 0.1833,0.044 0.2957,-25.2694 0.2496,-56.2527 z m 208.6608,21.6482 c 30.7508,-5.8802 56.1293,-10.9102 56.3968,-11.1776 0.8877,-0.8878 -13.5598,-12.804 -15.5239,-12.804 -1.5792,0 -116.7652,22.0875 -120.616,23.1287 -0.6412,0.1734 2.95,3.157 7.9804,6.6303 6.8557,4.7335 9.986,6.1397 12.4993,5.6146 1.8442,-0.3853 28.5127,-5.5117 59.2634,-11.392 z m -88.331,-16.6442 c 17.3946,-3.5595 16.0644,-2.8261 15.2174,-8.39 -0.4143,-2.721 -1.1022,-18.7364 -1.5286,-35.5897 -0.4262,-16.8533 -0.8861,-30.744 -1.0217,-30.8683 -0.7147,-0.6549 -19.9171,3.3179 -20.9047,4.325 -0.9262,0.9446 -2.6658,72.5239 -1.7624,72.52 0.1355,-6e-4 4.6355,-0.8992 10,-1.997 z m 37.7539,-7.3767 c 13.1196,-2.4233 13.0084,-2.3585 12.1696,-7.0899 -0.4099,-2.3123 -1.1116,-18 -1.5593,-34.8616 -0.4479,-16.8617 -1.006,-30.8494 -1.2404,-31.0838 -0.3786,-0.3785 -11.1814,1.2715 -20.8694,3.1876 l -3.4993,0.6921 0.406,16.2641 c 0.2233,8.9453 0.448,25.1256 0.4993,35.9562 l 0.093,19.6921 3,-0.6396 c 1.65,-0.3518 6.6,-1.3045 11,-2.1172 z m 147.4652,-6.9321 23.4652,-4.2798 0.8681,-25.9221 c 0.4775,-14.2572 0.8682,-33.6625 0.8682,-43.1228 v -17.2006 l -6.3334,0.8341 c -12.2512,1.6136 -13.6489,2.1129 -14.2836,5.1022 -0.3378,1.5916 -0.9608,17.2938 -1.3842,34.8938 -0.7915,32.8867 -1.5994,40.7557 -4.2762,41.648 -0.8481,0.2827 -2.3328,-0.8725 -3.299,-2.567 -1.3379,-2.3462 -1.7475,-11.7231 -1.7174,-39.3168 l 0.04,-36.2357 -6.7064,0.7559 c -3.6884,0.4157 -6.7886,0.8218 -6.8893,0.9024 -0.1,0.081 -0.8381,17.9147 -1.6388,39.6315 -0.8007,21.7167 -1.8324,40.4667 -2.2929,41.6666 -0.4604,1.2 -1.6519,2.1817 -2.6476,2.1817 -4.1715,0 -4.6892,-5.2421 -4.296,-43.4953 l 0.3917,-38.1189 -9.3333,0.8986 c -5.1334,0.4942 -10.0303,1.6074 -10.882,2.4737 -1.0428,1.0609 -1.8212,12.3444 -2.3835,34.5527 -0.7173,28.3305 -0.5655,32.874 1.0775,32.2435 1.1557,-0.4435 6.0554,2.9883 12.3836,8.6735 7.6033,6.831 11.2013,9.2257 13.1377,8.744 1.4667,-0.3648 13.226,-2.5893 26.1319,-4.9432 z m -110.4652,-0.4187 13,-2.4323 v -35.0888 c 0,-27.2263 -0.3735,-35.0702 -1.6667,-35.0059 -0.9166,0.046 -7.6666,1.1117 -15,2.3692 l -13.3333,2.2863 0.061,5.6308 c 0.033,3.097 0.1834,19.195 0.3334,35.7735 0.2122,23.4677 0.6417,30.005 1.9393,29.521 0.9167,-0.3418 7.5167,-1.7161 14.6667,-3.0538 z m 38.8848,-7.4527 8.5209,-1.57 0.5206,-34.127 c 0.2861,-18.7697 0.3864,-34.3353 0.2228,-34.59 -0.1638,-0.2547 -5.6796,0.2723 -12.2576,1.1713 -11.7406,1.6044 -11.9747,1.7077 -12.7591,5.6298 -0.4395,2.1975 -0.7991,18.0954 -0.7991,35.3287 v 31.3334 l 4.0152,-0.8031 c 2.2084,-0.4417 7.8498,-1.5096 12.5363,-2.3731 z m -203.4667,-59.2681 c 4.63,-0.5056 7.93,-1.4009 7.3334,-1.9893 -2.1371,-2.1078 -64.3011,-41.0162 -66.7972,-41.8085 -5.4508,-1.73 -6.9967,-12.7579 -1.7884,-12.7579 1.2756,0 10.6909,5.55 20.9226,12.3333 10.2318,6.7833 28.4343,18.823 40.4499,26.7548 l 21.8467,14.4215 12.1408,-1.4975 c 6.6774,-0.8237 12.9737,-1.7763 13.9917,-2.117 1.7055,-0.5708 -55.0297,-40.0124 -64.7564,-45.0179 -4.6044,-2.3695 -6.4251,-6.0184 -5.0945,-10.2106 1.3041,-4.1087 5.2544,-3.2059 13.6517,3.1201 4.2249,3.1827 14.5816,10.4901 23.0149,16.2386 8.4334,5.7486 22.7682,15.7707 31.8551,22.2715 l 16.5217,11.8195 11.3562,-1.7248 11.3561,-1.7249 -11.8779,-7.8519 c -6.5328,-4.3186 -21.1778,-14.2811 -32.5445,-22.1391 -11.3667,-7.8579 -22.5741,-15.268 -24.9055,-16.4668 -4.6042,-2.3675 -6.4252,-6.0164 -5.0945,-10.2088 0.8935,-2.8152 6.4988,-3.7624 7.9896,-1.3501 0.8272,1.3383 9.7705,7.8215 42.0104,30.4541 9.9,6.9499 21.8225,15.654 26.4945,19.3424 l 8.4944,6.7063 13.2714,-1.6563 c 18.2521,-2.2778 18.4448,-2.4192 10.1402,-7.4355 -3.8869,-2.3479 -18.1632,-11.6344 -31.725,-20.6367 -13.5619,-9.0023 -26.8683,-17.4955 -29.5698,-18.8737 -5.2217,-2.6639 -7.1544,-6.1963 -5.7724,-10.5505 1.1915,-3.7541 5.4259,-3.3327 11.1415,1.1088 2.6721,2.0765 16.2537,11.4796 30.1811,20.8956 13.9273,9.4161 29.5568,20.2516 34.732,24.0788 l 9.4094,6.9587 10.4538,-1.8179 c 5.7496,-0.9998 10.6472,-2.0111 10.8833,-2.2474 0.5488,-0.5487 -58.3536,-40.8721 -64.214,-43.9596 -4.7547,-2.505 -6.5937,-6.1283 -5.2537,-10.3504 1.324,-4.1714 5.1621,-3.1883 14.3161,3.6667 4.6516,3.4833 12.818,9.3333 18.1477,13 5.3296,3.6667 18.6218,13.1167 29.538,21 10.9163,7.8833 20.8826,14.3333 22.1471,14.3333 1.2647,0 6.1864,-0.6769 10.9373,-1.5042 7.1578,-1.2465 8.2047,-1.7436 6.1092,-2.901 -1.3908,-0.7681 -15.1288,-9.7539 -30.5288,-19.9682 -15.4,-10.2144 -30.2064,-19.6989 -32.903,-21.0768 -5.214,-2.6639 -7.1448,-6.1981 -5.7636,-10.5498 1.1905,-3.751 5.4224,-3.3336 11.1414,1.099 2.6722,2.0711 17.4586,12.3614 32.8586,22.8673 15.4,10.5059 30.2593,20.8691 33.0208,23.0295 4.7105,3.6851 5.514,3.8706 13.0024,3.0015 4.3898,-0.5095 8.2134,-1.3173 8.4969,-1.7951 0.5293,-0.8923 -59.7171,-40.0272 -66.0397,-42.8981 -6.5224,-2.9616 -8.3116,-13.3041 -2.3016,-13.3041 1.4661,0 4.5757,1.4486 6.9101,3.2192 2.3344,1.7706 20.3655,13.9436 40.0691,27.0512 l 35.8246,23.832 8.5087,-1.2716 c 8.1815,-1.2227 10.3791,-2.4675 6.842,-3.8756 -0.9167,-0.3649 -14.9312,-9.9695 -31.1435,-21.3436 -16.2121,-11.374 -31.3196,-21.633 -33.5721,-22.7978 -2.2525,-1.1648 -4.4784,-3.3244 -4.9464,-4.7992 -1.2344,-3.8891 0.4575,-8.0146 3.2867,-8.0146 1.3446,0 9.9697,5.55 19.1666,12.3334 9.197,6.7833 23.4659,17.1244 31.7087,22.9803 8.2428,5.8558 18.272,13.1978 22.2869,16.3155 6.6587,5.1705 7.7792,5.5942 12.7566,4.8232 3.001,-0.4649 6.4705,-1.2069 7.7097,-1.6488 2.3091,-0.8235 -55.9457,-40.4936 -112.9199,-76.8957 -52.7682,-33.7149 -104.6312,-67.2412 -138.8836,-89.78 l -34.8836,-22.95412 -7.783,1.33889 c -4.2807,0.73639 -12.4588,1.74519 -18.1735,2.24179 -5.7148,0.49659 -10.2148,1.38653 -10,1.97764 0.2147,0.5911 20.1904,17.059 44.3904,36.5953 24.2,19.5363 46.2303,38.012 48.9563,41.0572 l 4.9561,5.5367 -2.7392,2.9158 c -6.9788,7.4287 -9.4324,7.8753 -91.6052,16.6741 -62.8899,6.7342 -77.9716,7.9931 -78.8441,6.5813 -0.8391,-1.3576 -1.3815,-1.2053 -2.4391,0.6846 -1.208,2.1587 -1.6352,2.2138 -3.8223,0.4933 -1.3542,-1.0654 -21.676,-18.137 -45.1596,-37.937 -23.4836,-19.8 -43.6678,-36.7689 -44.8538,-37.7086 -1.7594,-1.3938 -5.5599,-1.3146 -20.6362,0.43 -10.1637,1.1762 -19.8257,2.545 -21.471,3.0419 -2.5412,0.7674 15.3181,15.216 118.6666,96.0045 117.0531,91.5012 121.8348,95.0747 126.3248,94.4042 2.5667,-0.3832 8.4548,-1.1106 13.0848,-1.6163 z m -40.7917,-67.061 c -1.3767,-2.2637 -10.544,-10.1855 -20.372,-17.6041 -24.7887,-18.7115 -29.8365,-27.8479 -15.4245,-27.9171 3.0269,-0.014 9.4034,-0.5889 14.1701,-1.2765 4.7667,-0.6876 31.1667,-3.9757 58.6667,-7.3068 27.5,-3.3311 52.85,-6.413 56.3333,-6.8485 4.9153,-0.6147 6.3333,-1.3291 6.3333,-3.1909 0,-5.4745 4.6823,-3.2947 29.465,13.7175 28.1716,19.3384 34.318,24.3487 32.3206,26.3461 -1.9356,1.9355 -14.3522,4.2295 -75.1189,13.8781 -60.8845,9.6674 -76.5332,12.2779 -80.9353,13.5019 -2.2995,0.6393 -3.4775,-0.075 -5.4383,-3.2997 z m 54.1088,-13.4947 c 25.0913,-3.6667 45.7656,-6.6659 45.9427,-6.6649 0.4264,0 -0.4743,-33.9021 -0.9123,-34.3441 -0.1865,-0.1883 -23.3851,2.9094 -51.5524,6.8837 -28.1672,3.9744 -57.0632,7.9525 -64.2132,8.8403 -7.15,0.8878 -12.9627,1.9901 -12.9171,2.4496 0.045,0.4594 6.0551,5.6354 13.3543,11.502 7.2991,5.8667 14.874,12.3167 16.8331,14.3334 1.959,2.0166 4.5254,3.6666 5.7032,3.6666 1.1777,0 22.6705,-3 47.7617,-6.6666 z m 79.5981,-11.4467 c 8.8,-1.1667 16.1026,-2.221 16.228,-2.343 0.1254,-0.122 -8.204,-5.5264 -18.5096,-12.0097 -20.1621,-12.6842 -20.9913,-12.8181 -21.0313,-3.3962 -0.013,2.6424 -0.4105,8.5365 -0.8872,13.0979 l -0.8669,8.2936 4.5336,-0.7607 c 2.4933,-0.4184 11.7334,-1.7153 20.5334,-2.8819 z m -210,-45.0134 c 0,-0.253 -1.35,-1.603 -3,-3 l -3,-2.5399 2.54,3 c 2.387,2.8192 3.46,3.6069 3.46,2.5399 z m 14.6667,-0.043 c 0,-0.4614 -12.716,-9.9211 -24,-17.8541 -4.0833,-2.8708 -4.0047,-2.7202 0.6293,1.2047 2.913,2.4671 8.613,7.2989 12.6667,10.7374 6.3035,5.3465 10.704,7.7771 10.704,5.912 z m 21.9333,-3.2662 c -2.823,-2.4569 -19.2666,-13.6584 -19.2666,-13.1246 0,1.0687 17.6737,14.227 19.109,14.227 0.8831,0 0.943,-0.4189 0.1576,-1.1024 z m 14.6667,-0.028 c -0.6967,-0.6216 -9.6667,-7.0126 -19.9333,-14.2022 -10.2667,-7.1896 -19.5667,-13.7112 -20.6667,-14.4924 -1.1,-0.7813 -1.5051,-0.8403 -0.9,-0.1311 2.7105,3.1773 39.1037,29.8049 40.8333,29.8763 1.1619,0.048 1.4279,-0.3713 0.6667,-1.0505 z m 12.7333,-0.7059 c 0,-0.5259 -22.4989,-16.746 -34,-24.5116 -8.4377,-5.6972 -3.211,-1.4855 16.5059,13.3006 14.0156,10.5106 17.4941,12.7398 17.4941,11.211 z m 22.5556,-2.5411 c -0.3056,-0.2075 -1.7556,-1.2575 -3.2222,-2.3333 -2.4667,-1.8094 -2.5295,-1.7811 -0.8368,0.3773 1.0065,1.2833 2.4565,2.3333 3.2222,2.3333 0.7658,0 1.1423,-0.1698 0.8368,-0.3773 z m 12.7111,-2.0706 c -0.6967,-0.6129 -7.2667,-5.2226 -14.6,-10.2437 -7.3333,-5.021 -15.4333,-10.6364 -18,-12.4785 -9.5036,-6.821 -0.7323,0.8743 13.7272,12.0432 8.2167,6.3468 16.1095,11.5968 17.5395,11.6666 1.5069,0.074 2.0674,-0.3416 1.3333,-0.9876 z m -0.1107,-9.7157 c -21.6916,-15.6581 -26.5561,-19.0396 -25.1564,-17.4873 2.3486,2.6044 35.8894,26.9842 37.1239,26.9842 0.654,0 -4.7315,-4.2736 -11.9675,-9.4969 z m -19.156,7.6602 c 0,-0.2769 -1.05,-1.3269 -2.3333,-2.3334 -2.1148,-1.6585 -2.1619,-1.6113 -0.5035,0.5035 1.7419,2.221 2.8368,2.9273 2.8368,1.8299 z m 55.3192,-0.665 c 3.8731,-0.8288 3.3838,-1.3429 -17.2985,-18.1756 -35.7743,-29.1156 -65.1015,-51.4444 -66.1391,-50.3563 -0.5421,0.5685 -1.1872,2.8221 -1.4336,5.008 -0.4112,3.6478 0.8006,4.9624 14.7471,16 8.3573,6.6141 25.4573,20.2351 38,30.269 12.78,10.2237 23.9772,18.2136 25.4716,18.1756 1.4667,-0.037 4.4603,-0.4516 6.6525,-0.9207 z m -60.6525,-3.335 c 0,-0.2769 -1.05,-1.3269 -2.3333,-2.3334 -2.1148,-1.6585 -2.1619,-1.6113 -0.5035,0.5035 1.7419,2.221 2.8368,2.9273 2.8368,1.8299 z m -58.6667,-2.6667 c 0,-0.2769 -1.05,-1.3269 -2.3333,-2.3333 -2.1148,-1.6585 -2.1619,-1.6114 -0.5035,0.5034 1.7419,2.221 2.8368,2.9273 2.8368,1.8299 z m -30.6666,-4 c 0,-0.2769 -1.05,-1.3269 -2.3334,-2.3333 -2.1148,-1.6585 -2.1618,-1.6114 -0.5034,0.5034 1.7418,2.221 2.8368,2.9273 2.8368,1.8299 z m 37.3333,-12 c 0,-0.2769 -1.05,-1.3269 -2.3333,-2.3333 -2.1148,-1.6585 -2.1619,-1.6114 -0.5035,0.5034 1.7419,2.221 2.8368,2.9273 2.8368,1.8299 z m 49.3333,-4.0725 c 0,-0.3167 -1.95,-1.8663 -4.3333,-3.4435 l -4.3333,-2.8676 4,3.4369 c 4.102,3.5245 4.6666,3.8723 4.6666,2.8742 z m -9.3333,-6.5942 c 0,-0.2768 -1.05,-1.3268 -2.3333,-2.3333 -2.1148,-1.6585 -2.1619,-1.6113 -0.5035,0.5034 1.7419,2.221 2.8368,2.9273 2.8368,1.8299 z m -8.6667,-6.9437 c -3.8025,-3.1859 -10.253,-7.2448 -8.5106,-5.3553 1.4769,1.6017 11.1598,8.7285 11.844,8.7174 0.3666,-0.01 -1.1334,-1.5189 -3.3334,-3.3621 z m -106.2294,-11.178 c 8.5596,-0.7106 28.7628,-2.2832 44.8961,-3.4948 16.1333,-1.2116 30.2656,-2.6884 31.4052,-3.2818 1.1395,-0.5934 2.9395,-0.5299 4,0.141 1.0604,0.671 3.2607,1.2291 4.8895,1.2403 2.8924,0.02 2.9698,-0.3889 3.3333,-17.5928 l 0.372,-17.61321 5.3333,-2.00252 c 2.9334,-1.10139 5.9859,-2.63516 6.7835,-3.40838 0.7976,-0.77321 12.0476,-3.46745 25,-5.98718 l 23.5499,-4.58135 V 956.90837 942.356 l -8.3334,0.83053 c -4.5833,0.4568 -58.4333,4.41362 -119.6666,8.79291 -61.2334,4.37931 -114.4834,8.31863 -118.3334,8.75407 l -7,0.79169 v 28.59613 28.59617 l 3,-0.6458 c 1.65,-0.3552 15,-2.2333 29.6667,-4.1737 l 26.6667,-3.5278 9.7704,9.4815 c 11.1032,10.775 9.1324,10.3094 34.6668,8.1898 z m 24.1553,-93.42294 c 60.4592,-4.37355 110.2592,-7.9606 110.6667,-7.97121 0.4074,-0.0107 -20.1118,-8.35868 -45.5983,-18.55124 l -46.3391,-18.53192 -17.6609,1.16833 c -30.1328,1.9934 -79.6845,5.08156 -127.6609,7.95608 -25.3,1.51587 -51.7,3.18104 -58.6667,3.70042 l -12.6666,0.9443 35.3333,20.27299 35.3333,20.273 8.6667,-0.65443 c 4.7666,-0.35993 58.1333,-4.23277 118.5925,-8.60632 z M 4725.9999,1897.3333 c 0.4532,-0.7333 1.0887,-1.3333 1.412,-1.3333 0.3235,0 0.588,0.6 0.588,1.3333 0,0.7333 -0.6355,1.3333 -1.412,1.3333 -0.7767,0 -1.0412,-0.6 -0.588,-1.3333 z m 78,-65.8368 c 0,-0.2768 1.05,-1.3268 2.3333,-2.3333 2.1148,-1.6584 2.1619,-1.6114 0.5035,0.5034 -1.7419,2.221 -2.8368,2.9274 -2.8368,1.8299 z m 83.419,-25.2207 c 0.5007,-1.3149 1.2463,-2.0549 1.6568,-1.6445 0.4106,0.4105 8e-4,1.4864 -0.9104,2.3909 -1.3168,1.307 -1.47,1.1539 -0.7464,-0.7464 z m -41.419,-11.6092 c 1.3273,-1.4666 2.7133,-2.6666 3.08,-2.6666 0.3666,0 -0.4194,1.2 -1.7467,2.6666 -1.3273,1.4667 -2.7133,2.6667 -3.08,2.6667 -0.3667,0 0.4193,-1.2 1.7467,-2.6667 z m -334.7452,-357.9264 c 1.4236,-1.1405 3.1736,-2.0736 3.8889,-2.0736 1.694,0 0.9376,0.6159 -3.1437,2.5596 -3.1431,1.497 -3.1856,1.4691 -0.7452,-0.486 z m -575.2553,-111.6671 c -23.0087,-19.0809 -68.1134,-64.097 -83.2364,-83.0731 -32.5976,-40.9027 -53.7091,-80.8764 -64.0803,-121.3333 -6.2671,-24.4472 -7.7999,-39.0941 -7.0124,-67.0052 0.7668,-27.1813 3.6229,-44.0078 11.5856,-68.25521 22.9752,-69.96266 71.6692,-134.22691 159.136,-210.02075 7.7595,-6.72395 11.4625,-9.0533 14.6184,-9.19534 6.6585,-0.29968 5.9697,3.09459 -3.0663,15.11026 -87.6033,116.49098 -123.9233,235.61894 -105.2113,345.08844 11.6429,68.1147 44.2919,137.4642 93.4973,198.5979 4.2734,5.3094 7.7699,10.8594 7.7699,12.3333 0,5.7683 -5.9188,2.748 -24.0005,-12.247 z m 434.6672,12.247 c 0,-1.4739 3.4965,-7.0239 7.7698,-12.3333 25.741,-31.9809 49.6915,-71.0495 65.675,-107.1299 57.7268,-130.3103 38.7712,-266.16209 -56.8486,-407.4217 -6.7874,-10.0273 -16.0306,-23.13793 -20.5404,-29.13474 -9.036,-12.01567 -9.7248,-15.40994 -3.0662,-15.11026 3.1558,0.14204 6.8589,2.47139 14.6184,9.19534 99.0458,85.82753 151.2122,160.74774 167.1246,240.02076 3.6954,18.4092 5.0182,55.8612 2.6463,74.9219 -6.2209,49.9921 -29.8016,100.9712 -70.1567,151.6718 -15.0801,18.946 -60.1769,63.9623 -83.2217,83.0731 -18.0817,14.995 -24.0005,18.0153 -24.0005,12.247 z m -631.2639,-87.2966 c -21.8331,-16.9524 -34.9916,-28.5786 -50.4236,-44.5517 -101.4047,-104.9603 -85.6123,-213.07617 47.5571,-325.57881 20.1541,-17.02635 23.5445,-19.32563 26.707,-18.11201 3.8384,1.47292 2.1576,6.2876 -5.8816,16.84845 -29.3129,38.50701 -52.668,84.80444 -62.8294,124.54877 -4.9974,19.5458 -6.7175,31.8611 -7.4739,53.5077 -1.1449,32.7642 2.612,58.7114 13.1253,90.6474 9.7054,29.4819 33.8139,73.7396 54.6392,100.3047 7.5579,9.641 8.3951,13.6953 2.828,13.6953 -2.5866,0 -8.0162,-3.3651 -18.2481,-11.3098 z m 829.9305,8.6145 c 0,-1.4824 2.9296,-6.4324 6.5104,-11 28.6724,-36.575 54.058,-88.87 62.6067,-128.9713 8.0665,-37.8398 7.2605,-78.032 -2.316,-115.4885 -10.1615,-39.74433 -33.5165,-86.04176 -62.8295,-124.54877 -8.0392,-10.56085 -9.72,-15.37553 -5.8816,-16.84845 3.1626,-1.21362 6.553,1.08566 26.7071,18.11201 101.4807,85.73178 134.8252,169.33691 99.9517,250.60981 -17.2418,40.1822 -50.642,79.0081 -102.8182,119.5207 -10.2319,7.9447 -15.6615,11.3098 -18.2482,11.3098 -2.8065,0 -3.6824,-0.6411 -3.6824,-2.6953 z m -976,-66.2289 c -3.3,-3.362 -13.5,-13.4198 -22.6666,-22.3506 -32.3428,-31.5105 -49.3427,-61.9243 -53.4939,-95.7038 -3.6741,-29.897 6.4553,-62.8159 29.2223,-94.96641 9.932,-14.02553 50.86,-55.3883 54.8062,-55.3883 3.9458,0 5.0071,3.6179 2.2982,7.83442 -4.841,7.53514 -16.0023,30.59984 -20.9942,43.38396 -20.6564,52.90153 -22.3153,105.25973 -5.0096,158.11493 4.4823,13.6898 19.1952,45.6293 24.6722,53.5592 1.9089,2.7638 3.1876,6.2445 2.9389,8 -0.7343,5.1842 -5.1645,4.2498 -11.7735,-2.4834 z m 1132.889,5.3687 c -1.7407,-1.7407 -0.8475,-6.8042 1.7921,-10.16 4.7047,-5.9809 19.8209,-38.4602 24.6443,-52.9511 17.8634,-53.6686 16.3885,-105.959 -4.4974,-159.44833 -4.9918,-12.78412 -16.1532,-35.84882 -20.9941,-43.38396 -2.6601,-4.14049 -1.6659,-7.83442 2.1087,-7.83442 3.4441,0 36.8496,32.36084 48.2892,46.77897 25.0851,31.61674 35.5917,58.40324 36.5017,93.06164 0.2768,10.5457 0.12,18.7907 -0.3484,18.3222 -0.4686,-0.4685 -1.9046,3.2933 -3.1911,8.3594 -7.6811,30.2459 -29.976,62.8499 -62.4805,91.3708 -7.4283,6.518 -14.0988,12.9585 -14.8233,14.3123 -1.2964,2.4223 -5.261,3.3128 -7.0012,1.5725 z"
     id="path18"
     inkscape:connector-curvature="0" />
</svg>
