<svg height="1em" viewBox="0 0 478 181" fill="currentColor" xmlns="http://www.w3.org/2000/svg">
<path d="M146.088 177.853C139.936 175.972 135.717 174.636 135.561 174.519L135.301 174.324L136.165 170.217C137.636 163.217 140.008 149.282 140.253 146.195C140.429 143.981 140.399 137.817 140.202 135.741C139.681 130.24 138.825 126.373 137.594 123.961C136.694 122.198 136.246 121.809 134.668 121.42C132.958 120.999 132.475 121.11 124.894 123.672C122.446 124.5 116.572 126.518 111.841 128.157C107.11 129.796 101.06 131.882 98.3973 132.793C90.3223 135.555 77.9845 139.792 64.3197 144.494C57.1845 146.95 48.6815 149.866 45.4241 150.975C38.3928 153.368 36.8189 153.917 32.3572 155.539C27.379 157.349 22.5774 158.977 19.6189 159.86C18.6624 160.145 17.4547 160.528 16.9352 160.71C15.8448 161.093 14.7862 161.387 12.8034 161.859C11.6262 162.14 11.152 162.204 9.93276 162.251C8.18442 162.317 7.316 162.208 5.98104 161.756C3.98741 161.08 2.80905 160.354 1.75026 159.15C0.834953 158.109 0.50837 157.64 0.214854 156.945C-0.231978 155.887 0.0083487 155.771 1.02786 156.553C3.28271 158.281 6.45548 159.016 9.60702 158.54C10.906 158.344 13.5525 157.671 15.9158 156.937C18.4306 156.156 33.4225 150.222 41.1464 146.951C44.1194 145.692 56.43 140.519 68.5027 135.456C89.1659 126.79 99.6395 122.394 105.636 119.868C107.058 119.269 111.034 117.608 114.473 116.177C123.511 112.414 130.054 109.661 132.851 108.446C137.929 106.239 139.254 105.79 141.265 105.594C142.167 105.506 142.483 105.513 143.174 105.637C144.683 105.906 146.288 106.895 148.04 108.637C149.092 109.683 149.306 109.974 153.578 116.158C156.022 119.696 158.073 122.647 158.137 122.716C158.23 122.816 158.381 122.663 158.928 121.912C159.3 121.401 160.018 120.344 160.523 119.564C163.607 114.798 166.713 112.466 169.749 112.637C170.761 112.694 172.21 113.085 173.184 113.564C174.056 113.992 175.234 114.907 176.007 115.757C176.64 116.453 177.928 118.162 177.928 118.306C177.928 118.361 178.423 119.326 179.027 120.451C179.631 121.576 180.25 122.731 180.402 123.017C180.554 123.303 180.75 123.644 180.838 123.774C180.926 123.904 181.094 124.223 181.213 124.483C181.529 125.179 192.568 145.876 192.92 146.432C193.084 146.692 193.329 147.128 193.465 147.401C194.192 148.862 197.964 155.517 198.395 156.098C199.479 157.562 200.871 158.622 202.229 159.021C203.02 159.253 204.241 159.252 204.955 159.02C205.266 158.919 206.81 158.18 208.387 157.377C209.964 156.575 211.666 155.71 212.169 155.456C213.191 154.939 213.126 155.08 212.754 154.189C212.689 154.033 212.572 153.714 212.494 153.48C212.361 153.077 212.281 152.87 212.002 152.202C211.937 152.046 211.818 151.727 211.737 151.493C211.657 151.259 211.459 150.705 211.297 150.263C211.034 149.542 210.598 148.236 210.082 146.621C209.816 145.786 209.341 144.034 209.18 143.293C207.961 137.685 207.717 135.376 207.718 129.45C207.719 126.254 207.936 124.406 208.71 121.03C209.156 119.085 209.45 118.083 209.961 116.772C211.098 113.852 212.548 111.617 214.723 109.434C216.786 107.364 218.245 106.373 222.112 104.418C224.306 103.309 224.495 103.219 225.308 102.911C225.541 102.823 225.795 102.72 225.872 102.681C225.95 102.643 226.267 102.536 226.577 102.444C226.888 102.352 227.293 102.221 227.477 102.153C229.194 101.517 233.699 100.614 236.731 100.299C238.412 100.124 242.198 100.149 243.687 100.345C248.982 101.042 253.014 102.854 256.74 106.211C257.521 106.914 259.835 109.467 260.353 110.197C260.39 110.249 260.547 110.462 260.702 110.67C262.504 113.087 263.826 115.886 264.791 119.327C264.843 119.509 265.057 120.232 265.268 120.935C265.635 122.157 266.448 125.402 266.671 126.535L266.777 127.073L268.393 126.23C269.282 125.766 273.055 123.799 276.778 121.857L283.546 118.328L283.541 112.607C283.538 109.46 283.499 102.48 283.455 97.0941C283.356 85.0282 283.355 83.8603 283.429 74.8618C283.486 67.9324 283.673 58.3067 283.753 58.2144C283.773 58.1903 288.346 58.1545 293.915 58.1349C303.028 58.1029 304.075 58.1144 304.391 58.2503C304.613 58.3459 304.762 58.4836 304.798 58.6254C304.828 58.7486 304.679 69.402 304.466 82.3001C304.253 95.1982 304.091 106.183 304.106 106.713L304.134 107.675L329.504 94.1103C343.458 86.6501 354.893 80.5282 354.915 80.5054C354.937 80.4831 355.058 77.5969 355.184 74.0917C355.643 61.2744 356.573 39.6907 356.779 37.0484L356.832 36.3684L350.836 39.3533C347.538 40.9951 341.476 44.0191 337.366 46.0734C333.255 48.1277 329.596 49.9272 329.234 50.0724C328.106 50.5249 325.711 51.2734 324.562 51.5325C322.859 51.9167 321.655 52.0575 320.057 52.0594C315.79 52.0644 313.127 50.683 310.277 46.9851C310.03 46.665 309.79 46.3882 309.743 46.3702C309.63 46.3268 307.706 43.7245 306.256 41.6544C305.618 40.7439 304.911 39.7984 304.685 39.5534C304.459 39.3085 304.275 39.0622 304.275 39.006C304.275 38.9498 303.273 37.5538 302.049 35.9036C300.825 34.2534 299.781 32.7899 299.729 32.6514C299.648 32.4387 299.672 32.3479 299.886 32.0665C300.199 31.6532 300.452 31.5635 300.751 31.7601C300.916 31.8694 301.212 31.9099 301.844 31.9099C302.608 31.9099 302.842 31.8651 303.811 31.5333C309.675 29.5247 325.239 21.6145 345.826 10.1802C348.023 8.95967 350.146 7.74052 350.544 7.47104C350.941 7.20154 351.809 6.66379 352.471 6.27602C353.133 5.88825 353.993 5.34254 354.381 5.0634C355.653 4.14723 358.921 2.05421 359.833 1.57137C360.066 1.44817 360.461 1.21945 360.712 1.0631C360.963 0.906763 361.428 0.669405 361.746 0.535655C362.064 0.401906 362.399 0.225967 362.489 0.144681C362.998 -0.310529 364.517 0.364499 365.284 1.3866C366.082 2.45014 366.542 3.77302 366.934 6.12964C367.151 7.4313 367.38 8.34023 367.932 10.0831C368 10.2977 368.425 10.8809 368.992 11.5365C371.58 14.53 373.518 17.4639 374.389 19.7055C374.775 20.6988 374.968 21.6794 374.966 22.6298C374.962 24.1716 374.644 25.0183 373.685 26.0419C373.027 26.744 372.438 27.1289 371.198 27.6669C370.057 28.1619 369.072 28.8406 368.578 29.4725C368.361 29.75 368.242 30.3503 367.591 34.4453C365.885 45.1701 364.578 57.644 363.926 69.421C363.635 74.685 363.645 74.1398 363.842 74.0705C364.008 74.0118 364.008 74.0151 363.848 74.1406C363.704 74.2529 363.684 74.3976 363.707 75.1291L363.734 75.986L370.456 72.39C378.536 68.0673 381.387 66.5769 388.223 63.1034C391.093 61.6455 393.504 60.4002 393.582 60.3362C393.92 60.0567 397.376 58.1854 399.269 57.2565C401.242 56.2883 404.674 54.7752 405.474 54.5208C405.681 54.455 405.894 54.3665 405.947 54.3242C406.197 54.1265 408.517 53.3937 409.951 53.0595C411.139 52.7826 413.897 52.3122 415.345 52.1393C416.864 51.9579 420.431 51.9854 421.831 52.1893C424.365 52.5583 426.444 53.1769 428.829 54.2716C430.561 55.0665 431.54 55.6326 432.734 56.5307C433.651 57.2208 435.463 58.9331 435.98 59.5989L436.214 59.8999L447.307 59.2376L455.204 62.6363L455.259 66.3935L477.877 81.558L477.938 82.6323C477.972 83.2231 478 85.3146 478 87.28V90.8534L477.788 90.9435C477.672 90.993 476.776 91.1635 475.796 91.3223C474.817 91.4811 474.013 91.6206 474.01 91.6323C474.006 91.6439 474.027 92.4198 474.055 93.3564C474.083 94.293 474.096 95.0755 474.083 95.0952C474.069 95.1149 472.439 95.5746 470.459 96.1167C468.48 96.6587 466.311 97.2531 465.64 97.4375C464.969 97.6219 464.306 97.8321 464.167 97.9046C463.667 98.165 463.22 97.9732 461.652 96.8258C460.539 96.0107 460.141 95.7692 459.915 95.7705C459.754 95.7714 458.775 95.8748 457.741 96.0003C456.707 96.1258 455.247 96.2798 454.496 96.3425L453.13 96.4565L441.095 86.9046C434.476 81.6514 428.734 77.0873 428.335 76.7616L427.611 76.1705L427.635 68.2073L427.659 60.244L428.881 60.1494L427.894 59.6876C423.5 57.6318 417.699 57.0233 412.526 58.0759C411.178 58.3501 404.466 60.8656 402.647 61.7782C402.04 62.0828 393.782 66.609 393.628 66.7214C393.577 66.7592 393.122 67.0103 392.618 67.2794C392.114 67.5484 391.522 67.8687 391.302 67.991C391.082 68.1134 389.527 68.969 387.847 69.8924C386.166 70.8158 384.58 71.6883 384.321 71.8312C384.063 71.9741 382.625 72.7618 381.125 73.5818C379.626 74.4017 377.236 75.7111 375.814 76.4916C374.392 77.272 372.954 78.0597 372.617 78.2421C372.281 78.4246 371.964 78.6046 371.912 78.6423C371.861 78.68 371.501 78.8821 371.113 79.0914C370.726 79.3008 370.26 79.5546 370.079 79.6555C369.898 79.7564 368.306 80.6415 366.542 81.6225L363.333 83.406L363.263 86.5836C363.159 91.2168 363.184 105.02 363.303 109.628C363.531 118.424 363.86 126.419 364.306 134.032C364.437 136.266 364.52 138.19 364.491 138.308C364.461 138.426 363.907 138.972 363.24 139.539C362.581 140.099 361.365 141.138 360.537 141.847C356.539 145.273 356.39 145.376 355.396 145.374C354.427 145.371 353.556 144.837 353.376 144.134C353.213 143.498 353.349 118.044 353.585 105.04C353.632 102.396 353.772 98.6708 354.107 91.058C354.167 89.6902 354.2 88.5557 354.181 88.5368C354.15 88.5073 353.216 89.0097 350.996 90.2494C348.724 91.5179 344.811 93.6771 338.68 97.0452C331.255 101.125 328.675 102.548 326.412 103.811C323.685 105.335 320.247 107.23 312.264 111.611C307.74 114.095 304.009 116.154 303.973 116.188C303.922 116.237 303.64 131.765 303.526 140.848C303.482 144.343 303.992 147.18 304.931 148.652C305.331 149.28 305.969 149.85 306.607 150.152C307.105 150.387 307.227 150.403 308.457 150.402C309.54 150.401 309.906 150.363 310.525 150.187C314.964 148.918 320.617 145.238 327.117 139.385C328.797 137.872 331.842 135.177 333.883 133.396C336.486 131.124 338.436 129.322 340.417 127.357C341.969 125.817 343.339 124.504 343.461 124.439C344.053 124.126 343.932 124.385 340.91 129.874C330.189 149.351 320.37 162.126 311.747 167.818C305.047 172.24 299.275 172.469 293.383 168.546C289.979 166.279 287.311 163.006 285.851 159.306C285.373 158.093 285.455 158.115 284.482 158.932C272.687 168.831 262.297 174.856 253.111 177.124C249.874 177.923 247.317 178.219 244.343 178.139C242.282 178.084 241.157 177.956 239.267 177.56C238.646 177.43 237.555 177.215 236.842 177.081C231.613 176.102 227.088 173.596 223.152 169.499C222.51 168.831 221.409 167.688 220.705 166.96C219.25 165.453 218.378 164.49 217.944 163.911C217.78 163.692 217.607 163.511 217.562 163.509C217.471 163.506 201.123 171.299 197.699 172.977C196.543 173.544 195.574 174.008 195.546 174.008C195.518 174.008 194.014 174.713 192.205 175.574C190.136 176.559 188.649 177.209 188.2 177.324C187.311 177.553 185.939 177.568 185.132 177.358C184.454 177.181 183.418 176.676 182.803 176.222C182.025 175.647 180.722 174.171 179.674 172.678C179.11 171.875 178.476 170.983 178.264 170.697C178.053 170.411 177.456 169.557 176.939 168.799C175.374 166.505 163.602 149.698 163.577 149.723C163.543 149.757 157.004 179.063 156.871 179.779C156.744 180.46 156.543 181.014 156.427 181C156.385 180.995 151.731 179.578 146.085 177.852L146.088 177.853ZM256.141 167.099C259.806 166.767 264.175 165.451 267.563 163.658C274.208 160.141 280.007 155.599 283.019 151.551C284.049 150.167 284 150.412 283.93 146.965C283.867 143.837 283.823 142.023 283.721 138.39C283.687 137.193 283.633 134.038 283.602 131.378L283.544 126.543L280.395 128.189C278.663 129.094 276.294 130.329 275.13 130.933C273.967 131.536 272.719 132.189 272.357 132.384C271.524 132.831 265.79 135.822 257.221 140.278C253.55 142.187 250.505 143.803 250.453 143.868C250.401 143.933 248.751 144.873 246.787 145.956C238.113 150.739 235.544 152.15 234.718 152.587C234.233 152.843 233.818 153.102 233.795 153.161C233.728 153.338 234.487 154.767 235.296 155.987C237.513 159.33 240.061 161.941 242.817 163.693C244.059 164.483 246.642 165.69 248.2 166.209C250.725 167.049 253.392 167.348 256.141 167.099ZM240.3 140.761C245.47 138.023 250.94 135.155 252.455 134.39C254.761 133.223 255.217 132.96 255.267 132.763C255.353 132.422 255.151 130.74 254.932 129.97C254.829 129.606 254.657 128.847 254.549 128.285C254.341 127.192 253.616 125.215 252.89 123.758C250.828 119.624 248.198 117.033 244.86 115.848C243.319 115.302 242.676 115.211 240.347 115.215C237.936 115.219 237.105 115.335 235.537 115.884C229.21 118.1 226.205 122.689 226.468 129.734C226.61 133.54 227.601 137.801 229.537 142.933C230.265 144.863 230.69 145.827 230.796 145.784C230.853 145.76 235.129 143.5 240.3 140.761ZM468.408 95.5001C470.502 94.9298 472.389 94.4166 472.601 94.3598L472.987 94.2566L473.073 93.3105C473.131 92.6675 473.127 92.3645 473.061 92.3645C473.007 92.3645 470.977 92.7476 468.549 93.2159C466.121 93.6842 464.102 94.0674 464.062 94.0674C464.022 94.0674 463.99 94.66 463.99 95.3842V96.7011L464.295 96.6191C464.463 96.574 466.314 96.0705 468.408 95.5001ZM462.721 95.179C462.805 94.0342 462.77 93.7569 462.53 93.6927C462.425 93.6646 462.192 93.5314 462.013 93.3966C461.833 93.2618 461.523 93.0534 461.324 92.9335L460.962 92.7155L461.002 93.8183L461.042 94.921L461.471 95.1948C461.707 95.3454 461.915 95.5053 461.934 95.5502C461.979 95.6575 462.49 96.0541 462.583 96.0541C462.623 96.0541 462.685 95.6603 462.721 95.179ZM457.499 94.5355C458.815 94.3799 459.92 94.2067 459.954 94.1505C459.989 94.0943 460.046 93.7227 460.081 93.3247C460.116 92.9266 460.204 92.3427 460.276 92.0269C460.371 91.6076 460.407 90.7104 460.408 88.6986L460.409 85.9444L460.108 85.9942C459.942 86.0217 459.404 86.1145 458.913 86.2005L458.02 86.3569L457.973 89.7345C457.925 93.1631 457.883 93.5417 457.583 93.2395C457.381 93.0362 457.326 92.2282 457.321 89.3607C457.316 87.0952 457.29 86.4989 457.194 86.4989C457.077 86.4989 455.129 86.8354 454.706 86.9288L454.495 86.9755V94.9069L454.8 94.8625C454.968 94.8381 456.183 94.691 457.499 94.5355ZM453.267 90.5433L453.261 86.5462L444.136 79.4032C439.117 75.4747 434.964 72.1857 434.907 72.0949C434.849 72.0038 434.728 71.9293 434.638 71.9293C434.486 71.9293 434.472 71.713 434.449 68.9755L434.424 66.0216L431.983 64.6283C430.641 63.862 429.524 63.2533 429.502 63.2756C429.419 63.359 429.698 75.858 429.785 75.9503C429.874 76.0451 453.205 94.5241 453.249 94.5347C453.262 94.5378 453.27 92.7418 453.267 90.5433ZM467.979 92.0794C470.147 91.6621 471.936 91.3052 471.955 91.2862C472.017 91.2232 470.999 90.3777 470.86 90.3777C470.749 90.3777 462.627 91.945 462.356 92.0188C462.311 92.0311 462.564 92.2428 462.919 92.4893C463.402 92.8252 463.623 92.9249 463.8 92.8877C463.93 92.8603 465.81 92.4966 467.979 92.0794ZM461.751 90.8984C462.977 90.6458 462.883 90.6979 462.824 90.3031C462.794 90.11 462.746 88.9737 462.716 87.7778C462.686 86.582 462.653 85.5964 462.644 85.5876C462.593 85.5411 461.24 85.823 461.17 85.8944C461.105 85.9615 460.982 91.0404 461.046 91.0401C461.055 91.04 461.372 90.9763 461.751 90.8984ZM464.413 90.375C465.338 90.203 465.33 90.2076 465.271 89.8719C465.242 89.7079 465.192 88.5947 465.161 87.3983C465.129 86.2019 465.09 85.2094 465.073 85.1927C465.047 85.1659 464.285 85.283 463.602 85.4189L463.355 85.468L463.384 86.622C463.399 87.2567 463.415 88.4048 463.419 89.1733L463.426 90.5705L463.637 90.5251C463.753 90.5002 464.102 90.4327 464.413 90.375ZM474.81 89.8831L476.464 89.5794L476.526 87.7402C476.559 86.7286 476.587 85.3517 476.587 84.6804V83.4599L476.14 83.5191C475.277 83.6336 475.178 83.669 475.133 83.8811C475.109 83.994 475.066 85.1082 475.036 86.357C474.98 88.6905 474.923 89.2488 474.734 89.3121C474.674 89.3322 474.57 89.2502 474.502 89.13C474.407 88.9635 474.378 88.2982 474.38 86.3402L474.383 83.7691L473.91 83.8228C473.65 83.8523 473.432 83.8811 473.425 83.8868C473.418 83.8925 473.366 85.1579 473.309 86.6989C473.253 88.2398 473.18 89.5702 473.148 89.6553C473.115 89.7405 473.031 89.8101 472.961 89.8101C472.667 89.8101 472.63 89.4382 472.658 86.724L472.686 84.0192L472.027 84.083C471.666 84.1181 471.32 84.1971 471.26 84.2585C471.187 84.3338 471.132 85.1344 471.092 86.7102C471.042 88.7204 471.052 89.0428 471.168 88.9981C471.25 88.9666 471.595 89.2101 472.041 89.6135C472.577 90.0982 472.831 90.2681 472.968 90.2339C473.071 90.2081 473.9 90.0501 474.81 89.8831ZM467.021 89.8534L467.938 89.6808V87.1911C467.938 85.2593 467.912 84.7027 467.82 84.7073C467.756 84.7105 467.28 84.7861 466.763 84.8754L465.823 85.0376L465.827 85.4371C465.829 85.6569 465.84 86.7991 465.85 87.9754C465.865 89.6406 465.896 90.1044 465.987 90.0701C466.052 90.0459 466.517 89.9483 467.021 89.8534ZM469.763 89.3246L470.364 89.2132L470.4 86.7917C470.421 85.4599 470.428 84.3555 470.416 84.3374C470.405 84.3193 470.016 84.3567 469.552 84.4205C468.724 84.5344 468.708 84.5417 468.652 84.82C468.621 84.9759 468.596 86.1039 468.596 87.3267V89.55L468.879 89.493C469.035 89.4616 469.432 89.3859 469.763 89.3246ZM455.417 85.1193C455.743 85.0834 455.976 85.0199 455.934 84.9781C455.783 84.8285 451.4 82.0678 451.224 82.0116C450.84 81.8889 450.731 81.1064 451.098 81.1064C451.188 81.1064 451.852 81.5002 452.574 81.9815C453.295 82.4628 454.578 83.3171 455.426 83.8799L456.966 84.9032L457.822 84.7969C458.293 84.7385 458.737 84.6709 458.808 84.6467C458.929 84.6062 454.929 81.8077 454.243 81.4525C453.918 81.2844 453.79 81.0254 453.884 80.728C453.976 80.4364 454.254 80.5005 454.846 80.9493C455.144 81.1752 455.874 81.6937 456.469 82.1016C457.063 82.5095 458.074 83.2206 458.715 83.6819L459.88 84.5206L461.481 84.2758L460.644 83.7187C460.183 83.4122 459.15 82.7054 458.349 82.1478C457.548 81.5902 456.757 81.0645 456.593 80.9794C456.268 80.8114 456.14 80.5525 456.234 80.255C456.297 80.0553 456.692 79.988 456.797 80.1592C456.855 80.2542 457.486 80.7142 459.759 82.3201C460.457 82.8132 461.298 83.4308 461.627 83.6925L462.226 84.1683L463.162 84.0508C464.448 83.8892 464.462 83.8791 463.877 83.5232C463.603 83.3566 462.596 82.6977 461.64 82.0589C460.684 81.4202 459.745 80.8175 459.555 80.7197C459.187 80.5307 459.05 80.2801 459.148 79.9711C459.232 79.7048 459.53 79.7347 459.934 80.0498C460.122 80.1972 461.079 80.8644 462.061 81.5325C463.043 82.2006 464.145 82.9695 464.51 83.241L465.174 83.7348L465.911 83.6058C466.316 83.5348 466.661 83.4631 466.678 83.4463C466.717 83.4074 462.564 80.5462 462.151 80.3271C461.815 80.1494 461.686 79.8923 461.78 79.5928C461.874 79.2968 462.144 79.3665 462.79 79.8529C463.118 80.1001 463.693 80.5152 464.069 80.7753C464.445 81.0355 465.382 81.7061 466.152 82.2654C466.921 82.8247 467.624 83.2824 467.713 83.2824C467.802 83.2824 468.149 83.2344 468.484 83.1757C468.989 83.0872 469.063 83.0519 468.915 82.9698C468.817 82.9153 467.848 82.2777 466.763 81.553C465.677 80.8283 464.633 80.1553 464.443 80.0575C464.075 79.8685 463.939 79.6177 464.036 79.3089C464.12 79.0428 464.419 79.0724 464.822 79.3869C465.01 79.5338 466.053 80.264 467.139 81.0094C468.224 81.7549 469.272 82.4902 469.467 82.6435C469.799 82.905 469.856 82.9181 470.383 82.8565C470.693 82.8203 470.963 82.763 470.983 82.7291C471.02 82.6658 466.772 79.889 466.326 79.6853C465.866 79.4751 465.74 78.7413 466.164 78.7413C466.267 78.7413 466.487 78.8441 466.651 78.9697C466.816 79.0954 468.087 79.9591 469.476 80.8891L472.002 82.5801L472.602 82.4899C473.179 82.4031 473.334 82.3148 473.085 82.2149C473.02 82.189 472.032 81.5075 470.889 80.7004C469.746 79.8934 468.681 79.1655 468.522 79.0828C468.363 79.0001 468.206 78.8469 468.173 78.7423C468.086 78.4663 468.205 78.1736 468.405 78.1736C468.499 78.1736 469.108 78.5674 469.756 79.0487C470.405 79.53 471.411 80.2637 471.992 80.6792C472.573 81.0947 473.28 81.6157 473.563 81.8369C474.033 82.2038 474.112 82.2339 474.463 82.1792C474.674 82.1462 474.919 82.0935 475.006 82.0622C475.169 82.0037 471.062 79.1889 467.045 76.606C463.324 74.2138 459.668 71.835 457.253 70.2357L454.793 68.607L454.244 68.702C453.943 68.7543 453.366 68.8259 452.963 68.8611C452.56 68.8963 452.243 68.9595 452.258 69.0014C452.273 69.0434 453.682 70.2118 455.388 71.598C457.094 72.9842 458.647 74.2951 458.839 74.5112L459.189 74.904L458.996 75.1109C458.504 75.638 458.331 75.6697 452.537 76.294C448.103 76.7719 447.04 76.8612 446.978 76.761C446.919 76.6647 446.881 76.6755 446.806 76.8096C446.721 76.9627 446.691 76.9667 446.537 76.8446C446.441 76.769 445.008 75.5577 443.353 74.1528C441.697 72.7479 440.274 71.5438 440.19 71.4771C440.066 71.3782 439.798 71.3839 438.735 71.5077C438.019 71.5911 437.337 71.6882 437.221 71.7235C437.042 71.7779 438.301 72.8031 445.588 78.5354C453.841 85.0278 454.178 85.2814 454.495 85.2338C454.676 85.2066 455.091 85.1551 455.417 85.1193ZM452.541 80.361C452.444 80.2003 451.798 79.6382 451.105 79.1119C449.357 77.7842 449.001 77.1359 450.017 77.131C450.231 77.13 450.68 77.0893 451.016 77.0405C451.352 76.9917 453.214 76.7584 455.153 76.522C457.091 76.2857 458.879 76.067 459.124 76.0361C459.471 75.9925 459.571 75.9418 459.571 75.8097C459.571 75.4212 459.901 75.5759 461.648 76.783C463.635 78.1552 464.068 78.5107 463.927 78.6524C463.791 78.7897 462.915 78.9525 458.631 79.6371C454.338 80.3231 453.235 80.5083 452.924 80.5951C452.762 80.6405 452.679 80.5898 452.541 80.361ZM456.356 79.4034C458.125 79.1433 459.583 78.9305 459.595 78.9305C459.625 78.9305 459.562 76.525 459.531 76.4937C459.518 76.4803 457.882 76.7001 455.896 76.9821C453.91 77.2641 451.873 77.5464 451.369 77.6093C450.865 77.6723 450.455 77.7506 450.458 77.7832C450.461 77.8158 450.885 78.183 451.4 78.5993C451.914 79.0156 452.448 79.4732 452.586 79.6163C452.725 79.7594 452.905 79.8764 452.989 79.8764C453.072 79.8764 454.587 79.6636 456.356 79.4034ZM461.968 78.5912C462.589 78.5084 463.103 78.4336 463.112 78.425C463.121 78.4163 462.534 78.0328 461.807 77.5728C460.386 76.6728 460.327 76.6633 460.324 77.3318C460.323 77.5193 460.295 77.9375 460.262 78.2612L460.201 78.8497L460.52 78.7957C460.696 78.766 461.348 78.674 461.968 78.5912ZM447.162 75.3973C447.162 75.3794 447.067 75.2836 446.95 75.1845L446.739 75.0042L446.918 75.2171C447.086 75.4171 447.162 75.473 447.162 75.3973ZM448.196 75.3943C448.196 75.3615 447.299 74.6903 446.504 74.1275C446.216 73.9238 446.221 73.9344 446.548 74.2129C446.754 74.388 447.155 74.7308 447.441 74.9748C447.886 75.3541 448.196 75.5266 448.196 75.3943ZM449.742 75.1625C449.543 74.9882 448.384 74.1934 448.384 74.2312C448.384 74.3071 449.63 75.2407 449.731 75.2407C449.793 75.2407 449.798 75.211 449.742 75.1625ZM450.776 75.1605C450.727 75.1164 450.095 74.663 449.371 74.1528C448.647 73.6427 447.991 73.18 447.914 73.1246C447.836 73.0691 447.808 73.0649 447.85 73.1153C448.042 73.3407 450.608 75.2301 450.729 75.2351C450.811 75.2385 450.83 75.2087 450.776 75.1605ZM451.674 75.1105C451.674 75.0731 450.088 73.9222 449.277 73.3712C448.682 72.967 449.051 73.2658 450.441 74.315C451.429 75.0608 451.674 75.2189 451.674 75.1105ZM453.265 74.9302C453.243 74.9154 453.141 74.8409 453.037 74.7646C452.863 74.6362 452.859 74.6382 452.978 74.7914C453.049 74.8824 453.152 74.9569 453.206 74.9569C453.26 74.9569 453.286 74.9449 453.265 74.9302ZM454.161 74.7832C454.112 74.7397 453.648 74.4127 453.131 74.0564C452.614 73.7001 452.043 73.3017 451.862 73.171C451.192 72.687 451.811 73.233 452.83 74.0255C453.409 74.4758 453.966 74.8484 454.067 74.8533C454.173 74.8586 454.213 74.8291 454.161 74.7832ZM454.153 74.0939C452.624 72.9828 452.281 72.7429 452.379 72.8531C452.545 73.0379 454.91 74.7677 454.997 74.7677C455.043 74.7677 454.663 74.4645 454.153 74.0939ZM452.802 74.6374C452.802 74.6177 452.728 74.5432 452.638 74.4718C452.489 74.3541 452.485 74.3575 452.602 74.5075C452.725 74.6651 452.802 74.7152 452.802 74.6374ZM456.703 74.5902C456.976 74.5314 456.941 74.4949 455.483 73.3005C452.961 71.2346 450.893 69.6503 450.82 69.7275C450.782 69.7679 450.736 69.9278 450.719 70.0829C450.69 70.3417 450.775 70.435 451.759 71.2182C452.348 71.6875 453.553 72.6539 454.438 73.3659C455.339 74.0913 456.128 74.6582 456.234 74.6555C456.337 74.6529 456.548 74.6235 456.703 74.5902ZM452.426 74.3536C452.426 74.3339 452.352 74.2594 452.262 74.188C452.113 74.0703 452.109 74.0737 452.226 74.2237C452.349 74.3813 452.426 74.4314 452.426 74.3536ZM448.29 74.1643C448.29 74.1447 448.216 74.0702 448.125 73.9988C447.976 73.8811 447.973 73.8845 448.09 74.0345C448.213 74.1921 448.29 74.2422 448.29 74.1643ZM446.128 73.8805C446.128 73.8609 446.054 73.7864 445.963 73.715C445.814 73.5973 445.811 73.6006 445.928 73.7507C446.051 73.9083 446.128 73.9584 446.128 73.8805ZM448.76 73.0291C448.76 73.0094 448.686 72.9349 448.595 72.8635C448.446 72.7458 448.443 72.7492 448.56 72.8992C448.683 73.0568 448.76 73.1069 448.76 73.0291ZM452.238 72.7401C452.238 72.7176 452.101 72.6077 451.933 72.4958L451.627 72.2923L451.909 72.5362C452.198 72.7863 452.238 72.8109 452.238 72.7401ZM451.58 72.2722C451.58 72.2526 451.506 72.1781 451.416 72.1067C451.267 71.989 451.263 71.9923 451.38 72.1424C451.503 72.3 451.58 72.3501 451.58 72.2722ZM450.969 71.7795C450.701 71.5535 450.246 71.2655 450.369 71.3996C450.473 71.5132 451.156 72.0189 451.204 72.0181C451.23 72.0174 451.124 71.9103 450.969 71.7795ZM443.479 70.9864C444.083 70.936 445.507 70.8244 446.645 70.7384C447.782 70.6525 448.779 70.5477 448.859 70.5056C448.939 70.4635 449.066 70.468 449.141 70.5156C449.216 70.5632 449.371 70.6028 449.486 70.6036C449.69 70.605 449.695 70.576 449.721 69.3553L449.747 68.1056L450.123 67.9635C450.33 67.8853 450.545 67.7765 450.601 67.7216C450.658 67.6668 451.451 67.4756 452.364 67.2968L454.024 66.9717V64.9067L453.437 64.9656C453.114 64.998 449.317 65.2788 444.999 65.5895C440.682 65.9002 436.928 66.1797 436.656 66.2106L436.163 66.2668V70.3249L436.374 70.279C436.491 70.2538 437.432 70.1206 438.466 69.9829L440.346 69.7326L441.035 70.4053C441.818 71.1699 441.679 71.1368 443.479 70.9864ZM445.182 64.3576C449.445 64.0473 452.956 63.7928 452.985 63.792C453.014 63.7913 451.567 63.1989 449.77 62.4757L446.503 61.1608L445.258 61.2437C443.133 61.3851 439.64 61.6043 436.257 61.8082C434.473 61.9158 432.612 62.0339 432.121 62.0708L431.228 62.1378L436.21 65.0147L436.821 64.9683C437.157 64.9427 440.92 64.6679 445.182 64.3576ZM332.803 132.667C332.835 132.615 332.88 132.572 332.902 132.572C332.925 132.572 332.944 132.615 332.944 132.667C332.944 132.719 332.899 132.762 332.844 132.762C332.79 132.762 332.771 132.719 332.803 132.667ZM338.302 127.996C338.302 127.976 338.376 127.902 338.467 127.83C338.616 127.712 338.619 127.716 338.502 127.866C338.38 128.023 338.302 128.074 338.302 127.996ZM344.184 126.206C344.219 126.113 344.272 126.06 344.301 126.089C344.33 126.119 344.301 126.195 344.237 126.259C344.144 126.352 344.133 126.341 344.184 126.206ZM341.264 125.382C341.357 125.278 341.455 125.193 341.481 125.193C341.507 125.193 341.451 125.278 341.358 125.382C341.264 125.486 341.166 125.572 341.14 125.572C341.115 125.572 341.17 125.486 341.264 125.382ZM317.662 99.9856C317.762 99.9047 317.886 99.8385 317.936 99.8385C318.055 99.8385 318.002 99.8822 317.714 100.02C317.493 100.126 317.49 100.124 317.662 99.9856ZM277.103 92.0621C275.48 90.7082 272.3 87.5141 271.234 86.1677C268.936 83.2654 267.447 80.4291 266.716 77.5587C266.274 75.8241 266.166 74.7848 266.221 72.8044C266.276 70.8758 266.477 69.6818 267.038 67.9614C268.658 62.9972 272.091 58.4371 278.259 53.0595C278.806 52.5824 279.067 52.4171 279.289 52.407C279.759 52.3858 279.71 52.6266 279.073 53.4792C272.897 61.7447 270.336 70.1975 271.655 77.9649C272.476 82.798 274.778 87.7184 278.247 92.0565C278.549 92.4333 278.795 92.827 278.795 92.9316C278.795 93.3409 278.377 93.1261 277.103 92.0621ZM307.749 92.9311C307.749 92.8265 307.996 92.4327 308.297 92.056C310.112 89.7868 311.801 87.0146 312.928 84.4546C316.998 75.2085 315.661 65.5693 308.919 55.5462C308.441 54.8348 307.789 53.9045 307.471 53.479C306.834 52.6264 306.786 52.3856 307.255 52.4068C307.478 52.4169 307.739 52.5822 308.286 53.0593C315.269 59.1492 318.947 64.4653 320.069 70.0898C320.329 71.396 320.422 74.0534 320.255 75.4059C319.817 78.9531 318.154 82.5702 315.309 86.1676C314.246 87.5119 311.066 90.706 309.441 92.062C308.166 93.126 307.749 93.3403 307.749 92.9311ZM263.242 86.7369C261.702 85.5341 260.775 84.7091 259.687 83.5758C252.537 76.1283 253.65 68.4567 263.04 60.4743C264.461 59.2662 264.7 59.1031 264.923 59.1892C265.193 59.2937 265.075 59.6353 264.508 60.3846C262.441 63.1169 260.795 66.4019 260.078 69.222C259.726 70.6089 259.605 71.4827 259.551 73.0187C259.47 75.3434 259.735 77.1845 260.477 79.4505C261.161 81.5424 262.861 84.6827 264.329 86.5673C264.862 87.2514 264.921 87.539 264.528 87.539C264.346 87.539 263.963 87.3007 263.242 86.7369ZM321.757 87.3482C321.757 87.243 321.963 86.8918 322.216 86.5677C324.237 83.9725 326.027 80.2619 326.63 77.4166C327.199 74.7317 327.142 71.8799 326.467 69.2221C325.75 66.4021 324.104 63.117 322.037 60.3847C321.47 59.6353 321.351 59.2937 321.622 59.1892C321.845 59.1031 322.084 59.2663 323.505 60.4744C330.66 66.5574 333.011 72.4898 330.552 78.2563C329.337 81.1074 326.982 83.8623 323.303 86.7368C322.581 87.3005 322.199 87.5393 322.016 87.5393C321.818 87.5393 321.757 87.4939 321.757 87.3482ZM252.943 82.6489C252.71 82.4104 251.991 81.6967 251.345 81.063C249.064 78.8272 247.866 76.6692 247.573 74.2723C247.314 72.151 248.028 69.8153 249.633 67.5341C250.334 66.5389 253.219 63.604 253.498 63.604C253.776 63.604 253.851 63.8607 253.66 64.1599C253.318 64.6946 252.531 66.3311 252.179 67.2382C250.723 70.9919 250.606 74.7069 251.826 78.4569C252.142 79.4282 253.18 81.6945 253.566 82.2571C253.7 82.4532 253.791 82.7002 253.773 82.8248C253.721 83.1926 253.409 83.1267 252.943 82.6489ZM332.819 83.0298C332.696 82.9063 332.759 82.5471 332.945 82.3089C333.277 81.8846 334.343 79.58 334.683 78.5518C335.943 74.7438 335.838 71.0335 334.366 67.2381C334.014 66.331 333.227 64.6944 332.886 64.1598C332.698 63.866 332.768 63.6039 333.034 63.6039C333.277 63.6039 335.633 65.9001 336.439 66.9231C338.208 69.1665 338.949 71.0671 339.013 73.5263C339.032 74.2746 339.021 74.8596 338.988 74.8263C338.955 74.7931 338.854 75.06 338.763 75.4195C338.222 77.5656 336.65 79.879 334.358 81.9026C333.834 82.3651 333.364 82.8221 333.313 82.9182C333.221 83.09 332.942 83.1533 332.819 83.0298Z"/>
</svg>
